<?xml version="1.0" encoding="utf-8"?>
<!-- Generator: Adobe Illustrator 16.0.0, SVG Export Plug-In . SVG Version: 6.00 Build 0)  -->
<!DOCTYPE svg PUBLIC "-//W3C//DTD SVG 1.1//EN" "http://www.w3.org/Graphics/SVG/1.1/DTD/svg11.dtd">
<svg version="1.1" id="Layer_1" xmlns="http://www.w3.org/2000/svg" xmlns:xlink="http://www.w3.org/1999/xlink" x="0px" y="0px"
	 width="446.39px" height="117.72px" viewBox="0 0 446.39 117.72" enable-background="new 0 0 446.39 117.72" xml:space="preserve">
<path fill-rule="evenodd" clip-rule="evenodd" fill="#9D9D9C" d="M233.8,44.6l-0.06,8.21l13.02-0.04c0,0,6.94,0.39,9.82-6.08
	c2.08-4.66-1.94-10.09-1.94-10.09l-9.98-12.56c0,0-3.22-4.7,1.08-4.7c4.29,0,8.68,0,8.68,0l-0.03-8.77h-11.11
	c0,0-6.75-0.24-9.72,5.41c-3.01,5.72,2.81,13.69,2.81,13.69l8.69,10.13c0,0,3.85,4.8-2.38,4.8H233.8z"/>
<path fill-rule="evenodd" clip-rule="evenodd" fill="#9D9D9C" d="M333.47,42.03c0,0,8.51-3.53,8.51-15.39
	c0-9.25-6.93-16.09-17.63-16.09l-8.55,0l0.06,42.18h8.06l1.5-5.87l8.33,5.89h8.87l-0.07-4.82L333.47,42.03z M325.56,37.76
	l-0.14-1.36V18.22c0,0,7.36,0.54,7.36,8.57C332.77,35.4,325.56,37.76,325.56,37.76z"/>
<path fill-rule="evenodd" clip-rule="evenodd" fill="#9D9D9C" d="M364.78,12.06c-2.42-0.99-5.69-1.48-8.63-1.48c-4.68,0-8.8,0-8.8,0
	l0.08,42.1h9.98c0,0,14.63,0.56,17.49-14.86C377.95,21.43,369.82,14.11,364.78,12.06z M365.35,35.08
	c-1.27,11.09-7.93,9.98-7.93,9.98v-26.1C362.21,19.06,366.43,25.6,365.35,35.08z"/>
<path fill-rule="evenodd" clip-rule="evenodd" d="M207.82,67.77c-2.42-0.99-5.7-1.48-8.63-1.48c-4.67,0-8.8,0-8.8,0l0.08,42.1h9.98
	c0,0,14.63,0.56,17.49-14.86C220.98,77.14,212.86,69.81,207.82,67.77z M208.39,90.79c-1.27,11.09-7.93,9.97-7.93,9.97V74.67
	C205.24,74.76,209.47,81.31,208.39,90.79z"/>
<polygon fill-rule="evenodd" clip-rule="evenodd" fill="#9D9D9C" points="192.53,10.54 192.53,52.72 202.32,52.72 202.16,28.27 
	209.8,38.56 217.46,27.92 217.53,52.71 227.09,52.71 227.06,10.52 218.77,10.52 210.03,23.83 201.51,10.54 "/>
<polygon fill-rule="evenodd" clip-rule="evenodd" fill="#9D9D9C" points="282.95,10.7 259.79,10.7 259.84,19.26 266.34,19.26 
	266.34,52.76 276.35,52.76 276.35,19.26 282.93,19.26 "/>
<polygon fill-rule="evenodd" clip-rule="evenodd" fill="#9D9D9C" points="287.44,10.92 287.44,52.71 309.41,52.71 311.94,44.71 
	297.55,44.71 298.36,32.12 306.65,32.12 306.65,25.15 298.25,25.15 297.32,19.39 311.02,19.39 309.95,10.91 "/>
<g>
	<path fill-rule="evenodd" clip-rule="evenodd" fill="#9D9D9C" d="M183.93,17.59v-6.98h-23.32v6.98h4.74l-8.17,35.06h8.1l1.73-4.77
		h10.48l1.95,4.78h8.2l-8.36-35.07H183.93z M169.32,41.07l2.98-15.42l2.98,15.42H169.32z"/>
</g>
<polygon fill-rule="evenodd" clip-rule="evenodd" fill="#9D9D9C" points="411.84,10.54 411.84,52.72 421.63,52.72 421.46,28.27 
	429.1,38.56 436.76,27.92 436.84,52.71 446.39,52.71 446.36,10.52 438.08,10.52 429.33,23.83 420.82,10.54 "/>
<g>
	<path fill-rule="evenodd" clip-rule="evenodd" fill="#9D9D9C" d="M403.23,17.59v-6.98h-23.32v6.98h4.74l-8.17,35.06h8.1l1.73-4.77
		h10.48l1.95,4.78h8.2l-8.36-35.07H403.23z M388.62,41.07l2.98-15.42l2.98,15.42H388.62z"/>
</g>
<g>
	<path fill-rule="evenodd" clip-rule="evenodd" d="M180.99,73.3v-6.98h-23.32v6.98h4.74l-8.17,35.06h8.1l1.73-4.77h10.48l1.95,4.78
		h8.21l-8.36-35.07H180.99z M166.38,96.77l2.98-15.42l2.98,15.42H166.38z"/>
</g>
<path fill-rule="evenodd" clip-rule="evenodd" fill="#9D9D9C" d="M248.28,83.8c0,0,2.47-1.72,3.64-4.68
	c1.05-2.65,0.65-5.53-0.63-7.72c-2.95-5.05-7.84-5.08-14.27-5.08c-2.37,0-5.58,0-8.75,0v42.11h9.29c7.03,0,14.74-2.18,16.83-10.01
	C254.39,98.41,257.03,87.72,248.28,83.8z M237.58,72.65l2.52-0.01c1.24,0,1.96,0.23,2.77,0.77c2.52,1.69,1.8,4.75,0.73,5.98
	c-1.44,1.66-6.02,1.08-6.02,1.08V72.65z M245.98,95.1c-0.88,5.65-8.84,4.95-8.84,4.95V88.27C242.03,87.23,246.85,89.56,245.98,95.1z
	"/>
<polygon fill-rule="evenodd" clip-rule="evenodd" fill="#9D9D9C" points="259.71,66.28 259.71,108.44 277.62,108.44 277.63,100.5 
	269.63,100.5 269.61,66.28 "/>
<path fill-rule="evenodd" clip-rule="evenodd" fill="#9D9D9C" d="M334.06,74.37L334.06,74.37v-8.69l-1.11-0.04
	c-20.85,0.15-24.1,19.54-19.31,31.4c5.73,14.2,24.26,11.09,24.26,11.09V81.54h-9.04v17.45c-4.11,0-7.43-6.64-6.99-13.71
	C322.56,74.4,333.5,74.37,334.06,74.37z"/>
<path fill-rule="evenodd" clip-rule="evenodd" fill="#9D9D9C" d="M293.7,65.32c-5.41,0-14.03,5.85-14.03,21.16
	c0,16.71,8.63,23.48,14.03,23.48c5.4,0,14.04-7,14.04-23.48C307.73,69.62,299.1,65.32,293.7,65.32z M297.08,86.69
	c0,6.38-0.88,11.62-0.88,11.62c-0.3,1.15-1.01,2.26-2.27,2.26c-1.25,0-2.01-1.03-2.27-2.26c0,0-0.88-5.42-0.88-11.53
	c0-6.56,0.88-10.41,0.88-10.41c0.26-1.31,1.02-2.26,2.27-2.26c1.25,0,1.86,1,2.27,2.26C296.2,76.37,297.08,79.45,297.08,86.69z"/>
<polygon fill-rule="evenodd" clip-rule="evenodd" fill="#FFFFFF" points="128.37,9.4 32.65,0.03 33.35,117.72 128.4,109.46 "/>
<g>
	<polygon fill="#E31013" points="78.86,84.47 93.33,83.99 84.95,47.13 	"/>
	<polygon fill="#E31013" points="56.74,23.73 56.72,2.38 32.73,0 32.65,0.03 33.35,117.72 33.35,117.72 46.23,116.71 68.68,24.49 	
		"/>
	<polygon fill="#E31013" points="112.04,7.9 112.69,27.23 101.65,26.53 121.35,110.07 128.4,109.46 128.37,9.4 	"/>
	<polygon fill="#E31013" points="69.09,114.7 102.41,111.71 102.35,111.55 97.44,101.38 74.41,102.81 	"/>
</g>
<g>
	<polygon fill="#8A1302" points="18.3,80.26 15.13,47.79 12.12,79.19 	"/>
	<polygon fill="#8A1302" points="26.68,25.09 21.34,27.09 31.77,116.61 33.35,117.72 32.65,0.03 26.71,3.81 	"/>
	<polygon fill="#8A1302" points="23.41,110.73 20.22,94.71 11.28,92.09 8.89,100.45 	"/>
	<polygon fill="#8A1302" points="3.31,96.66 10.27,31.61 6.74,32.94 6.78,16.53 0.32,20.65 0,94.36 	"/>
</g>
</svg>
