<?xml version="1.0" encoding="utf-8"?>
<!-- Generator: Adobe Illustrator 16.0.0, SVG Export Plug-In . SVG Version: 6.00 Build 0)  -->
<!DOCTYPE svg PUBLIC "-//W3C//DTD SVG 1.1//EN" "http://www.w3.org/Graphics/SVG/1.1/DTD/svg11.dtd">
<svg version="1.1" id="Capa_1" xmlns="http://www.w3.org/2000/svg" xmlns:xlink="http://www.w3.org/1999/xlink" x="0px" y="0px"
	 width="45.787px" height="62.822px" viewBox="0 0 45.787 62.822" enable-background="new 0 0 45.787 62.822" xml:space="preserve">
<g>
	<polygon fill="#FF0000" points="28.875,0 45.787,0 45.787,40.493 	"/>
	<polygon fill="#FF0000" points="16.959,0 0.034,0 0.034,40.493 	"/>
	<polygon fill="#FF0000" points="22.917,14.922 33.694,40.49 26.632,40.49 23.408,32.348 15.522,32.348 	"/>
	<path d="M3.233,59.144l-0.745,3.521c-0.023,0.135-0.068,0.158-0.181,0.158H0.164c-0.136,0-0.181-0.046-0.159-0.227l2.957-12.75
		c0.09-0.383,0.09-0.587,0.09-1.241c0-0.09,0.045-0.135,0.135-0.135h3.069c0.113,0,0.158,0.045,0.181,0.158L9.89,62.641
		c0.022,0.136-0.023,0.182-0.136,0.182H7.362c-0.113,0-0.18-0.068-0.18-0.158l-0.79-3.521H3.233z M5.918,56.729
		c-0.316-1.647-0.903-4.13-1.128-5.731H4.767c-0.226,1.557-0.654,3.746-1.038,5.731H5.918z"/>
	<path d="M10.267,57.338c0-3.254,1.917-5.772,4.97-5.772h0.357v-3.834c0-0.067,0.045-0.111,0.134-0.111h2.385
		c0.089,0,0.111,0.044,0.111,0.111V60.57c0,0.334-0.022,0.78,0.067,1.493c0,0.066,0,0.112-0.089,0.157
		C17.288,62.688,16.107,63,14.97,63C12.161,63,10.267,61.172,10.267,57.338 M15.594,53.95c-0.111-0.045-0.223-0.066-0.49-0.066
		c-1.249,0-2.185,1.137-2.185,3.365c0,2.363,0.936,3.345,2.162,3.345c0.156,0,0.379-0.023,0.513-0.067V53.95z"/>
	<path d="M27.765,57.249c0,3.522-1.471,5.751-4.058,5.751c-2.897,0-4.057-2.541-4.057-5.772c0-3.3,1.471-5.662,4.102-5.662
		C26.271,51.565,27.765,53.66,27.765,57.249 M22.258,57.249c0,2.073,0.446,3.434,1.449,3.434c0.958,0,1.427-1.159,1.427-3.411
		c0-2.096-0.356-3.389-1.404-3.389C22.815,53.883,22.258,54.931,22.258,57.249"/>
	<path d="M31.687,47.62c0.089,0,0.112,0.044,0.112,0.134v3.945c0.312-0.067,0.691-0.135,1.203-0.135
		c2.317,0,4.079,1.783,4.079,5.238c0,4.035-2.296,6.197-5.171,6.197c-0.825,0-1.672-0.111-2.586-0.401
		c-0.067-0.021-0.134-0.089-0.134-0.179V47.754c0-0.09,0.044-0.134,0.134-0.134H31.687z M32.601,53.928
		c-0.178,0-0.557,0.022-0.802,0.112v6.575c0.178,0.045,0.334,0.045,0.468,0.045c1.003,0,2.185-1.026,2.206-3.79
		C34.496,54.708,33.626,53.928,32.601,53.928"/>
	<path d="M40.691,57.896c0,1.717,0.647,2.764,2.452,2.764c0.602,0,1.093-0.089,1.694-0.312c0.111-0.044,0.179-0.044,0.179,0.111
		v1.851c0,0.155-0.045,0.245-0.156,0.29c-0.624,0.334-1.471,0.4-2.207,0.4c-3.277,0-4.547-2.407-4.547-5.55
		c0-3.344,1.471-5.885,4.079-5.885c2.742,0,3.544,2.43,3.544,4.413c0,0.714-0.067,1.404-0.111,1.672
		c-0.022,0.112-0.09,0.156-0.201,0.178c-0.223,0.023-0.914,0.067-2.117,0.067H40.691z M42.586,55.8c0.425,0,0.603,0,0.67-0.021
		c0.021-0.112,0.021-0.156,0.021-0.245c0-0.847-0.267-1.739-1.181-1.739c-0.893,0-1.249,0.914-1.36,2.006H42.586z"/>
</g>
</svg>
