<?xml version="1.0" encoding="utf-8"?>
<!-- Generator: Adobe Illustrator 19.1.0, SVG Export Plug-In . SVG Version: 6.00 Build 0)  -->
<svg version="1.1" id="Layer_1" xmlns="http://www.w3.org/2000/svg" xmlns:xlink="http://www.w3.org/1999/xlink" x="0px" y="0px"
	 viewBox="-140.4 359.1 135 76" style="enable-background:new -140.4 359.1 135 76;" xml:space="preserve">
<style type="text/css">
	.st0{fill:#010202;}
</style>
<g id="logo-horizontal-black">
</g>
<g>
	<g>
		<g>
			<path class="st0" d="M-104.2,398.5l-8.3-18.3h-0.3l-8.2,18.3C-120.9,398.5-104.2,398.5-104.2,398.5z M-140.1,416.3l25.9-56
				c0.3-0.5,0.7-0.9,1.4-0.9h0.9c0.8,0,1.2,0.4,1.4,0.9l25.7,56c0.5,1.1-0.2,2.2-1.4,2.2h-7.2c-1.3,0-1.8-0.5-2.4-1.7l-4.1-9h-25
				l-4.1,9c-0.3,0.8-1.1,1.7-2.4,1.7h-7.2C-139.9,418.4-140.6,417.3-140.1,416.3"/>
		</g>
		<g>
			<path class="st0" d="M-35.4,408.4c10.5,0,19.1-8.6,19.1-19s-8.7-19.2-19.1-19.2s-19,8.8-19,19.2
				C-54.5,399.8-45.9,408.4-35.4,408.4 M-35.4,359.3c16.6,0,30,13.4,30,30c0,11.3-6.6,21.3-16.2,26.6l10.4,16.4
				c0.8,1.2,0,2.5-1.4,2.5h-8.8c-0.3,0-1.1-0.3-1.4-0.8l-8.9-15c-1.4,0.2-2.8,0.3-3.7,0.3c-16.6,0-29.9-13.2-29.9-29.9
				C-65.3,372.7-52.1,359.3-35.4,359.3"/>
		</g>
	</g>
</g>
</svg>
