<?xml version="1.0" encoding="utf-8"?>
<!DOCTYPE svg PUBLIC "-//W3C//DTD SVG 1.1//EN" "http://www.w3.org/Graphics/SVG/1.1/DTD/svg11.dtd">
<svg version="1.1" id="Layer_1" xmlns="http://www.w3.org/2000/svg" xmlns:xlink="http://www.w3.org/1999/xlink" x="0px" y="0px"
	 width="323.783px" height="120.743px" viewBox="234.119 247.025 323.783 120.743"
	 enable-background="new 234.119 247.025 323.783 120.743" xml:space="preserve">
<g>
	<polygon fill="#000000" points="475.546,349.748 482.37,349.748 482.37,367.766 486.184,367.766 486.184,349.748 493.008,349.748 
		493.008,346.246 475.546,346.246 	"/>
	<polygon fill="#000000" points="317.739,356.424 311.19,346.246 307.162,346.246 307.162,367.766 310.883,367.766 310.883,352.396 
		317.614,362.477 317.739,362.477 324.532,352.332 324.532,367.766 328.313,367.766 328.313,346.246 324.287,346.246 	"/>
	<path fill="#000000" d="M352.234,346.092l-9.471,21.674h3.874l2.215-5.195h10.175l2.183,5.195h3.996l-9.468-21.674H352.234z
		 M350.234,359.221l3.688-8.609l3.722,8.609H350.234z"/>
	<path fill="#000000" d="M397.242,353.102v-0.062c0-1.875-0.646-3.474-1.784-4.644c-1.383-1.35-3.504-2.149-6.211-2.149h-9.589
		v21.521h3.78v-7.498h4.734l5.288,7.498h4.486l-5.809-8.146C395.119,358.758,397.242,356.635,397.242,353.102z M383.438,356.914
		v-7.225h5.504c2.797,0,4.457,1.264,4.457,3.567v0.06c0,2.182-1.721,3.598-4.428,3.598H383.438L383.438,356.914z"/>
	<path fill="#000000" d="M555.781,307.029c-3.277,8.59-8.955,11.592-12.925,11.592c-3.139,0-9.9-0.668-12.611-8.521
		c11.411-0.508,17.334-12.294,17.334-21.083c0.414-6.438-2.436-11.854-10.199-12.072c-11.41-0.318-16.326,10.678-17.876,19.109
		c-0.533,2.918-0.418,5.74-0.104,8.043c-6.123-2.457-9.818-11.471-5.689-19.746c0.007-0.016,0.012-0.029,0.02-0.045
		c0.011-0.021,0.021-0.047,0.03-0.068v-0.002c0.825-1.762,0.863-2.713-0.658-3.088c-10.464-2.203-11.896,10.645-12.594,15.5
		c-0.78,5.41-1.763,10.848-2.754,13.876c-1.587,4.847-3.394,1.875-4.381-0.489c-2.729-6.539-3.016-18.498-3.416-33.537
		c-0.335-2.533-9.414,0.504-9.971,1.963c-0.794,2.158-2.64,4.805-5.076,11.572c-2.437,6.77-6.207,14.906-7.394,17.832
		c-2.695,6.651-4.194,2.032-4.54,0.657c-1.679-6.737-0.712-20.729-0.235-34.083c0.021-4.84-10.208,0.875-10.478,2.447
		c-0.121,0.695-5.084,23.189-10.275,31.951c-3.67,5.908-5.364,8.943-8.736,1.328c-2.625-5.932-1.823-22.822,1.566-44.119
		c6.697-1.854,12.473-3.199,16.491-3.979c-0.127,3.182,1.922,6.607,6.747,6.701c5.628,0,9.186-2.525,9.33-5.715
		c0.136-2.92-2.075-6.027-6.168-6.607c-0.348-0.059-0.724-0.102-1.146-0.125c-5.292-0.189-15.045,2.225-24.491,5.094
		c0.796-4.645,1.699-9.451,2.718-14.389l-11.338,5.033c-0.95,4.605-1.794,8.916-2.537,12.969c-6.539,2.242-9.513,3.346-11.019,4.035
		c-2.479,1.174-1.49,4.291,0.525,3.527c4.02-1.49,5.843-1.982,9.729-3.223c-2.203,12.832-3.219,22.828-2.821,30.701
		c-0.021,0.057-0.031,0.16-0.011,0.379c0.814,9.129-5.664,19.779-12.025,14.438c-3.374-2.782-4.067-16.414-3.478-21.615
		c0.228-1.982,1.243-9.279-0.873-9.279c-4.612,0-7.559,29.938-15.378,29.938c-2.236,0.015-4.457-2.161-4.996-3.77
		c-2.804-8.402,1.1-21.645,7.542-31.576c3.619-5.064,5.559-4.936,6.527-6.344c1.66-2.434-6.524-5.744-13.709,0.854
		c-4.63,4.678-9.887,12.494-12.604,24.748c-0.166,0.748-1.069,7.078-1.202,7.562c-3.602,11.48-10.524,11.957-14.771,11.957
		c-4.432,0-7.902-2.944-10.526-6.938c5.778-5.461,16.931-16,16.931-27.527c0-9.312-3.055-16.369-11.118-16.369
		c-11.998-0.332-18.174,10.502-19.956,21.752c-1.229,7.791,0.287,15.078,0.798,17.231c0.256,1.072,0.711,2.414,1.39,3.869
		c-6.546,6.383-13.366,9.797-15.359-1.115c-1.129-6.182,0.142-18.83,1.203-26.535c0.479-4.842-2.212-5.859-6.939-7.412
		c-4.729-1.547-4.697-1.408-12.486-4.135c0-6.18-3.055-13.459-9.962-11.598c-6.244,1.439-7.121,10.496,2.577,15.322
		c0,20.811-8.18,39.568-26.628,41.645v0.123c-20.496,0.48-18.653-24.951-18.649-26.418c0.069-21.322,24.234-43.354,24.234-24.482
		c-0.397,6.318,7.146,6.105,8.067-1.93c0.926-8.035-6.945-11.502-18.384-11.469s-26.866,18.055-26.935,39.863
		c-0.035,10.902,2.649,31.811,29.792,31.734c2.001-0.009,3.739-0.236,5.369-0.668c21.984-4.162,30.344-23.925,30.344-46.877
		c2.159,0.619,3.375,0.896,5.202,1.537c1.825,0.639,3.032,0.961,1.953,7.385c-0.551,4.795-1.159,12.672-1.159,16.275
		c0,9.906,1.52,22.08,14.802,22.08c7.113,0,12.786-2.738,17.646-6.601c2.703,3.047,8.357,6.9,17.229,6.9
		c10.354,0,15.338-6.242,17.83-10.344c1.478,5.465,6.923,9.959,13.25,9.959c7.983,0,14.108-7.92,14.813-9.152
		c0.513,1.328,2.752,9.141,10.566,9.141c5.445,0,9.785-7.848,10.952-11.612c0.989,2.969,2.349,5.521,4.147,7.703
		c0.021,0.026,0.042,0.055,0.062,0.077c2.687,3.277,6.01,4.031,8.361,4.078c10.717,0.213,17.327-32.701,17.36-32.524
		c-0.704,19.84,0.622,32.312,11.015,32.312c5.118,0,7.056-9.641,10.102-18.479c3.047-8.838,5.886-16.504,6.646-19.002
		c-0.348,5.969,0.016,14.314,0.341,16.652c1.646,11.999,5.485,15.184,8.938,18.146c7.715,5.674,12.877-1.451,16.541-15.977
		c0.708-2.814,1.559-5.27,2.437-7.426c0.661,4.465,3.37,11.001,12.053,13.07c1.558,4.229,6.68,12.598,21.366,13.008
		c9.532,0.268,14.438-5.021,15.823-7.242C559.29,313.174,557.595,301.562,555.781,307.029z M348.795,275.344
		c3.694,0,3.929,14.348-7.225,25.723C338.139,291.57,344.458,275.344,348.795,275.344z M534.417,285.045
		c4.934,0,3.271,19.504-6.018,19.631C527.348,296.693,531.243,285.045,534.417,285.045z"/>
	<polygon fill="#000000" points="431.336,346.246 426.663,346.246 416.427,357.066 416.427,346.246 412.645,346.246 
		412.645,367.766 416.427,367.766 416.427,361.525 419.776,358.084 427.126,367.766 431.736,367.766 422.36,355.498 	"/>
	<polygon fill="#000000" points="449.506,358.605 460.298,358.605 460.298,355.221 449.506,355.221 449.506,349.629 461.68,349.629 
		461.68,346.246 445.724,346.246 445.724,367.766 461.835,367.766 461.835,364.385 449.506,364.385 	"/>
</g>
</svg>
