<?xml version="1.0" encoding="utf-8"?>
<!-- Generator: Adobe Illustrator 16.0.0, SVG Export Plug-In . SVG Version: 6.00 Build 0)  -->
<!DOCTYPE svg PUBLIC "-//W3C//DTD SVG 1.1//EN" "http://www.w3.org/Graphics/SVG/1.1/DTD/svg11.dtd">
<svg version="1.1" id="Layer_1" xmlns="http://www.w3.org/2000/svg" xmlns:xlink="http://www.w3.org/1999/xlink" x="0px" y="0px"
	 width="389.847px" height="128.689px" viewBox="0 0 389.847 128.689" enable-background="new 0 0 389.847 128.689"
	 xml:space="preserve">
<g>
	<path fill="#231F20" d="M113.085,33.879c-0.059-0.09-0.102-0.158-0.141-0.223c-2.699-4.455-11.76-11.416-24.229-18.6
		C76.096,7.78,65.469,3.423,60.286,3.405h-0.101l-0.019-0.002c-5.19,0.053-15.774,4.416-28.354,11.692
		C19.177,22.405,10.09,29.434,7.504,33.899l-0.018,0.03C4.879,38.47,3.389,49.571,3.402,64.388
		c0.012,14.496,1.468,25.5,3.992,30.199c0.037,0.068,0.073,0.135,0.108,0.201l0.049,0.09c2.566,4.438,11.666,11.459,24.328,18.758
		c12.639,7.281,23.267,11.639,28.427,11.653c5.196-0.004,15.827-4.376,28.476-11.694c12.771-7.383,21.622-14.221,24.282-18.76
		c0.026-0.045,0.053-0.088,0.08-0.129c2.545-4.514,4.059-15.861,4.049-30.404C117.183,49.737,115.646,38.373,113.085,33.879z"/>
	<g>
		<g>
			<defs>
				<path id="SVGID_1_" d="M116.003,32.129c-0.045-0.071-0.094-0.145-0.139-0.219c-4.312-7.117-19.199-16.199-25.449-19.801
					C84.11,8.475,68.579,0.033,60.298,0.002C60.284,0.002,60.266,0,60.253,0C52,0.006,36.424,8.498,30.109,12.151
					C23.802,15.798,8.7,25.046,4.56,32.194c-0.004,0.006-0.009,0.014-0.012,0.021C0.578,39.102-0.007,55.327,0,64.391
					c0.008,8.916,0.599,24.768,4.412,31.832c0.063,0.112,0.121,0.229,0.184,0.338c4.133,7.145,19.271,16.383,25.586,20.022
					c6.31,3.635,21.854,12.081,30.115,12.106c0.012,0,0.025,0,0.037,0h0.013c8.251-0.006,23.827-8.497,30.141-12.149
					c7.812-4.518,21.481-13.108,25.513-19.983c0.016-0.025,0.031-0.054,0.051-0.08c4.119-7.15,4.55-24.886,4.545-32.177
					C120.591,57.008,120.132,39.276,116.003,32.129z M113.066,94.836c-2.66,4.539-11.51,11.377-24.282,18.76
					c-12.647,7.318-23.278,11.688-28.476,11.692c-5.16-0.016-15.788-4.37-28.427-11.651C19.219,106.338,10.12,99.318,7.553,94.879
					l-0.049-0.09c-0.035-0.065-0.071-0.133-0.108-0.201C4.872,89.89,3.416,78.885,3.404,64.39
					C3.391,49.572,4.881,38.471,7.488,33.93l0.018-0.03c2.586-4.465,11.674-11.494,24.309-18.804
					C44.394,7.82,54.978,3.455,60.169,3.404l0.019,0.002h0.101c5.184,0.02,15.811,4.375,28.43,11.652
					c12.469,7.184,21.529,14.145,24.229,18.6c0.039,0.063,0.082,0.133,0.141,0.223c2.562,4.494,4.099,15.857,4.109,30.424
					c0.01,14.544-1.504,25.892-4.049,30.404C113.119,94.748,113.093,94.791,113.066,94.836z"/>
			</defs>
			<clipPath id="SVGID_2_">
				<use xlink:href="#SVGID_1_"  overflow="visible"/>
			</clipPath>
			<g clip-path="url(#SVGID_2_)">
				<g>
					
						<image overflow="visible" enable-background="new    " width="237" height="237" xlink:href="D89FD2B.html"  transform="matrix(0.9959 0 0 0.9959 -57.7131 -53.6638)">
					</image>
				</g>
			</g>
		</g>
	</g>
</g>
<g>
	<path fill="#FFFFFF" d="M64.293,52.213h-6.817c-1.887,0-3.527,0.684-4.876,2.027c-1.347,1.351-2.028,2.998-2.028,4.897v16.896
		v0.329h0.327h3.683h0.328v-0.329v-6.978h11.989v6.978v0.329h0.328h3.683h0.328v-0.329V59.138c0-1.901-0.688-3.551-2.041-4.897
		C67.84,52.896,66.19,52.213,64.293,52.213z M54.908,59.14c0-0.717,0.25-1.313,0.764-1.826c0.512-0.513,1.101-0.761,1.804-0.761
		h6.817c0.717,0,1.318,0.248,1.84,0.76c0.521,0.515,0.766,1.095,0.766,1.827v5.597H54.909L54.908,59.14L54.908,59.14z"/>
	<path fill="#FFFFFF" d="M30.248,52.29H17.32h-0.327v0.328v23.683v0.327h0.327h12.928c5.227,0,9.475-4.25,9.475-9.477v-5.389
		C39.722,56.541,35.473,52.29,30.248,52.29z M21.397,56.717h8.851c2.785,0,5.049,2.266,5.049,5.048v5.388
		c0,2.783-2.264,5.05-5.049,5.05h-8.851V56.717z"/>
	<polygon fill="#FFFFFF" points="103.52,52.379 99.727,52.379 99.402,52.379 99.402,52.707 99.402,67.884 86.677,52.496 
		86.58,52.377 86.424,52.377 83.472,52.377 83.143,52.377 83.143,52.704 83.143,76.072 83.143,76.401 83.472,76.401 87.265,76.401 
		87.594,76.401 87.594,76.072 87.594,60.644 100.369,76.263 100.468,76.384 100.624,76.384 103.52,76.384 103.848,76.384 
		103.848,76.058 103.848,52.707 103.848,52.379 	"/>
</g>
<g>
	<path d="M144.282,38.677h8.286c1.385,0,2.721,0.215,4.008,0.64c1.287,0.426,2.426,1.074,3.416,1.944
		c0.99,0.871,1.781,1.966,2.375,3.281c0.595,1.317,0.892,2.866,0.892,4.647c0,1.802-0.341,3.36-1.023,4.677
		c-0.685,1.317-1.564,2.406-2.644,3.267c-1.08,0.861-2.276,1.506-3.594,1.932s-2.609,0.639-3.876,0.639h-7.84V38.677z
		 M150.815,56.317c1.168,0,2.271-0.134,3.312-0.4c1.039-0.268,1.945-0.684,2.717-1.248c0.772-0.563,1.382-1.296,1.826-2.197
		c0.446-0.899,0.669-1.993,0.669-3.28c0-1.268-0.197-2.355-0.595-3.268c-0.396-0.91-0.945-1.647-1.647-2.212
		c-0.702-0.563-1.533-0.979-2.494-1.247c-0.96-0.268-2.015-0.4-3.162-0.4h-3.416v14.254L150.815,56.317L150.815,56.317z"/>
	<path d="M166.732,38.677h3.742v21.025h-3.742V38.677z"/>
	<path d="M193.757,58.158c-2.594,1.386-5.494,2.078-8.701,2.078c-1.622,0-3.112-0.263-4.469-0.787s-2.524-1.267-3.506-2.228
		c-0.979-0.96-1.746-2.112-2.301-3.46c-0.555-1.346-0.832-2.841-0.832-4.483c0-1.684,0.277-3.212,0.832-4.588
		s1.322-2.549,2.301-3.52c0.98-0.97,2.148-1.718,3.506-2.242c1.355-0.523,2.847-0.786,4.469-0.786c1.604,0,3.107,0.192,4.515,0.578
		c1.407,0.387,2.662,1.074,3.771,2.063l-2.762,2.792c-0.674-0.653-1.49-1.158-2.449-1.515c-0.961-0.356-1.975-0.534-3.045-0.534
		c-1.088,0-2.074,0.191-2.955,0.579c-0.881,0.386-1.639,0.92-2.271,1.604c-0.633,0.684-1.123,1.479-1.472,2.392
		c-0.346,0.909-0.52,1.891-0.52,2.938c0,1.129,0.174,2.168,0.52,3.118c0.349,0.95,0.839,1.771,1.472,2.465s1.391,1.237,2.271,1.633
		c0.881,0.396,1.867,0.596,2.955,0.596c0.951,0,1.846-0.091,2.688-0.269c0.842-0.179,1.59-0.455,2.241-0.832v-4.959h-4.305v-3.385
		h8.047V58.158z"/>
	<path d="M198.093,38.677h3.742v21.025h-3.742V38.677z"/>
	<path d="M210.744,42.064h-6.443v-3.387h16.631v3.387h-6.444v17.64h-3.742L210.744,42.064L210.744,42.064z"/>
	<path d="M227.552,38.677h3.238l9.057,21.025h-4.274l-1.961-4.811h-9.117l-1.9,4.811h-4.188L227.552,38.677z M232.303,51.685
		l-3.235-8.553l-3.297,8.553H232.303z"/>
	<path d="M242.193,38.677h3.742v17.641h8.938v3.386h-12.682L242.193,38.677L242.193,38.677z"/>
	<path d="M273.197,38.677h3.236l9.059,21.025h-4.277l-1.959-4.811h-9.117l-1.899,4.811h-4.188L273.197,38.677z M277.949,51.685
		l-3.238-8.553l-3.295,8.553H277.949z"/>
	<path d="M306.517,58.158c-2.595,1.386-5.494,2.078-8.701,2.078c-1.623,0-3.113-0.263-4.472-0.787
		c-1.354-0.524-2.522-1.267-3.504-2.228c-0.979-0.96-1.746-2.112-2.301-3.46c-0.555-1.346-0.832-2.841-0.832-4.483
		c0-1.684,0.277-3.212,0.832-4.588s1.322-2.549,2.301-3.52c0.98-0.97,2.148-1.718,3.504-2.242c1.357-0.523,2.849-0.786,4.472-0.786
		c1.604,0,3.106,0.192,4.514,0.578c1.407,0.387,2.662,1.074,3.771,2.063l-2.763,2.792c-0.674-0.653-1.489-1.158-2.448-1.515
		c-0.962-0.356-1.978-0.534-3.046-0.534c-1.09,0-2.073,0.191-2.954,0.579c-0.882,0.386-1.64,0.92-2.271,1.604
		c-0.635,0.684-1.123,1.479-1.471,2.392c-0.347,0.909-0.521,1.891-0.521,2.938c0,1.129,0.174,2.168,0.521,3.118
		c0.348,0.95,0.836,1.771,1.471,2.465c0.633,0.693,1.391,1.237,2.271,1.633c0.881,0.396,1.864,0.596,2.954,0.596
		c0.951,0,1.847-0.091,2.688-0.269c0.842-0.179,1.59-0.455,2.242-0.832v-4.959h-4.308v-3.385h8.05V58.158z"/>
	<path d="M310.941,38.677h13.93v3.387h-10.188v5.167h9.651v3.386h-9.652v5.701h10.722v3.386h-14.463V38.677z"/>
	<path d="M329.085,38.677h4.961l10.187,15.62h0.059v-15.62h3.742v21.025h-4.752l-10.394-16.125h-0.061v16.125h-3.742V38.677z"/>
	<path d="M367.16,43.608c-0.773-0.831-1.521-1.385-2.242-1.663c-0.725-0.276-1.451-0.415-2.184-0.415
		c-1.09,0-2.074,0.191-2.955,0.579c-0.881,0.386-1.64,0.92-2.271,1.604c-0.635,0.684-1.123,1.479-1.471,2.392
		c-0.346,0.91-0.521,1.891-0.521,2.938c0,1.129,0.175,2.168,0.521,3.118c0.348,0.95,0.836,1.772,1.471,2.465
		c0.633,0.693,1.392,1.237,2.271,1.633c0.881,0.396,1.865,0.596,2.955,0.596c0.852,0,1.678-0.203,2.479-0.609
		c0.801-0.405,1.549-1.054,2.242-1.945l3.088,2.198c-0.951,1.307-2.108,2.257-3.475,2.852c-1.366,0.594-2.82,0.891-4.365,0.891
		c-1.623,0-3.113-0.263-4.471-0.787c-1.355-0.524-2.523-1.267-3.504-2.227c-0.979-0.96-1.746-2.113-2.302-3.46
		c-0.555-1.347-0.832-2.842-0.832-4.484c0-1.683,0.277-3.212,0.832-4.588c0.556-1.376,1.322-2.549,2.302-3.52
		c0.979-0.97,2.147-1.718,3.504-2.241c1.356-0.524,2.848-0.787,4.471-0.787c1.426,0,2.746,0.253,3.965,0.758
		c1.217,0.504,2.351,1.36,3.4,2.567L367.16,43.608z"/>
	<path d="M378.206,50.704l-7.9-12.027h4.693l5.166,8.375l5.229-8.375h4.452l-7.897,12.027v8.998h-3.742L378.206,50.704
		L378.206,50.704z"/>
	<path d="M144.282,69.386h4.96l10.186,15.62h0.061v-15.62h3.741V90.41h-4.751l-10.395-16.125h-0.061V90.41h-3.741V69.386
		L144.282,69.386z"/>
	<path d="M167.92,69.386h13.929v3.387h-10.188v5.167h9.652v3.385h-9.652v5.702h10.721v3.385H167.92V69.386z"/>
	<path d="M190.372,72.773h-6.445v-3.387h16.632v3.387h-6.445v17.639h-3.74L190.372,72.773L190.372,72.773z"/>
	<path d="M200.764,69.386h4.099l3.951,15.146h0.059l4.723-15.146h3.683l4.633,15.146h0.061l4.127-15.146h3.802l-6.117,21.024h-3.564
		l-4.869-16.006h-0.061L210.42,90.41h-3.445L200.764,69.386z"/>
	<path d="M231.117,79.988c0-1.684,0.275-3.212,0.83-4.588s1.322-2.549,2.303-3.521c0.979-0.97,2.146-1.717,3.504-2.242
		c1.355-0.522,2.847-0.785,4.469-0.785c1.646-0.021,3.148,0.223,4.515,0.728c1.367,0.505,2.543,1.242,3.533,2.212
		c0.989,0.971,1.764,2.138,2.315,3.504c0.555,1.366,0.832,2.892,0.832,4.573c0,1.644-0.277,3.139-0.832,4.484
		c-0.553,1.347-1.326,2.505-2.315,3.475c-0.99,0.97-2.166,1.728-3.533,2.271c-1.365,0.544-2.869,0.825-4.515,0.847
		c-1.622,0-3.112-0.263-4.469-0.787s-2.524-1.267-3.504-2.229c-0.979-0.96-1.748-2.112-2.303-3.459
		C231.392,83.125,231.117,81.631,231.117,79.988z M235.037,79.75c0,1.128,0.172,2.167,0.52,3.117
		c0.347,0.951,0.837,1.772,1.47,2.465c0.635,0.693,1.391,1.238,2.272,1.634c0.879,0.396,1.865,0.595,2.953,0.595
		c1.09,0,2.08-0.197,2.971-0.595c0.892-0.396,1.652-0.939,2.287-1.634c0.634-0.691,1.123-1.514,1.47-2.465
		c0.346-0.95,0.52-1.989,0.52-3.117c0-1.05-0.174-2.029-0.52-2.939c-0.347-0.91-0.836-1.707-1.47-2.392
		c-0.635-0.683-1.396-1.218-2.287-1.604c-0.891-0.387-1.881-0.579-2.971-0.579c-1.088,0-2.074,0.192-2.953,0.579
		c-0.883,0.386-1.639,0.921-2.272,1.604c-0.633,0.685-1.123,1.48-1.47,2.392C235.208,77.721,235.037,78.7,235.037,79.75z"/>
	<path d="M256.982,69.386h7.305c1.01,0,1.986,0.095,2.926,0.282c0.94,0.188,1.777,0.51,2.51,0.965
		c0.732,0.456,1.316,1.069,1.753,1.842c0.436,0.771,0.653,1.753,0.653,2.939c0,1.524-0.422,2.802-1.264,3.831
		s-2.043,1.653-3.607,1.87l5.582,9.295h-4.514l-4.869-8.908h-2.731v8.908h-3.742L256.982,69.386L256.982,69.386z M263.634,78.295
		c0.535,0,1.068-0.024,1.604-0.074c0.535-0.05,1.024-0.168,1.471-0.355c0.446-0.188,0.808-0.476,1.084-0.861
		c0.275-0.387,0.414-0.926,0.414-1.619c0-0.612-0.129-1.107-0.385-1.483c-0.258-0.376-0.594-0.658-1.01-0.848
		c-0.416-0.188-0.877-0.312-1.382-0.37c-0.506-0.061-0.995-0.09-1.471-0.09h-3.235v5.702L263.634,78.295L263.634,78.295z"/>
	<path d="M275.691,69.386h3.742v8.909h0.178l8.701-8.909h5.049l-9.83,9.712l10.481,11.313h-5.256l-9.117-10.334h-0.206V90.41h-3.742
		V69.386z"/>
</g>
</svg>
