<?xml version="1.0" encoding="utf-8"?>
<!-- Generator: Adobe Illustrator 19.1.0, SVG Export Plug-In . SVG Version: 6.00 Build 0)  -->
<svg version="1.1" id="Layer_1" xmlns="http://www.w3.org/2000/svg" xmlns:xlink="http://www.w3.org/1999/xlink" x="0px" y="0px"
	 viewBox="0 0 162.896 82.339" enable-background="new 0 0 162.896 82.339" xml:space="preserve">
<g>
	<path fill="#231F20" d="M144.707,72.049c-0.469,0-0.85,0.38-0.85,0.85v8.103c0,0.47,0.38,0.85,0.85,0.85
		c0.469,0,0.85-0.38,0.85-0.85v-8.103C145.557,72.429,145.176,72.049,144.707,72.049z"/>
	<path fill="#231F20" d="M149.49,73.582h3.892c0.424,0,0.767-0.343,0.767-0.767c0-0.424-0.343-0.767-0.767-0.767h-2.196h-2.7h-0.623
		c-0.086,0-0.144,0.058-0.144,0.144v9.514c0,0.086,0.058,0.144,0.144,0.144h0.622c0,0,0,0,0,0h4.895
		c0.424,0,0.767-0.343,0.767-0.767c0-0.424-0.343-0.767-0.767-0.767h-3.892c-0.044-0.007-0.069-0.031-0.069-0.081v-2.479
		c0-0.055,0.028-0.081,0.08-0.084h3.189c0.424,0,0.767-0.343,0.767-0.767c0-0.424-0.343-0.767-0.767-0.767h-3.192
		c-0.049-0.004-0.076-0.03-0.076-0.083v-2.393C149.421,73.613,149.447,73.589,149.49,73.582z"/>
	<path fill="#231F20" d="M115.283,76.454h-2.088c-0.4,0-0.723,0.324-0.723,0.723s0.324,0.723,0.723,0.723h0.138c0,0,0,0,0,0h0.9
		c0.058,0,0.086,0.029,0.086,0.086c0,0.562-0.058,0.966-0.159,1.269c-0.259,0.793-0.995,1.225-1.86,1.225
		c-0.995,0-1.571-0.49-1.845-1.283c-0.115-0.36-0.173-0.865-0.173-2.249c0-1.398,0.058-1.888,0.173-2.249
		c0.274-0.793,0.851-1.283,1.845-1.283c0.951,0,1.542,0.432,1.975,1.211c0.007,0.014,0.024,0.022,0.036,0.034l-0.005,0.003
		c0.008,0.02,0.02,0.037,0.035,0.051c0.209,0.356,0.657,0.498,1.033,0.313c0.323-0.159,0.488-0.506,0.431-0.844
		c-0.01-0.062-0.067-0.206-0.073-0.22c-0.404-1.096-1.586-2.076-3.416-2.076c-1.73,0-2.998,0.807-3.503,2.364
		c-0.202,0.605-0.259,1.153-0.259,2.696c0,1.542,0.058,2.09,0.259,2.696c0.505,1.557,1.773,2.364,3.503,2.364
		c1.687,0,2.984-0.879,3.46-2.407c0.159-0.49,0.231-1.341,0.231-2.148v-0.277C116.006,76.778,115.683,76.454,115.283,76.454z"/>
	<path fill="#231F20" d="M107.416,80.491l-2.616-7.506c-0.15-0.534-0.565-0.936-1.126-0.936c-0.556,0-0.953,0.402-1.124,0.919
		l-2.726,7.683c-0.002,0.006,0.002,0.009,0,0.014l-0.072,0.187c-0.146,0.413,0.071,0.866,0.484,1.012
		c0.413,0.146,0.866-0.071,1.012-0.484l0.251-0.711c0.003-0.008,0.009-0.01,0.011-0.019l0.144-0.42l0.151-0.426h3.663l0.571,1.616
		c0.149,0.422,0.612,0.643,1.033,0.494c0.422-0.149,0.643-0.611,0.494-1.033L107.416,80.491z M102.319,78.29l1.312-3.806h0.043
		l1.297,3.806H102.319z"/>
	<path fill="#231F20" d="M44.104,14.037c0.177,0.177,0.408,0.265,0.64,0.265c0.232,0,0.463-0.088,0.64-0.265
		c0.353-0.353,0.353-0.926,0-1.28L33.363,0.737c-0.353-0.353-0.926-0.353-1.28,0c-0.353,0.353-0.353,0.926,0,1.28L44.104,14.037z"/>
	<path fill="#231F20" d="M35.053,63.043c0.177,0.177,0.408,0.265,0.64,0.265s0.463-0.088,0.64-0.265c0.353-0.353,0.353-0.926,0-1.28
		l-13.15-13.15c-0.353-0.353-0.926-0.353-1.28,0l-2.639,2.639c-0.044,0.044-0.083,0.092-0.116,0.142
		c-0.099,0.151-0.149,0.324-0.149,0.498c0,0.116,0.022,0.232,0.066,0.34c0.044,0.109,0.11,0.211,0.199,0.299l11.055,11.055
		c0.177,0.177,0.408,0.265,0.64,0.265c0.232,0,0.463-0.088,0.64-0.265c0.353-0.353,0.353-0.926,0-1.28L21.183,51.892l1.359-1.359
		L35.053,63.043z"/>
	<path fill="#231F20" d="M46.008,21.219c0.177,0.177,0.408,0.265,0.64,0.265s0.463-0.088,0.64-0.265c0.353-0.353,0.353-0.926,0-1.28
		l-0.325-0.325c0,0-0.001-0.001-0.001-0.002L29.208,1.86c-0.026-0.026-0.056-0.047-0.084-0.069l-1.038-1.037
		c-0.353-0.353-0.926-0.353-1.28,0c-0.353,0.353-0.353,0.926,0,1.28L46.008,21.219z"/>
	<path fill="#231F20" d="M10.166,63.597c0.078-0.041,0.153-0.091,0.219-0.156l1.861-1.861l1.959,1.979
		c0.177,0.179,0.41,0.268,0.643,0.268c0.23,0,0.46-0.087,0.636-0.262c0.355-0.351,0.358-0.924,0.007-1.279L1.732,48.388
		c-0.351-0.355-0.924-0.358-1.28-0.007c-0.355,0.351-0.358,0.924-0.007,1.279l10.526,10.633l-1.373,1.372l-7.856-7.942
		c-0.351-0.355-0.924-0.358-1.28-0.007c-0.355,0.351-0.358,0.924-0.007,1.28l8.468,8.562c0.177,0.179,0.41,0.268,0.643,0.268
		C9.783,63.826,9.995,63.748,10.166,63.597z"/>
	<path fill="#231F20" d="M0.773,60.678c0.009,0.01,0.015,0.021,0.024,0.03l2.083,2.083c0.01,0.01,0.022,0.017,0.033,0.027
		l0.723,0.723c0.177,0.177,0.408,0.265,0.64,0.265c0.232,0,0.463-0.088,0.64-0.265c0.353-0.353,0.353-0.926,0-1.28L1.74,59.086
		c-0.353-0.353-0.926-0.353-1.28,0c-0.353,0.353-0.353,0.926,0,1.28L0.773,60.678z"/>
	<path fill="#231F20" d="M13.958,47.279c0.177,0.177,0.409,0.266,0.641,0.266c0.231,0,0.462-0.088,0.639-0.264
		c0.018-0.018,0.032-0.04,0.049-0.059c0.019-0.016,0.04-0.029,0.058-0.048l17.754-17.754L45.957,42.28
		c0.177,0.177,0.408,0.265,0.64,0.265s0.463-0.088,0.64-0.265c0.353-0.353,0.353-0.926,0-1.28L33.738,27.502
		c-0.353-0.353-0.926-0.353-1.28,0L14.626,45.335L2.077,32.786c-0.002-0.002-0.005-0.004-0.007-0.006l-0.34-0.341
		c-0.353-0.354-0.926-0.355-1.28-0.003c-0.354,0.353-0.355,0.926-0.003,1.28L13.958,47.279z"/>
	<path fill="#231F20" d="M19.485,63.561c0.177,0.177,0.408,0.265,0.64,0.265c0.232,0,0.463-0.088,0.64-0.265
		c0.353-0.353,0.353-0.926,0-1.28l-0.77-0.77L2.077,43.595c0,0,0,0,0,0L1.74,43.258c-0.353-0.353-0.926-0.353-1.28,0
		c-0.353,0.353-0.353,0.926,0,1.28L19.485,63.561z"/>
	<path fill="#231F20" d="M13.978,41.984c0.177,0.177,0.408,0.265,0.64,0.265c0.231,0,0.463-0.088,0.639-0.265
		c0.015-0.015,0.026-0.033,0.04-0.048c0.016-0.014,0.033-0.024,0.048-0.039l17.749-17.758l12.889,12.889
		c0.088,0.088,0.19,0.155,0.299,0.199c0.109,0.044,0.225,0.066,0.34,0.066c0.058,0,0.116-0.006,0.173-0.017
		c0.114-0.022,0.225-0.066,0.325-0.133c0.05-0.033,0.098-0.072,0.142-0.116c0.353-0.353,0.353-0.926,0-1.28L34.047,22.533
		c0,0,0,0,0,0l-0.286-0.286c-0.005-0.005-0.01-0.008-0.015-0.012c-0.005-0.005-0.008-0.01-0.012-0.015
		c-0.353-0.353-0.926-0.353-1.28,0L14.625,40.057L2.077,27.509c-0.001-0.001-0.002-0.001-0.002-0.002l-0.332-0.333
		c-0.353-0.354-0.926-0.354-1.28-0.001c-0.354,0.353-0.354,0.926-0.001,1.28L13.978,41.984z"/>
	<path fill="#231F20" d="M46.008,26.497c0.177,0.177,0.408,0.265,0.64,0.265s0.463-0.088,0.64-0.265c0.353-0.353,0.353-0.926,0-1.28
		L22.826,0.755c-0.353-0.353-0.926-0.353-1.28,0c-0.353,0.353-0.353,0.926,0,1.28L46.008,26.497z"/>
	<path fill="#231F20" d="M17.139,2.905C17.139,2.906,17.139,2.906,17.139,2.905L29.18,14.947L14.626,29.501L1.744,16.619
		c-0.353-0.353-0.926-0.353-1.28,0c-0.353,0.353-0.353,0.926,0,1.28l0.333,0.333l12.946,12.946c0,0,0,0,0,0l0.242,0.242
		c0.177,0.177,0.408,0.265,0.64,0.265c0.232,0,0.463-0.088,0.64-0.265c0.014-0.014,0.023-0.029,0.036-0.044
		c0.014-0.013,0.03-0.022,0.044-0.036l15.734-15.734c0.004-0.004,0.006-0.008,0.009-0.011c0.004-0.003,0.008-0.006,0.011-0.009
		c0.353-0.353,0.353-0.926,0-1.28L17.547,0.755c-0.353-0.353-0.926-0.353-1.28,0c-0.353,0.353-0.353,0.926,0,1.28L17.139,2.905z"/>
	<path fill="#231F20" d="M11.861,2.906l5.255,5.255l6.786,6.786l-9.276,9.276L1.739,11.336c-0.353-0.353-0.926-0.353-1.28,0
		c-0.353,0.353-0.353,0.926,0,1.28l13.527,13.527c0.177,0.177,0.408,0.265,0.64,0.265c0.232,0,0.463-0.088,0.64-0.265
		c0.002-0.002,0.003-0.004,0.005-0.006c0.002-0.002,0.005-0.003,0.007-0.006L25.738,15.67c0.014-0.014,0.024-0.031,0.038-0.046
		c0.015-0.013,0.032-0.023,0.046-0.037c0.353-0.353,0.353-0.926,0-1.28L12.297,0.783c-0.353-0.353-0.926-0.353-1.28,0
		c-0.353,0.353-0.353,0.926,0,1.28L11.861,2.906z"/>
	<path fill="#231F20" d="M14.617,36.972c0.231,0,0.463-0.088,0.639-0.265c0.015-0.015,0.026-0.032,0.039-0.048
		c0.015-0.013,0.032-0.023,0.046-0.037l17.839-17.674l12.776,12.776c0.177,0.177,0.408,0.265,0.64,0.265s0.463-0.088,0.64-0.265
		c0.353-0.353,0.353-0.926,0-1.28L33.833,17.04c-0.314-0.314-0.802-0.347-1.154-0.102c-0.06,0.036-0.118,0.078-0.171,0.13
		L14.628,34.782L2.077,22.231c-0.001-0.001-0.002-0.001-0.002-0.002l-0.332-0.333c-0.353-0.354-0.926-0.354-1.28-0.001
		c-0.354,0.353-0.354,0.926-0.001,1.28l13.515,13.532C14.153,36.884,14.385,36.972,14.617,36.972z"/>
	<path fill="#231F20" d="M33.738,38.058c-0.177-0.177-0.408-0.265-0.64-0.265c-0.116,0-0.232,0.022-0.34,0.066
		c-0.109,0.044-0.211,0.11-0.299,0.199l-2.639,2.639c-0.326,0.326-0.347,0.836-0.073,1.191c0.037,0.06,0.079,0.118,0.131,0.171
		l12.476,12.476l-1.342,1.354L28.568,43.444c-0.011-0.011-0.024-0.019-0.036-0.029c-0.01-0.011-0.017-0.023-0.028-0.034
		c-0.353-0.353-0.926-0.353-1.28,0l-2.632,2.632c-0.31,0.31-0.348,0.788-0.115,1.139c0.037,0.061,0.079,0.119,0.132,0.172
		L38.057,60.77c0.177,0.177,0.408,0.265,0.64,0.265c0.232,0,0.463-0.088,0.64-0.265c0.353-0.353,0.353-0.926,0-1.28L26.506,46.66
		l1.359-1.359l12.51,12.51c0.177,0.177,0.408,0.265,0.64,0.265c0.058,0,0.116-0.006,0.173-0.017
		c0.171-0.033,0.334-0.116,0.467-0.248l2.587-2.611c0.01-0.009,0.022-0.016,0.031-0.026c0.177-0.177,0.266-0.41,0.265-0.643
		c0.001-0.233-0.087-0.465-0.265-0.643c-0.01-0.01-0.022-0.017-0.033-0.027L31.727,41.348l1.371-1.371l10.963,10.963
		c0.177,0.177,0.408,0.265,0.64,0.265c0.232,0,0.463-0.088,0.64-0.265c0.353-0.353,0.353-0.926,0-1.28L33.738,38.058z"/>
	<path fill="#231F20" d="M0.798,7.676l10.549,10.549c0.177,0.177,0.408,0.265,0.64,0.265c0.232,0,0.463-0.088,0.64-0.265
		l5.278-5.278c0.088-0.088,0.155-0.19,0.199-0.299c0.044-0.109,0.066-0.225,0.066-0.34c0-0.232-0.088-0.463-0.265-0.64l-0.109-0.109
		l-1.122-1.122L7.009,0.773c-0.353-0.353-0.926-0.353-1.28,0c-0.353,0.353-0.353,0.926,0,1.28l0.853,0.853l9.402,9.402l-3.998,3.998
		L2.077,6.397L1.738,6.058c-0.353-0.353-0.926-0.353-1.28,0c-0.353,0.353-0.353,0.926,0,1.28L0.798,7.676z"/>
	<path fill="#231F20" d="M47.263,46.304l-0.678-0.678L34.39,33.432l-0.652-0.652c-0.353-0.353-0.926-0.353-1.28,0L14.626,50.613
		L1.753,37.739c-0.353-0.353-0.926-0.353-1.28,0c-0.353,0.353-0.353,0.926,0,1.28l0.322,0.322c0.001,0.001,0.002,0.002,0.003,0.003
		l23.445,23.445l0.773,0.773c0.177,0.177,0.408,0.265,0.64,0.265c0.232,0,0.463-0.088,0.64-0.265c0.353-0.353,0.353-0.926,0-1.28
		L15.938,51.925l-0.033-0.033l17.193-17.193l12.885,12.885c0.177,0.177,0.408,0.265,0.64,0.265s0.463-0.088,0.64-0.265
		C47.616,47.23,47.616,46.658,47.263,46.304z"/>
	<path fill="#231F20" d="M97.122,13.921c0.177,0.177,0.408,0.265,0.64,0.265c0.232,0,0.463-0.088,0.64-0.265
		c0.353-0.353,0.353-0.926,0-1.28l-1.304-1.304c0,0,0,0,0,0L86.509,0.749c-0.353-0.353-0.926-0.353-1.28,0
		c-0.353,0.353-0.353,0.926,0,1.28L97.122,13.921z"/>
	<path fill="#231F20" d="M54.766,48.288c-0.351-0.355-0.924-0.358-1.28-0.007c-0.355,0.351-0.358,0.924-0.007,1.279l10.64,10.747
		l-1.372,1.372l-7.981-8.068c-0.351-0.355-0.924-0.359-1.28-0.007c-0.355,0.351-0.359,0.924-0.007,1.28l8.57,8.663
		c0.017,0.02,0.031,0.042,0.05,0.061c0.177,0.177,0.408,0.265,0.64,0.265c0.002,0,0.004-0.001,0.005-0.001s0.003,0.001,0.005,0.001
		c0.23,0,0.46-0.087,0.636-0.261c0.019-0.019,0.033-0.041,0.05-0.061l1.958-1.958l1.989,2.009c0.177,0.179,0.41,0.269,0.643,0.269
		c0.23,0,0.46-0.087,0.636-0.262c0.355-0.351,0.358-0.924,0.007-1.279L54.766,48.288z"/>
	<path fill="#231F20" d="M67.076,47.21c0.15,0.15,0.34,0.233,0.536,0.255c0.06,0.012,0.121,0.019,0.182,0.019
		c0.232,0,0.463-0.088,0.64-0.265l17.799-17.798L99.091,42.28c0.177,0.177,0.408,0.265,0.64,0.265c0.232,0,0.463-0.088,0.64-0.265
		c0.353-0.353,0.353-0.926,0-1.28L86.872,27.502c-0.353-0.353-0.926-0.353-1.28,0L67.76,45.335L54.781,32.356
		c-0.353-0.353-0.926-0.353-1.28,0c-0.353,0.353-0.353,0.926,0,1.28L67.076,47.21z"/>
	<path fill="#231F20" d="M81.058,3.133c0.002,0.002,0.003,0.004,0.005,0.006l17.753,17.753c0.034,0.034,0.072,0.062,0.11,0.09
		l0.174,0.174c0.177,0.177,0.408,0.265,0.64,0.265c0.232,0,0.463-0.088,0.64-0.265c0.353-0.353,0.353-0.926,0-1.28L81.245,0.762
		c-0.353-0.353-0.926-0.353-1.28,0c-0.353,0.353-0.353,0.926,0,1.28L81.058,3.133z"/>
	<path fill="#231F20" d="M54.771,58.989c-0.353-0.353-0.926-0.353-1.28,0c-0.353,0.353-0.353,0.926,0,1.28l0.437,0.436
		c0.001,0.001,0.002,0.003,0.003,0.004l2.083,2.083c0.008,0.008,0.018,0.013,0.026,0.021l0.73,0.729
		c0.177,0.177,0.408,0.265,0.64,0.265s0.463-0.088,0.64-0.265c0.353-0.353,0.353-0.926,0-1.28L54.771,58.989z"/>
	<path fill="#231F20" d="M72.619,63.561c0.177,0.177,0.408,0.265,0.64,0.265c0.232,0,0.463-0.088,0.64-0.265
		c0.353-0.353,0.353-0.926,0-1.28L54.771,43.125c-0.353-0.353-0.926-0.353-1.28,0c-0.353,0.353-0.353,0.926,0,1.28L72.619,63.561z"
		/>
	<path fill="#231F20" d="M89.466,61.764l-13.15-13.15c-0.353-0.353-0.926-0.353-1.28,0l-2.621,2.621
		c-0.231,0.231-0.308,0.554-0.238,0.849c0.031,0.174,0.113,0.341,0.248,0.476l10.943,11.015c0.177,0.178,0.409,0.267,0.642,0.267
		c0.23,0,0.461-0.088,0.638-0.263c0.355-0.352,0.357-0.925,0.004-1.28L74.315,51.894l1.361-1.361l12.51,12.51
		c0.177,0.177,0.408,0.265,0.64,0.265c0.232,0,0.463-0.088,0.64-0.265C89.82,62.69,89.82,62.117,89.466,61.764z"/>
	<path fill="#231F20" d="M67.111,41.984C67.112,41.984,67.112,41.984,67.111,41.984c0.177,0.177,0.409,0.265,0.64,0.265
		c0.171,0,0.343-0.049,0.492-0.146c0.002-0.001,0.004-0.002,0.006-0.003c0.034-0.022,0.064-0.05,0.095-0.077
		c0.015-0.013,0.032-0.024,0.047-0.038c0,0,0,0,0,0c0,0,0,0,0,0l17.836-17.846l12.851,12.847c0.177,0.177,0.408,0.265,0.64,0.265
		c0.232,0,0.463-0.088,0.64-0.265c0.353-0.353,0.353-0.926,0-1.28L86.885,22.237c-0.232-0.232-0.557-0.308-0.854-0.236
		c-0.174,0.032-0.34,0.115-0.475,0.249L67.759,40.057L55.211,27.509c-0.001-0.001-0.002-0.001-0.003-0.002l-0.434-0.434
		c-0.353-0.354-0.926-0.354-1.28-0.001c-0.354,0.353-0.354,0.926-0.001,1.28L67.111,41.984
		C67.111,41.984,67.111,41.984,67.111,41.984z"/>
	<path fill="#231F20" d="M99.083,26.438c0.177,0.177,0.408,0.265,0.64,0.265c0.232,0,0.463-0.088,0.64-0.265
		c0.353-0.353,0.353-0.926,0-1.28l-24.41-24.41c-0.353-0.353-0.926-0.353-1.28,0c-0.353,0.353-0.353,0.926,0,1.28L99.083,26.438z"/>
	<path fill="#231F20" d="M100.359,47.546c0.353-0.353,0.353-0.926,0-1.28l-13.48-13.48c-0.001-0.001-0.002-0.002-0.003-0.003
		c-0.001-0.001-0.002-0.003-0.003-0.004c-0.353-0.353-0.926-0.353-1.28,0L67.76,50.613L54.766,37.619
		c-0.353-0.353-0.926-0.353-1.28,0c-0.353,0.353-0.353,0.926,0,1.28l0.442,0.442c0.001,0.001,0.002,0.002,0.003,0.003L70.738,56.15
		l7.456,7.456c0.177,0.177,0.408,0.265,0.64,0.265c0.232,0,0.463-0.088,0.64-0.265c0.353-0.353,0.353-0.926,0-1.28L69.072,51.925
		l-0.033-0.033l17.193-17.193l12.847,12.847c0.177,0.177,0.408,0.265,0.64,0.265C99.95,47.811,100.182,47.722,100.359,47.546z"/>
	<path fill="#231F20" d="M77.036,14.947l-9.276,9.276L55.211,11.675l-0.435-0.435c-0.353-0.353-0.926-0.353-1.28,0
		c-0.353,0.353-0.353,0.926,0,1.28L67.12,26.142c0.177,0.177,0.408,0.265,0.64,0.265c0.232,0,0.463-0.088,0.64-0.265
		c0.005-0.005,0.009-0.012,0.014-0.017c0.005-0.005,0.012-0.009,0.018-0.015l10.5-10.5c0.134-0.134,0.217-0.3,0.249-0.473
		c0.068-0.294-0.01-0.615-0.239-0.844l-1.013-1.012c0,0,0,0-0.001-0.001L66.274,1.626c-0.003-0.003-0.007-0.005-0.01-0.008
		L65.4,0.754c-0.353-0.353-0.926-0.353-1.28,0c-0.353,0.353-0.353,0.926,0,1.28L77.036,14.947z"/>
	<path fill="#231F20" d="M53.931,18.232C53.931,18.232,53.931,18.232,53.931,18.232l12.946,12.946
		c0.005,0.005,0.01,0.008,0.015,0.012l0.174,0.174c0.007,0.007,0.016,0.012,0.023,0.019c0.011,0.012,0.019,0.026,0.031,0.037
		c0.177,0.177,0.408,0.265,0.64,0.265c0.232,0,0.463-0.088,0.64-0.265l15.829-15.829c0.001-0.001,0.001-0.002,0.002-0.003
		c0.001-0.001,0.002-0.001,0.003-0.002c0.353-0.353,0.353-0.926,0-1.28l-0.313-0.313c0,0,0,0,0,0L71.552,1.626
		c-0.001-0.001-0.002-0.002-0.003-0.003L70.68,0.754c-0.353-0.353-0.926-0.353-1.28,0c-0.353,0.353-0.353,0.926,0,1.28
		l12.914,12.913L67.761,29.5L54.765,16.506c-0.353-0.353-0.926-0.353-1.28,0c-0.353,0.353-0.353,0.926,0,1.28L53.931,18.232z"/>
	<path fill="#231F20" d="M67.111,36.707c0.177,0.177,0.408,0.265,0.64,0.265c0.231,0,0.463-0.088,0.639-0.265c0,0,0,0,0,0
		l17.924-17.759l12.776,12.776c0.177,0.177,0.408,0.265,0.64,0.265c0.232,0,0.463-0.088,0.64-0.265c0.353-0.353,0.353-0.926,0-1.28
		L86.957,17.031c-0.022-0.022-0.047-0.039-0.071-0.058c-0.023-0.019-0.045-0.04-0.069-0.057c-0.025-0.017-0.053-0.028-0.079-0.042
		c-0.026-0.014-0.051-0.03-0.078-0.041c-0.026-0.011-0.054-0.016-0.081-0.025c-0.029-0.009-0.057-0.02-0.086-0.026
		c-0.026-0.005-0.053-0.005-0.08-0.008c-0.031-0.003-0.062-0.009-0.093-0.009c-0.026,0-0.051,0.005-0.077,0.007
		c-0.032,0.003-0.064,0.003-0.096,0.009c-0.025,0.005-0.049,0.015-0.074,0.022c-0.031,0.009-0.063,0.015-0.094,0.028
		c-0.026,0.01-0.049,0.026-0.074,0.039c-0.028,0.014-0.057,0.026-0.083,0.044c-0.026,0.017-0.049,0.039-0.073,0.059
		c-0.023,0.018-0.047,0.034-0.068,0.055l-0.003,0.003l0,0l0,0L67.763,34.782L55.211,22.231c-0.001-0.001-0.002-0.002-0.003-0.003
		l-0.449-0.449c-0.353-0.354-0.926-0.354-1.28-0.001c-0.354,0.353-0.354,0.926-0.001,1.28L67.111,36.707z"/>
	<path fill="#231F20" d="M67.117,20.861c0.177,0.177,0.485,0.261,0.716,0.261s0.386-0.084,0.563-0.261
		c0.008-0.008,0.013-0.017,0.02-0.024c0.014-0.013,0.027-0.023,0.041-0.037l5.217-5.217c0.088-0.088,0.155-0.19,0.199-0.299
		c0.044-0.109,0.066-0.225,0.066-0.34c0-0.232-0.088-0.463-0.265-0.64l-2.744-2.744c0,0,0,0,0,0l-4.566-4.566l-6.22-6.22
		c-0.353-0.353-0.926-0.353-1.28,0s-0.353,0.926,0,1.28l0.853,0.853c0,0,0,0,0,0l9.933,9.933l0,0l2.109,2.109l-3.969,4.028
		L54.766,5.952c-0.353-0.353-0.926-0.353-1.28,0c-0.353,0.353-0.353,0.926,0,1.28L67.117,20.861z"/>
	<path fill="#231F20" d="M86.872,38.058C86.872,38.058,86.872,38.058,86.872,38.058c-0.353-0.353-0.926-0.353-1.28,0l-2.631,2.631
		c-0.046,0.046-0.085,0.095-0.119,0.148c-0.235,0.352-0.197,0.831,0.113,1.141l12.553,12.553l-1.359,1.359l-9.916-9.916
		c-0.313-0.313-0.798-0.347-1.15-0.106c-0.08,0.042-0.157,0.092-0.224,0.159l-2.544,2.586c-0.353,0.353-0.353,0.926,0,1.28
		c0,0,0.001,0.001,0.001,0.001L91.191,60.77c0.177,0.177,0.408,0.265,0.64,0.265c0.232,0,0.463-0.088,0.64-0.265
		c0.353-0.353,0.353-0.926,0-1.28L82.229,49.248l1.348-1.37l9.932,9.932c0.177,0.177,0.408,0.265,0.64,0.265s0.463-0.088,0.64-0.265
		l2.639-2.639c0.353-0.353,0.353-0.926,0-1.28c0,0-0.001-0.001-0.001-0.001s-0.001-0.001-0.001-0.001L84.873,41.336l1.359-1.359
		l10.881,10.881c0.177,0.177,0.408,0.265,0.64,0.265c0.232,0,0.463-0.088,0.64-0.265c0.353-0.353,0.353-0.926,0-1.28L86.872,38.058z
		"/>
	<path fill="#231F20" d="M139.762,40.846c-0.054,0.035-0.106,0.075-0.153,0.122l-2.587,2.587c-0.353,0.353-0.353,0.926,0,1.28
		c0.003,0.003,0.006,0.004,0.008,0.007c0,0,0,0,0.001,0.001l18.752,18.74c0.177,0.177,0.408,0.265,0.64,0.265
		c0.232,0,0.463-0.088,0.64-0.265c0.353-0.353,0.353-0.926,0-1.28l-18.12-18.108l1.318-1.318l20.779,20.697
		c0.177,0.177,0.408,0.265,0.64,0.265c0.232,0,0.463-0.088,0.64-0.265c0.353-0.353,0.353-0.926,0-1.28L140.901,40.96
		C140.591,40.65,140.113,40.612,139.762,40.846z"/>
	<path fill="#231F20" d="M126.012,28.686c0.177,0.177,0.408,0.265,0.64,0.265c0.232,0,0.463-0.088,0.64-0.265
		c0.001-0.001,0.002-0.003,0.003-0.004c0.001-0.001,0.003-0.002,0.004-0.003l2.546-2.549c0.093-0.093,0.16-0.201,0.204-0.316
		c0.139-0.329,0.075-0.723-0.193-0.991l-9.103-9.096c-0.353-0.353-0.926-0.353-1.28,0c-0.353,0.353-0.353,0.926,0,1.28l8.471,8.465
		l-1.293,1.294l-7.25-7.25c-0.353-0.353-0.926-0.353-1.28,0c-0.353,0.353-0.353,0.926,0,1.28L126.012,28.686z"/>
	<path fill="#231F20" d="M151.204,63.845c0.232,0,0.463-0.088,0.64-0.265c0.353-0.353,0.353-0.926,0-1.28l-16.15-16.138c0,0,0,0,0,0
		c0,0,0,0,0,0l-0.005-0.005c-0.353-0.353-0.926-0.353-1.28,0c-0.017,0.017-0.03,0.037-0.045,0.056l-1.784,1.784l-17.172-17.176
		c-0.353-0.353-0.926-0.353-1.28,0c-0.353,0.353-0.353,0.926,0,1.28l17.812,17.816c0.177,0.177,0.408,0.265,0.64,0.265
		c0.232,0,0.463-0.088,0.64-0.265c0.001-0.001,0.001-0.002,0.002-0.002c0.001-0.001,0.002-0.001,0.002-0.002l1.831-1.831
		l15.51,15.498C150.741,63.757,150.972,63.845,151.204,63.845z"/>
	<path fill="#231F20" d="M112.336,38.531l1.366-1.366l12.922,12.922c0.177,0.177,0.408,0.265,0.64,0.265s0.463-0.088,0.64-0.265
		c0.353-0.353,0.353-0.926,0-1.28l-13.562-13.562c-0.353-0.353-0.926-0.353-1.28,0c-0.002,0.002-0.003,0.004-0.005,0.006
		c-0.002,0.002-0.004,0.003-0.006,0.005l-2.635,2.635c-0.133,0.133-0.215,0.296-0.248,0.467c-0.055,0.285,0.028,0.592,0.248,0.813
		l12.835,12.835l-1.367,1.374l-10.102-10.102c-0.005-0.005-0.01-0.008-0.015-0.012c-0.004-0.005-0.007-0.01-0.012-0.015
		c-0.353-0.353-0.926-0.353-1.28,0l-2.505,2.505c-0.053,0.053-0.095,0.112-0.132,0.173c-0.345,0.354-0.344,0.92,0.007,1.271
		l10.126,10.126l-1.366,1.366l-7.425-7.425c-0.353-0.353-0.926-0.353-1.28,0c-0.002,0.002-0.004,0.005-0.006,0.008
		c-0.002,0.002-0.005,0.004-0.008,0.006l-2.601,2.509c-0.024,0.019-0.049,0.036-0.071,0.058c-0.353,0.353-0.353,0.926,0,1.28
		l8.438,8.45c0.177,0.177,0.408,0.265,0.64,0.265s0.463-0.088,0.64-0.265c0.353-0.353,0.353-0.926,0-1.28l-3.483-3.488
		c-0.011-0.012-0.019-0.026-0.031-0.038l-2.28-2.28c-0.006-0.006-0.014-0.01-0.02-0.016l-1.968-1.97l1.378-1.329l7.384,7.384
		c0.009,0.009,0.02,0.015,0.029,0.024c0.009,0.009,0.015,0.02,0.024,0.029c0.177,0.177,0.408,0.265,0.64,0.265
		s0.463-0.088,0.64-0.265l2.642-2.642c0.001-0.001,0.003-0.002,0.004-0.003c0.353-0.353,0.353-0.926,0-1.28l-10.146-10.146
		l1.371-1.371l10.13,10.13c0.177,0.177,0.408,0.265,0.64,0.265c0.232,0,0.463-0.088,0.64-0.265l2.631-2.644c0,0,0,0,0-0.001
		c0.004-0.004,0.009-0.007,0.013-0.011c0.353-0.353,0.353-0.926,0-1.28L112.336,38.531z"/>
	<path fill="#231F20" d="M141.035,7.857c0.177,0.177,0.408,0.265,0.64,0.265c0.232,0,0.463-0.088,0.64-0.265
		c0.353-0.353,0.353-0.926,0-1.28l-5.983-5.983c-0.353-0.353-0.926-0.353-1.28,0c-0.353,0.353-0.353,0.926,0,1.28L141.035,7.857z"/>
	<path fill="#231F20" d="M144.531,16.453c0.177,0.177,0.408,0.265,0.64,0.265s0.463-0.088,0.64-0.265
		c0.353-0.353,0.353-0.926,0-1.28L131.276,0.639c-0.353-0.353-0.926-0.353-1.28,0c-0.353,0.353-0.353,0.926,0,1.28L144.531,16.453z"
		/>
	<path fill="#231F20" d="M150.018,32.17c0.177,0.177,0.408,0.265,0.64,0.265c0.232,0,0.463-0.088,0.64-0.265
		c0.353-0.353,0.353-0.926,0-1.28L124.769,4.362c-0.353-0.353-0.926-0.353-1.28,0c-0.353,0.353-0.353,0.926,0,1.28L150.018,32.17z"
		/>
	<path fill="#231F20" d="M147.242,24.291c0.177,0.177,0.408,0.265,0.64,0.265c0.231,0,0.463-0.088,0.64-0.265
		c0.385-0.385,0.426-0.854,0-1.28L126.134,0.623c-0.353-0.353-0.926-0.353-1.28,0c-0.353,0.353-0.353,0.926,0,1.28L147.242,24.291z"
		/>
	<path fill="#231F20" d="M152.698,39.979c0.177,0.177,0.408,0.265,0.64,0.265c0.232,0,0.463-0.088,0.64-0.265
		c0.353-0.353,0.353-0.926,0-1.28L123.432,8.154c-0.353-0.353-0.926-0.353-1.28,0c-0.353,0.353-0.353,0.926,0,1.28L152.698,39.979z"
		/>
	<path fill="#231F20" d="M131.824,44.772c0.177,0.177,0.408,0.265,0.64,0.265c0.174,0,0.347-0.05,0.498-0.149
		c0.05-0.033,0.098-0.072,0.142-0.116l7.054-7.08l17.972,17.957c0.177,0.177,0.408,0.265,0.64,0.265c0.232,0,0.463-0.088,0.64-0.265
		c0.353-0.353,0.353-0.926,0-1.28l-18.614-18.598c-0.353-0.353-0.926-0.353-1.28,0c-0.009,0.009-0.015,0.02-0.024,0.029
		c-0.006,0.006-0.013,0.01-0.019,0.016l-7.01,7.036l-1.434-1.434l8.994-8.994l15.413,15.413c0.177,0.177,0.408,0.265,0.64,0.265
		c0.232,0,0.463-0.088,0.64-0.265c0.353-0.353,0.353-0.926,0-1.28l-34.606-34.606c-0.353-0.353-0.926-0.353-1.28,0
		c-0.353,0.353-0.353,0.926,0,1.28l12.484,12.484l-6.432,6.432l-8.804-8.816c-0.353-0.353-0.926-0.353-1.28,0
		c-0.353,0.353-0.353,0.926,0,1.28l9.443,9.456c0.088,0.088,0.19,0.155,0.299,0.199c0.109,0.044,0.225,0.066,0.34,0.066
		c0.116,0,0.232-0.022,0.34-0.066c0.109-0.044,0.211-0.11,0.299-0.199l7.072-7.072l1.498,1.498l-8.994,8.994l-10.369-10.369
		c-0.353-0.353-0.926-0.353-1.28,0c-0.353,0.353-0.353,0.926,0,1.28L131.824,44.772z M137.371,29.772l1.372,1.372l-8.994,8.994
		l-1.372-1.372L137.371,29.772z"/>
	<path fill="#231F20" d="M138.913,73.418c0.966,0,1.514,0.577,1.831,1.269c0.008,0.021,0.021,0.038,0.036,0.052
		c0.215,0.366,0.675,0.512,1.062,0.322c0.393-0.193,0.559-0.659,0.387-1.056c-0.001-0.004,0.001-0.007,0-0.01
		c-0.004-0.009-0.009-0.016-0.013-0.025c0-0.001-0.001-0.002-0.001-0.003l-0.028-0.056l-0.002,0.001
		c-0.577-1.247-1.736-2.022-3.273-2.022c-1.658,0-2.897,0.807-3.402,2.407c-0.202,0.605-0.259,1.096-0.259,2.652
		s0.058,2.047,0.259,2.652c0.505,1.6,1.744,2.407,3.402,2.407c1.508,0,2.658-0.744,3.244-1.951l0.001,0
		c0.163-0.386,0.009-0.839-0.367-1.043c-0.4-0.217-0.9-0.069-1.117,0.331l-0.083,0.153c-0.332,0.557-0.851,0.982-1.679,0.982
		c-0.937,0-1.485-0.505-1.759-1.297c-0.13-0.404-0.173-0.793-0.173-2.234c0-1.442,0.043-1.831,0.173-2.234
		C137.428,73.922,137.976,73.418,138.913,73.418z"/>
	<path fill="#231F20" d="M3.842,72.049H0.339c-0.086,0-0.144,0.058-0.144,0.144v9.514c0,0.086,0.058,0.144,0.144,0.144h3.503
		c1.687,0,2.811-0.75,3.272-2.177c0.159-0.49,0.245-1.023,0.245-2.724c0-1.701-0.086-2.234-0.245-2.724
		C6.653,72.798,5.529,72.049,3.842,72.049z M5.471,79.083c-0.288,0.879-0.951,1.24-2.033,1.24H1.983
		c-0.058,0-0.086-0.029-0.086-0.087v-6.573c0-0.058,0.029-0.086,0.086-0.086h1.456c1.081,0,1.744,0.36,2.033,1.24
		c0.101,0.274,0.173,0.706,0.173,2.133C5.644,78.362,5.572,78.809,5.471,79.083z"/>
	<path fill="#231F20" d="M29.516,73.418c0.966,0,1.514,0.577,1.831,1.269c0.008,0.021,0.021,0.038,0.036,0.052
		c0.215,0.366,0.675,0.512,1.062,0.322c0.393-0.193,0.559-0.659,0.387-1.056c-0.001-0.004,0.001-0.007,0-0.01
		c-0.004-0.009-0.009-0.016-0.013-0.025c0-0.001-0.001-0.002-0.001-0.003l-0.028-0.056l-0.002,0.001
		c-0.577-1.247-1.736-2.022-3.273-2.022c-1.658,0-2.897,0.807-3.402,2.407c-0.202,0.605-0.259,1.096-0.259,2.652
		s0.058,2.047,0.259,2.652c0.505,1.6,1.744,2.407,3.402,2.407c1.508,0,2.658-0.744,3.244-1.951l0.001,0
		c0.163-0.386,0.009-0.839-0.367-1.043c-0.4-0.217-0.9-0.069-1.117,0.331l-0.083,0.153c-0.332,0.557-0.851,0.982-1.679,0.982
		c-0.937,0-1.485-0.505-1.759-1.297c-0.13-0.404-0.173-0.793-0.173-2.234c0-1.442,0.043-1.831,0.173-2.234
		C28.031,73.922,28.579,73.418,29.516,73.418z"/>
	<path fill="#231F20" d="M50.951,72.049h-3.503c-0.086,0-0.144,0.058-0.144,0.144v9.514c0,0.086,0.058,0.144,0.144,0.144h3.503
		c1.687,0,2.811-0.75,3.272-2.177c0.159-0.49,0.245-1.023,0.245-2.724c0-1.701-0.086-2.234-0.245-2.724
		C53.762,72.798,52.638,72.049,50.951,72.049z M52.58,79.083c-0.288,0.879-0.951,1.24-2.033,1.24h-1.456
		c-0.058,0-0.086-0.029-0.086-0.087v-6.573c0-0.058,0.029-0.086,0.086-0.086h1.456c1.081,0,1.744,0.36,2.033,1.24
		c0.101,0.274,0.173,0.706,0.173,2.133C52.753,78.362,52.681,78.809,52.58,79.083z"/>
	<path fill="#231F20" d="M119.651,73.582h3.892c0.424,0,0.767-0.343,0.767-0.767c0-0.424-0.343-0.767-0.767-0.767h-2.196h-2.7
		h-0.623c-0.086,0-0.144,0.058-0.144,0.144v9.514c0,0.086,0.058,0.144,0.144,0.144h0.622c0,0,0,0,0,0h4.895
		c0.424,0,0.767-0.343,0.767-0.767c0-0.424-0.343-0.767-0.767-0.767h-3.892c-0.044-0.007-0.069-0.031-0.069-0.081v-2.479
		c0-0.055,0.028-0.081,0.08-0.084h3.189c0.424,0,0.767-0.343,0.767-0.767c0-0.424-0.343-0.767-0.767-0.767h-3.192
		c-0.049-0.004-0.076-0.03-0.076-0.083v-2.393C119.581,73.613,119.607,73.589,119.651,73.582z"/>
	<path fill="#231F20" d="M159.785,76.128l-0.519-0.072c-1.326-0.187-1.802-0.649-1.802-1.326c0-0.764,0.548-1.312,1.542-1.312
		c0.683,0,1.306,0.169,1.952,0.524c0,0,0,0,0,0c0.059,0.032,0.156,0.086,0.308,0.172c0.438,0.248,0.86,0.073,1.07-0.308
		c0.21-0.381,0.052-0.803-0.308-1.07c0,0-0.34-0.236-0.681-0.372l-0.002,0.008c-0.673-0.298-1.468-0.482-2.297-0.482
		c-2.018,0-3.316,1.182-3.316,2.955c0,1.629,1.067,2.537,2.955,2.796l0.519,0.072c1.355,0.187,1.787,0.649,1.787,1.355
		c0,0.822-0.678,1.413-1.845,1.413c-0.791,0-1.566-0.363-2.153-0.702c-0.445-0.295-0.806-0.357-1.145-0.062
		c-0.346,0.302-0.339,0.892-0.08,1.174c0.166,0.181,0.316,0.304,0.456,0.394c0.002,0.002,0.004,0.009,0.007,0.01
		c0.019,0.01,0.041,0.018,0.06,0.028c0.107,0.064,0.209,0.114,0.305,0.155l0.003-0.01c0.708,0.324,1.551,0.54,2.419,0.54
		c2.436,0,3.69-1.297,3.69-3.042C162.711,77.281,161.673,76.387,159.785,76.128z"/>
	<path fill="#231F20" d="M40.89,72.049c-0.469,0-0.85,0.38-0.85,0.85v1.012c0,0.002-0.002,0.003-0.002,0.004v2.141
		c0,0.058-0.029,0.086-0.086,0.086h-3.734c-0.058,0-0.086-0.029-0.086-0.086v-2.158c0-0.002-0.002-0.003-0.002-0.005v-0.995
		c0-0.47-0.38-0.85-0.85-0.85c-0.469,0-0.85,0.38-0.85,0.85v0.999v6.384v0.719c0,0.47,0.38,0.85,0.85,0.85
		c0.469,0,0.85-0.38,0.85-0.85v-0.715c0-0.002,0.002-0.003,0.002-0.005v-2.525c0-0.058,0.029-0.087,0.086-0.087h3.734
		c0.058,0,0.086,0.029,0.086,0.087v2.521c0,0.002,0.002,0.003,0.002,0.004v0.719c0,0.47,0.38,0.85,0.85,0.85
		c0.469,0,0.85-0.38,0.85-0.85v-0.723v-6.363v-1.017C41.74,72.429,41.359,72.049,40.89,72.049z"/>
	<path fill="#231F20" d="M58.014,72.898c0-0.47-0.38-0.85-0.85-0.85c-0.469,0-0.85,0.38-0.85,0.85v1.523
		c0,0.001-0.001,0.001-0.001,0.002v5.203c0,0.001,0.001,0.001,0.001,0.002v1.372c0,0.47,0.38,0.85,0.85,0.85
		c0.469,0,0.85-0.38,0.85-0.85v-1.372c0-0.001,0.001-0.001,0.001-0.002v-5.203c0-0.001-0.001-0.001-0.001-0.002V72.898z"/>
	<path fill="#231F20" d="M70.915,72.898c0-0.47-0.38-0.85-0.85-0.85c-0.469,0-0.85,0.38-0.85,0.85v1.209
		c0,0.001-0.001,0.001-0.001,0.002v4.818c0,0.001,0.001,0.001,0.001,0.002v2.071c0,0.47,0.38,0.85,0.85,0.85
		c0.469,0,0.85-0.38,0.85-0.85V78.93c0-0.001,0.001-0.001,0.001-0.002V74.11c0-0.001-0.001-0.001-0.001-0.002V72.898z"/>
	<path fill="#231F20" d="M94.698,80.317h-3.892c-0.044-0.007-0.069-0.031-0.069-0.081v-5.885c0-0.002-0.002-0.003-0.002-0.005
		v-1.449c0-0.47-0.38-0.85-0.85-0.85c-0.469,0-0.85,0.38-0.85,0.85v1.453v6.29v0.359v0.044l0.004-0.001
		c-0.001,0.013-0.004,0.026-0.004,0.04c0,0.403,0.312,0.73,0.707,0.761l-0.002,0.006h0.061c0,0,0,0,0,0h4.895
		c0.424,0,0.767-0.343,0.767-0.767C95.465,80.66,95.122,80.317,94.698,80.317z"/>
	<path fill="#231F20" d="M87.271,80.491l-2.616-7.506c-0.15-0.534-0.565-0.936-1.126-0.936c-0.556,0-0.953,0.402-1.124,0.919
		l-2.726,7.683c-0.002,0.006,0.002,0.009,0,0.014l-0.072,0.187c-0.146,0.413,0.071,0.866,0.484,1.012
		c0.413,0.146,0.866-0.071,1.012-0.484l0.251-0.711c0.003-0.008,0.009-0.01,0.011-0.019l0.144-0.42l0.151-0.426h3.663l0.571,1.616
		c0.149,0.422,0.612,0.643,1.033,0.494c0.422-0.149,0.643-0.611,0.494-1.033L87.271,80.491z M82.174,78.29l1.312-3.806h0.043
		l1.297,3.806H82.174z"/>
	<path fill="#231F20" d="M15.519,72.049c-0.469,0-0.85,0.38-0.85,0.85v0.223c0,0.002-0.002,0.003-0.002,0.005v5.251
		c0,1.355-0.793,2.105-1.917,2.105c-1.11,0-1.903-0.75-1.903-2.105v-5.453c0-0.002-0.002-0.003-0.002-0.005v-0.021
		c0-0.47-0.38-0.85-0.85-0.85s-0.85,0.38-0.85,0.85v0.026v2.93v2.551c0,2.278,1.542,3.604,3.604,3.604
		c2.076,0,3.618-1.326,3.618-3.604v-2.551v-2.728v-0.228C16.369,72.429,15.989,72.049,15.519,72.049z"/>
	<path fill="#231F20" d="M24.236,72.049h-0.803h-4.736h-0.22c-0.424,0-0.767,0.344-0.767,0.767c0,0.424,0.343,0.767,0.767,0.767
		h1.962c0.042,0.007,0.067,0.031,0.067,0.08v5.96c0,0.001,0.001,0.001,0.001,0.002v1.376c0,0.47,0.38,0.85,0.85,0.85
		c0.469,0,0.85-0.38,0.85-0.85v-1.375c0-0.001,0.001-0.001,0.001-0.002v-5.96c0-0.049,0.025-0.073,0.067-0.08h1.962
		c0.424,0,0.767-0.343,0.767-0.767C25.004,72.392,24.66,72.049,24.236,72.049z"/>
	<path fill="#231F20" d="M78.841,72.049h-0.803h-4.736h-0.22c-0.424,0-0.767,0.344-0.767,0.767c0,0.424,0.343,0.767,0.767,0.767
		h1.962c0.042,0.007,0.067,0.031,0.067,0.08v5.96c0,0.001,0.001,0.001,0.001,0.002v1.376c0,0.47,0.38,0.85,0.85,0.85
		c0.469,0,0.85-0.38,0.85-0.85v-1.375c0-0.001,0.001-0.001,0.001-0.002v-5.96c0-0.049,0.025-0.073,0.067-0.08h1.962
		c0.424,0,0.767-0.343,0.767-0.767C79.608,72.392,79.265,72.049,78.841,72.049z"/>
	<path fill="#231F20" d="M66.617,76.454H64.53c-0.4,0-0.723,0.324-0.723,0.723s0.324,0.723,0.723,0.723h0.138c0,0,0,0,0,0h0.9
		c0.058,0,0.086,0.029,0.086,0.086c0,0.562-0.058,0.966-0.159,1.269c-0.259,0.793-0.995,1.225-1.86,1.225
		c-0.995,0-1.571-0.49-1.845-1.283c-0.115-0.36-0.173-0.865-0.173-2.249c0-1.398,0.058-1.888,0.173-2.249
		c0.274-0.793,0.851-1.283,1.845-1.283c0.951,0,1.542,0.432,1.975,1.211c0.007,0.014,0.024,0.022,0.036,0.034l-0.005,0.003
		c0.008,0.02,0.02,0.037,0.035,0.051c0.209,0.356,0.657,0.498,1.033,0.313c0.323-0.159,0.488-0.506,0.431-0.844
		c-0.01-0.062-0.067-0.206-0.073-0.22c-0.404-1.096-1.586-2.076-3.416-2.076c-1.73,0-2.998,0.807-3.503,2.364
		c-0.202,0.605-0.259,1.153-0.259,2.696c0,1.542,0.058,2.09,0.259,2.696c0.505,1.557,1.773,2.364,3.503,2.364
		c1.687,0,2.984-0.879,3.46-2.407c0.159-0.49,0.231-1.341,0.231-2.148v-0.277C67.341,76.778,67.017,76.454,66.617,76.454z"/>
	<path fill="#231F20" d="M133.405,72.803c0-0.429-0.347-0.776-0.775-0.776s-0.776,0.347-0.776,0.776v3.099v0.328
		c0,0.007,0.002,0.013,0.002,0.019l-0.002,2.772l-3.454-5.821c-0.097-0.163-0.191-0.321-0.282-0.472
		c-0.091-0.151-0.18-0.274-0.266-0.369c-0.087-0.095-0.188-0.17-0.303-0.226c-0.115-0.056-0.254-0.084-0.415-0.084
		c-0.206,0-0.398,0.062-0.575,0.184c-0.178,0.123-0.305,0.281-0.382,0.475c-0.064,0.177-0.097,0.42-0.097,0.731v7.31
		c0,0.093,0.006,0.179,0.016,0.26v0.06c0,0.429,0.347,0.776,0.776,0.776c0.003,0,0.006,0,0.01,0
		c0.014,0.001,0.026,0.004,0.041,0.004c0.153,0,0.243-0.04,0.328-0.112c0.234-0.133,0.397-0.378,0.397-0.667v-0.32v-1.517v-4.222
		c0,0,3.567,6.006,3.664,6.15c0.097,0.145,0.202,0.271,0.315,0.379s0.234,0.186,0.363,0.236c0.129,0.05,0.274,0.074,0.436,0.074
		c0.646,0,0.987-0.318,0.987-1.15v-7.453c0-0.051-0.005-0.097-0.008-0.145V72.803z"/>
</g>
</svg>
