<?xml version="1.0" encoding="UTF-8" standalone="no"?>
<svg
   xmlns:dc="http://purl.org/dc/elements/1.1/"
   xmlns:cc="http://creativecommons.org/ns#"
   xmlns:rdf="http://www.w3.org/1999/02/22-rdf-syntax-ns#"
   xmlns:svg="http://www.w3.org/2000/svg"
   xmlns="http://www.w3.org/2000/svg"
   viewBox="0 0 646.78748 282.375"
   height="282.375"
   width="646.78748"
   xml:space="preserve"
   version="1.1"
   id="svg2"><metadata
     id="metadata8"><rdf:RDF><cc:Work
         rdf:about=""><dc:format>image/svg+xml</dc:format><dc:type
           rdf:resource="http://purl.org/dc/dcmitype/StillImage" /></cc:Work></rdf:RDF></metadata><defs
     id="defs6" /><g
     transform="matrix(1.25,0,0,-1.25,0,282.375)"
     id="g10"><g
       transform="scale(0.1,0.1)"
       id="g12"><path
         id="path14"
         style="fill:#231f20;fill-opacity:1;fill-rule:nonzero;stroke:none"
         d="m 3091.94,1909.52 c 0,-40.18 -11.36,-70.86 -33.77,-91.2 -22.55,-20.45 -52.97,-30.82 -90.43,-30.82 l -100.89,0 0,365.68 100.89,0 c 36.94,0 67.23,-10.73 90.02,-31.88 22.68,-21.07 34.18,-51.64 34.18,-90.87 l 0,-120.91 z m -124.2,311.38 -165.12,0 -6.41,-6.4 0,-488.32 6.41,-6.4 165.12,0 c 59.68,0 107.8,15.96 143.01,47.45 35.36,31.63 53.29,77.29 53.29,135.73 l 0,132.58 c 0,58.9 -18.05,105.05 -53.64,137.16 -35.46,31.99 -83.45,48.2 -142.66,48.2" /><path
         id="path16"
         style="fill:#231f20;fill-opacity:1;fill-rule:nonzero;stroke:none"
         d="m 3464.37,1763.67 17.33,-43.02 7.1,-4.73 48.02,7.08 6.39,7.68 -18.71,65.87 0,290.79 -7.02,5.6 -54.81,-7.83 -5.9,-7.07 0,-286.14 -10.67,-3.94 c -9.69,-3.39 -20.74,-6.79 -32.83,-10.1 -11.91,-3.27 -20.69,-4.93 -26.07,-4.93 -21.73,0 -38.87,6.57 -52.39,20.11 -13.33,13.32 -20.1,34.62 -20.1,63.3 l 0,231 -7,5.6 -54.82,-7.83 -5.9,-7.07 0,-234.08 c 0,-41.83 10.71,-74.76 31.83,-97.88 21.23,-23.26 49.6,-35.04 84.34,-35.04 30.49,0 54.59,6.31 71.63,18.75 13.29,9.71 23.2,21.07 29.58,33.88" /><path
         id="path18"
         style="fill:#231f20;fill-opacity:1;fill-rule:nonzero;stroke:none"
         d="m 3812.5,1797.19 -9.05,-6.36 c -4.5,-3.6 -11.12,-7.31 -19.69,-11 -8.33,-3.61 -16.39,-5.44 -23.97,-5.44 -17.98,0 -31.98,7.34 -42.78,22.43 -11.02,15.36 -16.6,35.39 -16.6,59.52 l 0,170.83 102.41,0 7.63,5.46 15.14,49.39 -7.03,7.04 -118.15,0 0,78.39 -7,5.62 -45.36,-6.37 -5.75,-6.91 -6.29,-70.73 -39.89,0 -6.41,-6.41 0,-49.07 6.41,-6.41 36.56,0 0,-175.2 c 0,-44.73 11.46,-79.76 34.05,-104.09 22.67,-24.45 52.26,-36.84 87.96,-36.84 29.98,0 59.57,10.09 87.93,29.99 l 1.38,0.96 2.44,8.57 -24.63,45.3 -9.31,1.33" /><path
         id="path20"
         style="fill:#231f20;fill-opacity:1;fill-rule:nonzero;stroke:none"
         d="m 4028.93,1711.04 c 31.74,0 59.49,6.57 82.46,19.55 23.19,13.11 39.82,32.04 49.42,56.27 l 0.78,1.98 -4.01,7.96 -46.91,16.42 -8.46,-2.4 -0.95,-1.74 c -13.3,-24.32 -38.16,-36.15 -75.98,-36.15 -23.33,0 -41.91,6.99 -55.24,20.78 -13.37,13.82 -20.15,34.16 -20.15,60.45 l 0,100.52 c 0,26.28 6.78,46.62 20.15,60.45 13.34,13.79 31.92,20.78 55.24,20.78 35.34,0 58.99,-12.28 72.31,-37.55 l 0.94,-1.78 8.48,-2.42 46.93,16.42 4,7.98 -0.8,1.98 c -10.08,25.17 -26.94,44.59 -50.13,57.72 -22.96,12.97 -49.22,19.54 -78.08,19.54 -45.2,0 -81.32,-12.18 -107.36,-36.21 -26.14,-24.13 -39.4,-56.18 -39.4,-95.26 l 0,-124.56 c 0,-39.09 13.26,-71.02 39.42,-94.89 26.03,-23.79 62.14,-35.84 107.34,-35.84" /><path
         id="path22"
         style="fill:#231f20;fill-opacity:1;fill-rule:nonzero;stroke:none"
         d="m 4513.21,1967.06 c 0,41.36 -10.85,73.82 -32.25,96.49 -21.48,22.73 -49.96,34.25 -84.66,34.25 -17.4,0 -33.33,-2.28 -47.34,-6.78 -14.14,-4.55 -25.6,-10.63 -34.08,-18.07 -7.05,-6.2 -12.45,-11.56 -16.42,-16.3 l 1.32,11.66 0,185.11 -7.01,5.6 -54.81,-7.82 -5.91,-7.09 0,-517.93 6.42,-6.4 54.9,0 6.41,6.4 0,294.1 c 37.73,10.37 61.86,15.63 71.75,15.63 21.96,0 39.99,-6.44 53.59,-19.13 13.5,-12.6 20.35,-33.26 20.35,-61.37 l 0,-229.23 6.43,-6.4 54.9,0 6.41,6.4 0,240.88" /><path
         id="path24"
         style="fill:#231f20;fill-opacity:1;fill-rule:nonzero;stroke:none"
         d="m 3542.72,1133.76 c 0,-40.17 -11.36,-70.86 -33.78,-91.2 -22.54,-20.45 -52.96,-30.82 -90.41,-30.82 l -100.9,0 0,365.68 100.9,0 c 36.95,0 67.23,-10.72 90,-31.88 22.69,-21.07 34.19,-51.64 34.19,-90.86 l 0,-120.92 z m -124.19,311.38 -165.13,0 -6.41,-6.41 0,-488.3 6.42,-6.41 165.12,0 c 59.68,0 107.79,15.968 142.99,47.449 35.37,31.651 53.3,77.311 53.3,135.741 l 0,132.57 c 0,58.9 -18.05,105.06 -53.65,137.17 -35.45,31.98 -83.44,48.19 -142.64,48.19" /><path
         id="path26"
         style="fill:#231f20;fill-opacity:1;fill-rule:nonzero;stroke:none"
         d="m 3717.6,1309.36 -5.88,-7.09 0,-351.84 6.4,-6.41 54.9,0 6.42,6.41 0,361.15 -7.02,5.6 -54.82,-7.82" /><path
         id="path28"
         style="fill:#231f20;fill-opacity:1;fill-rule:nonzero;stroke:none"
         d="m 3778.12,1386.89 6.41,6.41 0,64.38 -6.41,6.4 -64.36,0 -6.43,-6.4 0,-64.38 6.43,-6.41 64.36,0" /><path
         id="path30"
         style="fill:#231f20;fill-opacity:1;fill-rule:nonzero;stroke:none"
         d="m 3921.45,1179.65 c 0,26.25 7,46.44 20.81,60 13.83,13.6 33.17,20.5 57.51,20.5 54.66,0 81.23,-26.33 81.23,-80.5 0,-53.69 -26.57,-79.78 -81.23,-79.78 -52.7,0 -78.32,26.09 -78.32,79.78 z m 231.64,-297.189 c 0,29.848 -9.8,54.41 -29.13,72.969 -19.29,18.519 -47.12,27.91 -82.67,27.91 l -45.17,0 c -12.36,0 -21.71,3.558 -28.6,10.89 -6.89,7.31 -10.38,17.73 -10.38,30.99 0,5.59 0.96,11.24 2.85,16.86 l 43.41,-3.37 c 44.3,0 79.85,12.82 105.67,38.13 25.82,25.33 38.92,59.43 38.92,101.36 0,19.88 -3.16,38.56 -9.39,55.53 -4.94,13.4 -11.75,23.92 -20.33,31.42 l 41.98,11.73 4.73,8.26 -7.96,43.75 -7.69,5.12 -81.58,-17.07 -71.63,0 c -43.77,0 -78.68,-12.07 -103.77,-35.89 -25.14,-23.88 -37.89,-58 -37.89,-101.4 0,-19.87 2.91,-38.28 8.63,-54.72 5.74,-16.49 12.25,-29.34 19.36,-38.18 7.05,-8.86 15.38,-16.54 24.71,-22.82 9.2,-6.23 15.65,-10.07 19.7,-11.71 -18.09,-14.26 -27.24,-34.07 -27.24,-59.048 0,-19.383 8.79,-36.402 26.13,-50.621 17.04,-14 40.71,-21.11 70.37,-21.11 l 45.17,0 c 13.74,0 24.66,-3.73 32.44,-11.089 7.83,-7.391 11.64,-15.801 11.64,-25.711 0,-13.039 -6.26,-23.809 -19.12,-32.922 -13.23,-9.328 -32.16,-14.071 -56.28,-14.071 -15.59,0 -29.82,1.43 -42.31,4.25 -12.36,2.801 -21.89,5.961 -28.3,9.391 -6.41,3.441 -11.94,7.352 -16.46,11.641 -6.21,5.922 -7.52,8.019 -7.78,8.55 l -3.12,6.211 -8.74,2.508 -47.27,-21.277 -2.59,-8.953 0.81,-1.629 c 23.57,-48.16 76.46,-72.578 157.21,-72.578 38.16,0 71.51,9.199 99.11,27.347 28.24,18.59 42.56,45.282 42.56,79.352" /><path
         id="path32"
         style="fill:#231f20;fill-opacity:1;fill-rule:nonzero;stroke:none"
         d="m 4236.01,1464.08 -6.41,-6.4 0,-64.38 6.41,-6.41 64.36,0 6.41,6.41 0,64.38 -6.41,6.4 -64.36,0" /><path
         id="path34"
         style="fill:#231f20;fill-opacity:1;fill-rule:nonzero;stroke:none"
         d="m 4239.86,1309.36 -5.89,-7.09 0,-351.84 6.4,-6.41 54.9,0 6.42,6.41 0,361.15 -7.02,5.6 -54.81,-7.82" /><path
         id="path36"
         style="fill:#231f20;fill-opacity:1;fill-rule:nonzero;stroke:none"
         d="m 4633.55,965.27 1.38,0.96 2.43,8.571 -24.63,45.289 -9.3,1.33 -9.06,-6.35 c -4.51,-3.61 -11.13,-7.32 -19.69,-11 -8.33,-3.62 -16.4,-5.441 -23.96,-5.441 -17.99,0 -31.98,7.331 -42.79,22.421 -11.02,15.37 -16.6,35.4 -16.6,59.54 l 0,170.82 102.41,0 7.63,5.45 15.15,49.41 -7.04,7.03 -118.15,0 0,78.4 -6.99,5.61 -45.36,-6.37 -5.75,-6.9 -6.3,-70.74 -39.88,0 -6.41,-6.4 0,-49.08 6.41,-6.41 36.56,0 0,-175.2 c 0,-44.74 11.46,-79.749 34.05,-104.089 22.67,-24.449 52.27,-36.851 87.94,-36.851 29.99,0 59.57,10.089 87.95,30" /><path
         id="path38"
         style="fill:#231f20;fill-opacity:1;fill-rule:nonzero;stroke:none"
         d="m 4785.36,1084.22 c 12.03,7.51 26.01,11.31 41.56,11.31 l 17.49,0 c 27.82,0 47.71,7.32 59.38,21.83 l 0,-100.5 -11.04,-4.07 c -8.4,-3.74 -19.76,-7.32 -33.77,-10.65 -13.89,-3.3 -26.14,-4.968 -36.42,-4.968 -16.65,0 -30.03,4.598 -39.76,13.668 -9.77,9.09 -14.52,20.71 -14.52,35.51 0,18.33 5.59,30.72 17.08,37.87 z m 150.45,-144.06 48.01,7.078 6.41,7.684 -18.72,65.868 0,185.81 c 0,39.76 -12.79,69.35 -37.98,87.94 -24.77,18.25 -58.19,27.51 -99.32,27.51 -42.17,0 -77.46,-10.88 -104.89,-32.33 l -1.28,-1 -2.36,-9.45 27.15,-39.94 9.95,-1.24 1.57,1.26 c 17.01,13.81 40.27,20.8 69.12,20.8 47.32,0 70.32,-21.09 70.32,-64.47 l 0,-31.5 c -6.81,-3.52 -16,-5.3 -27.34,-5.3 l -25.49,0 c -53.8,0 -93.03,-9.66 -116.61,-28.74 -24.36,-19.79 -36.71,-47.75 -36.71,-83.06 0,-38.25 11.64,-66.83 34.59,-84.932 22.62,-17.828 49.82,-26.878 80.86,-26.878 15.51,0 29.89,2.3 42.72,6.832 12.84,4.527 22.88,9.699 29.82,15.367 6.87,5.582 12.91,12.019 17.98,19.121 3.41,4.769 5.93,8.609 7.66,11.621 l 17.44,-43.313 7.1,-4.738" /><path
         id="path40"
         style="fill:#231f20;fill-opacity:1;fill-rule:nonzero;stroke:none"
         d="m 5103.08,954.711 c 9.97,-4.992 18.77,-8.422 26.13,-10.199 7.37,-1.774 14.97,-2.672 22.6,-2.672 l 7.78,0 6.09,6.082 8.63,49.449 -5.66,7.089 -5.19,0 c -7.37,0 -13.89,1.99 -19.94,6.1 -5.38,3.65 -8.11,11.04 -8.11,21.95 l 0,445.15 -7.01,5.61 -54.83,-7.84 -5.89,-7.08 0,-439.48 c 0,-18.66 3.24,-34.448 9.62,-46.96 6.52,-12.762 15.19,-21.91 25.78,-27.199" /><path
         id="path42"
         style="fill:#231f20;fill-opacity:1;fill-rule:nonzero;stroke:none"
         d="m 3542.75,358 c 0,-40.172 -11.37,-70.852 -33.79,-91.191 -22.53,-20.45 -52.95,-30.821 -90.43,-30.821 l -100.89,0 0,365.672 100.89,0 c 36.95,0 67.24,-10.719 90.03,-31.859 22.68,-21.102 34.19,-51.672 34.19,-90.879 l 0,-120.922 z m -124.22,311.379 -165.11,0 -6.42,-6.391 0,-488.308 6.41,-6.41 165.12,0 c 59.67,0 107.79,15.968 143.02,47.449 35.35,31.621 53.27,77.281 53.27,135.742 l 0,132.57 c 0,58.891 -18.04,105.039 -53.63,137.168 -35.46,31.973 -83.46,48.18 -142.66,48.18" /><path
         id="path44"
         style="fill:#231f20;fill-opacity:1;fill-rule:nonzero;stroke:none"
         d="m 3767.79,404.621 c 0,26.32 6.31,46.438 18.76,59.801 12.37,13.25 30.69,19.969 54.45,19.969 21.48,0 37.69,-4.86 48.16,-14.422 10.49,-9.617 15.58,-20.508 15.58,-33.297 0,-36.024 -23.23,-53.543 -71.02,-53.543 -24.26,0 -46.42,3.891 -65.93,11.562 l 0,9.93 z m 161.5,-142.91 -8.37,-2.391 -0.96,-1.629 c -14.28,-24.41 -38.92,-36.269 -75.32,-36.269 -23.83,0 -42.79,6.988 -56.35,20.789 -13.61,13.828 -20.5,34.16 -20.5,60.437 l -0.05,38.493 -0.95,7.089 c 5.06,-4.582 13.99,-9.742 27.11,-15.64 15.58,-7.059 34.61,-10.649 56.57,-10.649 36.86,0 67.16,9.559 90.06,28.399 23.13,19.082 34.86,47.14 34.86,83.422 0,30.25 -11,56.847 -32.68,79.058 -21.72,22.211 -55.2,33.469 -99.53,33.469 -42.77,0 -77.65,-11.93 -103.68,-35.457 -26.17,-23.641 -39.44,-56.691 -39.44,-98.211 l 0,-122.359 c 0,-42.543 13.18,-75.371 39.18,-97.563 25.78,-22.019 62.22,-33.187 108.32,-33.187 31.75,0 59.61,6.578 82.79,19.547 23.48,13.121 40,32.089 49.1,56.363 l 0.73,1.93 -3.95,7.918 -46.94,16.441" /><path
         id="path46"
         style="fill:#231f20;fill-opacity:1;fill-rule:nonzero;stroke:none"
         d="m 4223.12,367.211 c -17.91,6.129 -35.76,11.668 -53.09,16.469 -16.82,4.66 -31.4,11.289 -43.32,19.691 -11.16,7.879 -16.58,18.059 -16.58,31.117 0,15.543 5.92,27.391 18.08,36.231 12.46,9.07 29.29,13.672 50.04,13.672 19.82,0 39.27,-6.34 57.81,-18.852 l 1.2,-0.801 8.93,0 31.19,42.383 -2.56,8.957 -1.38,0.961 c -27.89,19.41 -60.4,29.25 -96.65,29.25 -36.75,0 -68.79,-9.48 -95.24,-28.168 -26.95,-19.07 -40.6,-47.211 -40.6,-83.633 0,-24.34 6.61,-44.707 19.65,-60.539 12.84,-15.629 28.56,-27.129 46.74,-34.187 17.57,-6.832 35.47,-12.891 53.21,-17.992 17.16,-4.93 31.91,-11.45 43.83,-19.411 11.1,-7.41 16.49,-16.847 16.49,-28.847 0,-35.063 -22.27,-52.09 -68.11,-52.09 -11.09,0 -24.46,2.488 -39.71,7.41 -15.11,4.879 -26.19,10.328 -32.96,16.188 l -1.58,1.378 -9.98,-1.25 -30.03,-41.859 1.36,-8.148 1.47,-1.141 c 29.85,-22.891 68.06,-34.488 113.61,-34.488 89.65,0 135.11,38.359 135.11,114 0,24.808 -6.62,45.308 -19.67,60.937 -12.89,15.391 -28.79,26.41 -47.26,32.762" /><path
         id="path48"
         style="fill:#231f20;fill-opacity:1;fill-rule:nonzero;stroke:none"
         d="m 4369.32,688.332 -6.42,-6.422 0,-64.379 6.42,-6.39 64.35,0 6.43,6.39 0,64.379 -6.42,6.422 -64.36,0" /><path
         id="path50"
         style="fill:#231f20;fill-opacity:1;fill-rule:nonzero;stroke:none"
         d="m 4373.17,533.609 -5.89,-7.089 0,-351.84 6.41,-6.41 54.9,0 6.41,6.41 0,361.14 -7.01,5.61 -54.82,-7.821" /><path
         id="path52"
         style="fill:#231f20;fill-opacity:1;fill-rule:nonzero;stroke:none"
         d="m 4736.56,403.891 c 0,-53.68 -26.56,-79.77 -81.22,-79.77 -52.7,0 -78.32,26.09 -78.32,79.77 0,26.25 7.01,46.437 20.81,60.007 13.82,13.59 33.16,20.493 57.51,20.493 54.66,0 81.22,-26.332 81.22,-80.5 z m 68.36,154.359 -81.6,-17.059 -71.63,0 c -43.78,0 -78.7,-12.082 -103.77,-35.91 -25.14,-23.883 -37.89,-57.992 -37.89,-101.39 0,-19.852 2.91,-38.262 8.64,-54.711 5.73,-16.481 12.25,-29.328 19.34,-38.192 7.04,-8.828 15.36,-16.5 24.72,-22.808 9.19,-6.231 15.64,-10.071 19.69,-11.719 -18.08,-14.262 -27.22,-34.07 -27.22,-59.039 0,-19.371 8.79,-36.402 26.12,-50.633 17.06,-14.008 40.73,-21.117 70.37,-21.117 l 45.16,0 c 13.97,0 24.58,-3.633 32.46,-11.082 7.83,-7.399 11.63,-15.801 11.63,-25.699 0,-13.0707 -6.26,-23.8402 -19.13,-32.9222 -13.19,-9.3282 -32.13,-14.0704 -56.27,-14.0704 -15.58,0 -29.82,1.4336 -42.3,4.2422 -12.38,2.8008 -21.91,5.9688 -28.32,9.4102 -6.37,3.3984 -11.9,7.3086 -16.46,11.6406 -6.18,5.8477 -7.5,7.9883 -7.76,8.5 l -3.09,6.2306 -8.78,2.527 -47.28,-21.2888 -2.56,-8.9688 0.79,-1.6328 C 4533.37,24.4102 4586.26,0 4666.99,0 c 38.14,0 71.49,9.19922 99.11,27.3516 28.24,18.5781 42.57,45.2773 42.57,79.3474 0,29.832 -9.8,54.383 -29.14,72.981 -19.28,18.519 -47.11,27.902 -82.68,27.902 l -45.16,0 c -12.38,0 -21.73,3.566 -28.6,10.887 -6.88,7.312 -10.37,17.742 -10.37,31.011 0,5.579 0.96,11.231 2.84,16.84 l 43.42,-3.371 c 44.29,0 79.84,12.832 105.65,38.141 25.83,25.32 38.92,59.422 38.92,101.351 0,19.879 -3.15,38.571 -9.38,55.539 -4.95,13.411 -11.76,23.918 -20.32,31.411 l 41.98,11.73 4.71,8.27 -7.94,43.73 -7.68,5.129" /><path
         id="path54"
         style="fill:#231f20;fill-opacity:1;fill-rule:nonzero;stroke:none"
         d="m 5140.18,511.738 c -22.68,22.922 -51.75,34.551 -86.41,34.551 -18.45,0 -35.05,-2.68 -49.35,-7.949 -14.41,-5.289 -25.67,-12.051 -33.45,-20.078 -7.62,-7.903 -12.95,-14.364 -16.27,-19.731 -0.9,-1.449 -1.74,-2.859 -2.51,-4.23 l -16.94,42.371 -7.12,4.726 -48.02,-7.066 -6.35,-7.641 18.67,-70.25 0,-281.761 6.42,-6.41 54.9,0 6.4,6.41 0,294.039 c 49.13,12.922 64.98,15.672 69.58,15.672 22,0 40.56,-6.582 55.13,-19.551 14.42,-12.86 21.73,-33.36 21.73,-60.949 l 0,-229.211 6.42,-6.41 54.9,0 6.4,6.41 0,240.859 c 0,40.91 -11.48,73.281 -34.13,96.199" /><path
         id="path56"
         style="fill:#231f20;fill-opacity:1;fill-rule:nonzero;stroke:none"
         d="m 1984.26,233.77 -1256.686,0 0,264.582 1256.686,0 c 200.59,0 363.79,163.187 363.79,363.777 0,104.691 -43.93,201.351 -120.97,270.301 51.16,74.79 88.15,160 106.92,251.79 172.85,-116.13 278.62,-312.5 278.62,-522.091 0,-346.469 -281.89,-628.359 -628.36,-628.359 z m -696.31,926 C 1271.44,1011.16 1145.08,895.199 992.137,895.199 l -264.563,0 0,264.571 560.376,0 z m -891.091,-595.301 0,926.001 595.278,0 c 152.943,0 279.303,-115.96 295.813,-264.56 l -626.524,0 0,-396.84 330.711,0 c 200.593,0 363.783,163.168 363.783,363.76 0,200.59 -163.19,363.79 -363.783,363.79 l -661.426,0 0,-661.421 -264.5626,0 0,925.971 925.9886,0 c 346.483,0 628.363,-281.87 628.363,-628.34 0,-346.471 -281.88,-628.361 -628.363,-628.361 l -595.278,0 z M 1949.25,1490.47 c -15.35,-138.02 -125.37,-247.82 -263.51,-262.75 -4.66,93.63 -27.99,182.41 -66.26,262.75 l 329.77,0 z m -366.09,66.15 c -70.63,114.33 -173.28,206.81 -295.59,264.55 l 365.99,0 c 152.92,0 279.16,-115.97 295.69,-264.55 l -366.09,0 z m 604.05,-476.95 c 60.46,-56.17 94.71,-133.779 94.71,-217.541 0,-164.129 -133.53,-297.66 -297.66,-297.66 l -696.73,0 c 122.37,57.761 225.25,150.191 295.9,264.601 l 70.13,0 c 214.28,0 406.15,97.59 533.65,250.6 z m -1790.351,1072.21 1256.701,0 c 346.47,0 628.36,-281.87 628.36,-628.33 0,-346.47 -281.89,-628.351 -628.36,-628.351 l -34.08,0 c 38.74,81.321 62.1,171.311 66.35,266.201 185.5,16.41 331.49,172.45 331.49,362.15 0,200.58 -163.17,363.77 -363.76,363.77 l -1256.701,0 0,264.56 z m 1947.811,-696.4 c 2.19,22.41 3.38,45.1 3.38,68.07 0,382.93 -311.54,694.48 -694.49,694.48 l -1322.849,0 0,-330.71 -330.711,0 0,-1058.25 330.711,0 0,-330.718 330.715,0 0,-330.704 1322.834,0 c 382.95,0 694.49,311.532 694.49,694.481 0,241.961 -127.75,467.721 -334.08,593.351" /></g></g></svg>