<?xml version="1.0" encoding="utf-8"?>
<!-- Generator: Adobe Illustrator 16.0.0, SVG Export Plug-In . SVG Version: 6.00 Build 0)  -->
<!DOCTYPE svg PUBLIC "-//W3C//DTD SVG 1.1//EN" "http://www.w3.org/Graphics/SVG/1.1/DTD/svg11.dtd">
<svg version="1.1" id="Capa_1" xmlns="http://www.w3.org/2000/svg" xmlns:xlink="http://www.w3.org/1999/xlink" x="0px" y="0px"
	 width="459.2px" height="168px" viewBox="69.8 61.9 459.2 168" enable-background="new 69.8 61.9 459.2 168" xml:space="preserve">
<g>
	<defs>
		<rect id="SVGID_1_" x="0" y="0" width="600.5" height="290.9"/>
	</defs>
	<clipPath id="SVGID_2_">
		<use xlink:href="#SVGID_1_"  overflow="visible"/>
	</clipPath>
	<path clip-path="url(#SVGID_2_)" fill="#000000" d="M374.6,126.8c-7.7,0-14.8,2.2-20.9,6l-19.5-3.8v46v9.6v46.1h21.5v-29.9
		c5.2,2.9,11.1,4.6,17.4,4.9c22.5,0.9,41-17.1,41-39.5C414.1,144.4,396.5,126.8,374.6,126.8 M394.9,168.6c-1,9.3-8.6,16.9-17.9,17.9
		c-11.5,1.3-21.3-7-22.6-18V164c1.1-10.2,9.8-18.1,20.2-18.1C386.6,145.9,396.2,156.3,394.9,168.6"/>
</g>
<g>
	<defs>
		<rect id="SVGID_3_" x="0" y="0" width="600.5" height="290.9"/>
	</defs>
	<clipPath id="SVGID_4_">
		<use xlink:href="#SVGID_3_"  overflow="visible"/>
	</clipPath>
	<rect x="425.7" y="128.9" clip-path="url(#SVGID_4_)" fill="#000000" width="21.5" height="73.5"/>
</g>
<g>
	<defs>
		<rect id="SVGID_5_" x="0" y="0" width="600.5" height="290.9"/>
	</defs>
	<clipPath id="SVGID_6_">
		<use xlink:href="#SVGID_5_"  overflow="visible"/>
	</clipPath>
	<path clip-path="url(#SVGID_6_)" fill="#000000" d="M284.8,126.8c-22.3,0-40.3,18.5-39.5,41.1c0.8,20.5,17.5,37.2,38,37.9
		c13.5,0.5,25.5-5.8,33-15.7l-15.8-10.9c-3.7,4.5-9.4,7.4-15.7,7.4c-9.4,0-17.3-6.4-19.6-15h55.9c0.2-1.7,0.4-3.5,0.4-5.3
		C321.4,144.4,307.8,126.8,284.8,126.8 M265.3,157.5c0.8-6.2,9.4-14,19.8-14c10.1,0,16.8,9.1,16.8,14H265.3z"/>
</g>
<rect x="0" y="0" fill="none" width="600.5" height="290.9"/>
<path fill="#000000" d="M498.8,185c-0.2,0-0.3,0-0.5,0l0,0l0,0l0,0c-10.4,0-18.9-8.5-18.9-19s8.5-18.9,18.9-19l0,0l0,0l0,0
	c0.2,0,0.3,0,0.5,0c6.8,0.2,12.8,3.2,16.5,7.8l13.7-13.6c-7.6-9.5-19.5-15.3-32.8-14.7c-19.7,1-35.9,16.7-37.4,36.4
	c-1.7,23.2,16.6,42.5,39.4,42.5c12.3,0,23.3-5.6,30.5-14.4L515,177.3C511.4,181.9,505.5,184.8,498.8,185"/>
<g>
	<defs>
		<rect id="SVGID_7_" x="0" y="0" width="600.5" height="290.9"/>
	</defs>
	<clipPath id="SVGID_8_">
		<use xlink:href="#SVGID_7_"  overflow="visible"/>
	</clipPath>
	<polygon clip-path="url(#SVGID_8_)" fill="#000000" points="209.5,124.7 174.6,103.9 174.6,62.4 69.8,124.7 69.8,207.8 
		104.7,228.6 139.7,207.8 104.7,187 104.7,145.5 139.7,166.3 174.6,145.5 174.6,187 139.7,207.8 174.6,228.6 209.5,207.8 
		209.5,166.3 209.5,143.1 	"/>
</g>
<g>
	<defs>
		<rect id="SVGID_9_" x="0" y="0" width="600.5" height="290.9"/>
	</defs>
	<clipPath id="SVGID_10_">
		<use xlink:href="#SVGID_9_"  overflow="visible"/>
	</clipPath>
	<path clip-path="url(#SVGID_10_)" fill="#000000" d="M437.9,95.9c-8.3-1-15.2,5.9-14.2,14.2c0.7,5.6,5.3,10.2,10.9,10.9
		c8.3,1,15.2-5.9,14.2-14.2C448.1,101.1,443.5,96.6,437.9,95.9"/>
</g>
</svg>
