<?xml version="1.0" encoding="utf-8"?>
<!-- Generator: Adobe Illustrator 16.0.0, SVG Export Plug-In . SVG Version: 6.00 Build 0)  -->
<!DOCTYPE svg PUBLIC "-//W3C//DTD SVG 1.1//EN" "http://www.w3.org/Graphics/SVG/1.1/DTD/svg11.dtd">
<svg version="1.1" id="logo-horizontal-black" xmlns="http://www.w3.org/2000/svg" xmlns:xlink="http://www.w3.org/1999/xlink"
	 x="0px" y="0px" width="350px" height="75.842px" viewBox="0 0 350 75.842" enable-background="new 0 0 350 75.842"
	 xml:space="preserve">
<g>
	<g>
		<g>
			<polygon points="82.191,12.838 82.191,29.555 98.327,29.555 98.327,12.838 108.1,12.838 108.1,56.176 98.327,56.176 
				98.327,38.104 82.191,38.104 82.191,56.176 72.418,56.176 72.418,12.838 			"/>
			<path d="M128.106,49.874c3.86,0,6.239-3.795,6.239-9.453c0-4.632-1.805-9.387-6.239-9.387c-4.629,0-6.427,4.755-6.427,9.454
				c0,5.334,2.25,9.387,6.363,9.387H128.106z M127.916,56.878c-9.194,0-16.267-6.041-16.267-16.197
				c0-10.159,6.687-16.653,16.843-16.653c9.58,0,16.01,6.62,16.01,16.138c0,11.439-8.163,16.712-16.524,16.712H127.916z"/>
			<path d="M164.237,49.874c3.86,0,6.239-3.795,6.239-9.453c0-4.632-1.805-9.387-6.239-9.387c-4.629,0-6.427,4.755-6.427,9.454
				c0,5.334,2.248,9.387,6.365,9.387H164.237z M164.044,56.878c-9.194,0-16.263-6.041-16.263-16.197
				c0-10.159,6.686-16.653,16.844-16.653c9.58,0,16.009,6.62,16.009,16.138c0,11.439-8.167,16.712-16.525,16.712H164.044z"/>
			<path d="M184.205,31.934v12.923c0,4.436,0.902,7.458,2.702,9.317c1.605,1.612,4.241,2.703,7.392,2.703
				c2.7,0,5.077-0.386,6.301-0.836l-0.066-7.394c-0.897,0.195-1.541,0.259-2.891,0.259c-2.892,0-3.857-1.737-3.857-5.531V31.934
				h7.01v-7.201h-7.01v-6.081l-0.037,0.021v-3.467c-5.266,0-9.536,4.257-9.536,9.527h-0.007V31.934z"/>
			<path d="M284.3,31.934v12.923c0,4.436,0.902,7.458,2.701,9.317c1.606,1.612,4.24,2.703,7.391,2.703
				c2.701,0,5.08-0.386,6.304-0.836l-0.066-7.394c-0.898,0.195-1.543,0.259-2.894,0.259c-2.891,0-3.855-1.737-3.855-5.531V31.934
				h7.008v-7.201h-7.008v-6.081l-0.037,0.021v-3.467c-5.265,0-9.536,4.257-9.536,9.527H284.3V31.934z"/>
			<path d="M205.937,47.684c1.8,1.093,5.527,2.314,8.425,2.314c2.955,0,4.177-0.964,4.177-2.569c0-1.674-0.965-2.445-4.564-3.667
				c-6.559-2.117-9.068-5.722-9.002-9.385c0-5.915,5.013-10.351,12.795-10.351c3.665,0,6.877,0.9,8.806,1.864l-1.669,6.687
				c-1.417-0.707-4.182-1.736-6.817-1.736c-2.377,0-3.725,0.962-3.725,2.505c0,1.542,1.22,2.317,5.077,3.669
				c5.977,1.988,8.422,5.072,8.486,9.64c0,5.915-4.564,10.223-13.563,10.223c-4.117,0-7.782-0.965-10.161-2.25L205.937,47.684z"/>
			<path d="M261.236,46.079c0,4.114,0.134,7.455,0.26,10.094h-8.486l-0.45-4.437h-0.193c-1.222,1.929-4.177,5.142-9.835,5.142
				c-6.432,0-11.061-3.984-11.061-13.694V24.733h9.772v16.912c0,4.563,1.481,7.323,4.951,7.323c2.698,0,4.306-1.862,4.884-3.408
				c0.26-0.576,0.386-1.281,0.386-2.119V24.733h9.772V46.079z"/>
			<rect x="267.923" y="24.735" width="9.775" height="31.44"/>
			<path d="M272.748,20.618c-3.279,0-5.401-2.315-5.401-5.208c0-2.96,2.187-5.208,5.527-5.208c3.344,0,5.403,2.248,5.465,5.208
				c0,2.893-2.121,5.208-5.529,5.208H272.748z"/>
			<path d="M324.709,36.818c0-2.313-1.028-6.366-5.467-6.366c-4.177,0-5.849,3.793-6.105,6.366H324.709z M313.2,43.505
				c0.322,4.117,4.306,6.043,8.873,6.043c3.343,0,6.044-0.447,8.68-1.348l1.288,6.623c-3.22,1.35-7.142,1.99-11.385,1.99
				c-10.671,0-16.778-6.17-16.778-16.073c0-7.973,5.013-16.781,15.883-16.781c10.156,0,14.012,7.913,14.012,15.69
				c0,1.667-0.192,3.15-0.319,3.92L313.2,43.505z"/>
		</g>
		<g>
			<path d="M341.859,24.681v0.931h-2.227v6.334h-1.096v-6.334h-2.209v-0.931H341.859z M348.887,31.947l-0.292-4.381
				c-0.037-0.566,0-1.26-0.021-1.972h-0.053c-0.184,0.675-0.402,1.442-0.62,2.081l-1.516,4.18h-0.841l-1.479-4.289
				c-0.182-0.584-0.362-1.296-0.528-1.972h-0.055c-0.019,0.694,0,1.315-0.037,1.972l-0.273,4.381h-1.059l0.565-7.266h1.442
				l1.423,3.941c0.184,0.549,0.331,1.15,0.51,1.827h0.039c0.163-0.676,0.329-1.314,0.51-1.843l1.424-3.925h1.424L350,31.947H348.887
				z"/>
		</g>
	</g>
	<g>
		<path d="M37.919,3.41C34.213,1.258,29.917,0.015,25.328,0c-4.644-0.011-8.995,1.234-12.74,3.41C8.88,1.278,4.583,0.057,0,0.069
			v25.258c-0.078,27.911,22.621,50.435,50.505,50.515V25.327V0.069C45.924,0.057,41.628,1.278,37.919,3.41z"/>
		<g>
			<path fill="#FFFFFF" d="M36.128,9.202c-5.653-0.016-10.305,4.31-10.809,9.837l-0.048-0.067l-0.047,0.067
				c-0.474-5.531-5.1-9.883-10.755-9.899C8.487,9.122,3.626,13.959,3.61,19.939c-0.019,5.984,4.815,10.846,10.797,10.862
				c2.127,0.007,4.108-0.609,5.784-1.666l5.036,5.064l5.065-5.035c1.672,1.064,3.646,1.691,5.774,1.698
				c5.984,0.019,10.845-4.819,10.864-10.799C46.946,14.083,42.113,9.218,36.128,9.202z M14.416,27.192
				c-3.986-0.012-7.212-3.253-7.2-7.24c0.01-3.989,3.257-7.213,7.243-7.201c0.743,0.002,1.458,0.116,2.133,0.327
				c-1.258,0.561-2.138,1.814-2.143,3.283c-0.005,1.993,1.604,3.615,3.597,3.621c1.466,0.003,2.727-0.87,3.296-2.126
				c0.206,0.675,0.317,1.393,0.314,2.137C21.646,23.98,18.404,27.205,14.416,27.192z M36.078,27.253
				c-3.988-0.01-7.212-3.252-7.201-7.241c0.002-0.742,0.117-1.46,0.329-2.133c0.56,1.257,1.816,2.139,3.284,2.144
				c1.993,0.006,3.614-1.605,3.618-3.598c0.004-1.467-0.87-2.727-2.126-3.295c0.675-0.208,1.394-0.318,2.138-0.316
				c3.986,0.012,7.213,3.253,7.201,7.241C43.307,24.043,40.064,27.266,36.078,27.253z"/>
		</g>
	</g>
</g>
</svg>
