<?xml version="1.0" encoding="utf-8"?>
<!-- Generator: Adobe Illustrator 16.0.0, SVG Export Plug-In . SVG Version: 6.00 Build 0)  -->
<!DOCTYPE svg PUBLIC "-//W3C//DTD SVG 1.1//EN" "http://www.w3.org/Graphics/SVG/1.1/DTD/svg11.dtd">
<svg version="1.1" id="Capa_1" xmlns:sketch="http://www.bohemiancoding.com/sketch/ns"
	 xmlns="http://www.w3.org/2000/svg" xmlns:xlink="http://www.w3.org/1999/xlink" x="0px" y="0px" width="236.949px"
	 height="120.191px" viewBox="0 0 236.949 120.191" enable-background="new 0 0 236.949 120.191" xml:space="preserve">
<title>HV-Black</title>
<desc>Created with Sketch.</desc>
<g id="Desktop" sketch:type="MSPage">
	<g id="HV-Black" sketch:type="MSArtboardGroup">
		<g id="Page-1" transform="translate(43.000000, 19.000000)" sketch:type="MSLayerGroup">
			<g id="Group-15" transform="translate(85.000000, 0.000000)" sketch:type="MSShapeGroup">
				<path id="Stroke-1" fill="none" stroke="#2F3133" d="M22.675,13.356c0,17.871-14.485,32.357-32.355,32.357
					c-17.869,0-32.359-14.486-32.359-32.357C-42.04-4.514-27.55-19-9.681-19C8.189-19,22.675-4.514,22.675,13.356L22.675,13.356z"/>
				<path id="Fill-3" fill="#2F3133" d="M-13.8,28.228c0.16-0.004,0.375-0.107,0.479-0.231l3.44-4.177
					c0.104-0.124,0.09-0.193-0.026-0.153s-0.304,0.169-0.416,0.285l-3.903,4.077c-0.111,0.116-0.07,0.209,0.092,0.204L-13.8,28.228z
					"/>
				<path id="Fill-5" fill="#2F3133" d="M6.104,6.553c-0.646,0.474-1.428,1.47-1.729,2.213l-2.397,5.846
					c-0.303,0.743-1.1,1.717-1.766,2.166l-9.27,6.227c-0.666,0.448-0.61,0.544,0.121,0.212l11.979-5.42
					C3.776,17.466,4.655,16.6,5,15.874l5.513-11.673c0.344-0.728,0.094-0.934-0.554-0.461L6.104,6.553z"/>
				<path id="Fill-7" fill="#2F3133" d="M1.934,6.35c-0.67,0.446-1.371,1.451-1.563,2.231l-1.45,5.906
					c-0.193,0.78-0.832,1.865-1.422,2.41l-6.457,5.971c-0.589,0.546-0.543,0.602,0.102,0.123l8.734-6.456
					c0.646-0.478,1.393-1.49,1.657-2.248L4.55,5.653c0.266-0.759-0.062-1.013-0.73-0.567L1.934,6.35z"/>
				<path id="Fill-9" fill="#2F3133" d="M-5.562,28.228c-0.162-0.004-0.375-0.107-0.479-0.231l-3.443-4.177
					c-0.103-0.124-0.09-0.193,0.027-0.153c0.118,0.04,0.305,0.169,0.415,0.285l3.903,4.077c0.111,0.116,0.072,0.209-0.088,0.204
					L-5.562,28.228z"/>
				<path id="Fill-11" fill="#2F3133" d="M-25.468,6.553c0.648,0.474,1.428,1.47,1.732,2.213l2.395,5.846
					c0.304,0.743,1.101,1.717,1.769,2.166l9.267,6.227c0.666,0.448,0.613,0.544-0.119,0.212l-11.981-5.42
					c-0.733-0.331-1.612-1.197-1.956-1.923l-5.512-11.673c-0.346-0.728-0.094-0.934,0.553-0.461L-25.468,6.553z"/>
				<path id="Fill-13" fill="#2F3133" d="M-21.296,6.35c0.668,0.447,1.369,1.451,1.562,2.232l1.455,5.905
					c0.188,0.78,0.83,1.865,1.42,2.41l6.455,5.972c0.589,0.545,0.545,0.601-0.104,0.123l-8.729-6.457
					c-0.649-0.477-1.394-1.489-1.657-2.248l-3.018-8.634c-0.264-0.758,0.064-1.013,0.73-0.566L-21.296,6.35z"/>
			</g>
			<path id="Hinderling-" sketch:type="MSShapeGroup" fill="#2F3133" d="M-39.836,53.694H-43v19.599h3.164v-8.371h10.584v8.371
				h3.163V53.694h-3.163v8.232h-10.584V53.694z M-18.212,59.881h-2.94v13.412h2.94V59.881z M-19.697,53.176
				c-1.162,0-2.044,0.909-2.044,2.071s0.882,2.044,2.044,2.044s2.072-0.882,2.072-2.044S-18.534,53.176-19.697,53.176
				L-19.697,53.176z M-6.613,59.532c-1.372,0-3.038,0.406-4.116,1.988v-1.638h-2.912v13.412h2.94v-7.434
				c0-2.297,1.582-3.543,3.472-3.543c1.96,0,3.122,1.262,3.122,3.516v7.461h2.94v-8.428C-1.166,61.729-3.42,59.532-6.613,59.532
				L-6.613,59.532z M9.006,59.532c-3.752,0-6.706,2.953-6.706,7.056c0,4.102,2.954,7.055,6.706,7.055c1.903,0,3.29-0.77,4.214-1.959
				v1.609h2.926v-20.16h-2.926v8.373C12.296,60.315,10.909,59.532,9.006,59.532L9.006,59.532z M9.355,62.289
				c2.422,0,4.046,1.848,4.046,4.299c0,2.449-1.624,4.297-4.046,4.297c-2.52,0-4.046-1.945-4.046-4.297
				C5.309,64.234,6.836,62.289,9.355,62.289L9.355,62.289z M26.429,59.532c-3.948,0-6.678,2.855-6.678,7.056
				c0,4.256,2.842,7.055,6.859,7.055c2.03,0,3.878-0.49,5.517-1.889l-1.456-2.086c-1.106,0.881-2.534,1.414-3.878,1.414
				c-1.904,0-3.599-1.008-3.99-3.416h9.912c0.027-0.336,0.056-0.715,0.056-1.092C32.758,62.387,30.181,59.532,26.429,59.532
				L26.429,59.532z M26.374,62.135c1.861,0,3.079,1.219,3.401,3.305h-6.958C23.126,63.479,24.288,62.135,26.374,62.135
				L26.374,62.135z M43.168,59.532c-1.639,0-3.011,0.588-3.893,1.861v-1.512h-2.897v13.412h2.926v-7.377c0-2.283,1.33-3.6,3.192-3.6
				c0.714,0,1.609,0.168,2.226,0.49l0.7-2.897C44.75,59.643,44.063,59.532,43.168,59.532L43.168,59.532z M51.323,53.133h-2.939
				v20.16h2.939V53.133z M58.836,59.881h-2.94v13.412h2.94V59.881z M57.351,53.176c-1.162,0-2.044,0.909-2.044,2.071
				s0.882,2.044,2.044,2.044s2.072-0.882,2.072-2.044S58.513,53.176,57.351,53.176L57.351,53.176z M70.435,59.532
				c-1.372,0-3.038,0.406-4.116,1.988v-1.638h-2.912v13.412h2.94v-7.434c0-2.297,1.582-3.543,3.472-3.543
				c1.96,0,3.122,1.262,3.122,3.516v7.461h2.94v-8.428C75.882,61.729,73.628,59.532,70.435,59.532L70.435,59.532z M85.563,59.532
				c-3.065,0-6.216,2.576-6.216,6.916s3.15,6.916,6.216,6.916c1.946,0,3.458-0.672,4.466-1.961v1.078
				c0,2.492-1.512,4.004-4.256,4.004c-1.638,0-3.191-0.531-4.55-1.357l-1.064,2.479c1.414,1.008,3.612,1.555,5.614,1.555
				c4.48,0,7.196-2.592,7.196-6.805V59.881h-2.94v1.61C89.021,60.217,87.51,59.532,85.563,59.532L85.563,59.532z M86.319,62.289
				c2.366,0,3.962,1.807,3.962,4.158s-1.596,4.158-3.962,4.158c-2.478,0-3.962-1.904-3.962-4.158
				C82.357,64.18,83.842,62.289,86.319,62.289L86.319,62.289z"/>
			<path id="Volkart" sketch:type="MSShapeGroup" fill="#2F3133" d="M115.815,53.694h-3.275l-6.146,16.394l-6.104-16.394h-3.374
				l7.476,19.599h3.948L115.815,53.694z M121.416,59.532c-4.145,0-7.21,3.037-7.21,7.056c0,4.018,3.065,7.055,7.21,7.055
				c4.144,0,7.224-3.037,7.224-7.055C128.639,62.568,125.559,59.532,121.416,59.532L121.416,59.532z M121.416,62.289
				c2.394,0,4.214,1.764,4.214,4.299c0,2.533-1.82,4.297-4.214,4.297c-2.395,0-4.2-1.764-4.2-4.297
				C117.216,64.053,119.021,62.289,121.416,62.289L121.416,62.289z M135.206,53.133h-2.94v20.16h2.94V53.133z M142.737,53.133
				h-2.939v20.16h2.939v-5.656h1.456l4.466,5.656h3.71l-5.67-7.098l5.614-6.314h-3.682l-4.424,5.095h-1.471V53.133z M166.761,59.881
				h-2.926v1.625c-0.925-1.191-2.311-1.974-4.214-1.974c-3.753,0-6.706,2.953-6.706,7.056c0,4.102,2.953,7.055,6.706,7.055
				c1.903,0,3.289-0.77,4.214-1.959v1.609h2.926V59.881z M159.971,62.289c2.422,0,4.046,1.848,4.046,4.299
				c0,2.449-1.624,4.297-4.046,4.297c-2.521,0-4.046-1.945-4.046-4.297C155.926,64.234,157.451,62.289,159.971,62.289
				L159.971,62.289z M178.143,59.532c-1.638,0-3.01,0.588-3.892,1.861v-1.512h-2.898v13.412h2.926v-7.377
				c0-2.283,1.33-3.6,3.192-3.6c0.714,0,1.61,0.168,2.226,0.49l0.7-2.897C179.725,59.643,179.04,59.532,178.143,59.532
				L178.143,59.532z M193.095,59.881h-5.138v-4.06h-2.94v4.06h-2.674v2.66h2.674v5.895c0,3.57,1.778,5.207,4.816,5.207
				c1.68,0,3.038-0.602,4.115-1.33l-1.161-2.338c-0.799,0.504-1.793,0.91-2.702,0.91c-1.177,0-2.128-0.699-2.128-2.506v-5.838h5.138
				V59.881z"/>
			<path id="Digital-Excellence" sketch:type="MSShapeGroup" fill="#2F3133" d="M24.178,90.32v8.398h3.065
				c2.797,0,4.542-1.619,4.542-4.199s-1.745-4.199-4.542-4.199H24.178z M27.244,91.016c2.442,0,3.774,1.367,3.774,3.504
				c0,2.129-1.332,3.504-3.774,3.504H24.91v-7.008H27.244z M34.333,93.074h-0.685v5.645h0.685V93.074z M33.99,90.547
				c-0.275,0-0.485,0.223-0.485,0.498c0,0.277,0.21,0.486,0.485,0.486c0.276,0,0.492-0.209,0.492-0.486
				C34.482,90.77,34.266,90.547,33.99,90.547L33.99,90.547z M38.883,92.982c-1.59,0-2.802,1.195-2.802,2.881
				c0,1.691,1.212,2.887,2.802,2.887c1.014,0,1.764-0.469,2.202-1.189v0.805c0,1.477-1.015,2.201-2.28,2.201
				c-0.792,0-1.494-0.27-2.028-0.689l-0.348,0.498c0.558,0.51,1.446,0.816,2.376,0.816c1.662,0,2.964-0.979,2.964-2.855v-5.262
				h-0.684v1.104C40.646,93.457,39.896,92.982,38.883,92.982L38.883,92.982z M38.955,93.625c1.266,0,2.184,0.967,2.184,2.238
				c0,1.277-0.918,2.244-2.184,2.244c-1.284,0-2.179-0.984-2.179-2.244C36.776,94.615,37.671,93.625,38.955,93.625L38.955,93.625z
				 M44.65,93.074h-0.684v5.645h0.684V93.074z M44.308,90.547c-0.276,0-0.486,0.223-0.486,0.498c0,0.277,0.21,0.486,0.486,0.486
				s0.492-0.209,0.492-0.486C44.801,90.77,44.585,90.547,44.308,90.547L44.308,90.547z M50.671,93.074h-2.604V91.23h-0.684v1.844
				h-1.296v0.623h1.296v3.09c0,1.369,0.708,2.021,1.884,2.021c0.678,0,1.236-0.227,1.638-0.563l-0.323-0.51
				c-0.33,0.264-0.774,0.432-1.261,0.432c-0.75,0-1.254-0.439-1.254-1.393v-3.078h2.604V93.074z M57.519,93.074h-0.678v1.086
				c-0.456-0.703-1.212-1.178-2.238-1.178c-1.584,0-2.819,1.236-2.819,2.916c0,1.682,1.235,2.91,2.819,2.91
				c1.026,0,1.782-0.467,2.238-1.176v1.086h0.678V93.074z M54.681,93.625c1.278,0,2.196,0.979,2.196,2.273
				c0,1.297-0.918,2.27-2.196,2.27c-1.284,0-2.202-0.996-2.202-2.27C52.479,94.621,53.385,93.625,54.681,93.625L54.681,93.625z
				 M60.401,90.08h-0.684v8.639h0.684V90.08z M71.746,98.029h-5.053v-3.197h4.866v-0.686h-4.866V91.01h5.011V90.32h-5.742v8.398
				h5.784V98.029z M78.515,93.074h-0.81l-1.902,2.291l-1.896-2.291h-0.841l2.274,2.76l-2.352,2.885h0.804l1.974-2.387l1.986,2.387
				h0.84l-2.352-2.891L78.515,93.074z M81.943,92.982c-1.697,0-2.892,1.256-2.892,2.916c0,1.662,1.194,2.91,2.892,2.91
				c0.834,0,1.572-0.311,2.082-0.875l-0.426-0.469c-0.426,0.42-1.008,0.703-1.674,0.703c-1.236,0-2.178-0.955-2.178-2.27
				c0-1.313,0.941-2.273,2.178-2.273c0.666,0,1.218,0.258,1.656,0.697l0.443-0.463C83.521,93.295,82.777,92.982,81.943,92.982
				L81.943,92.982z M87.832,92.982c-1.59,0-2.796,1.213-2.796,2.916c0,1.723,1.188,2.91,2.838,2.91c0.815,0,1.602-0.203,2.315-0.93
				l-0.365-0.467c-0.498,0.492-1.122,0.803-1.908,0.803c-1.158,0-2.082-0.756-2.185-2.07h4.734c0.006-0.084,0.012-0.18,0.012-0.281
				C90.46,94.178,89.338,92.982,87.832,92.982L87.832,92.982z M87.819,93.59c1.063,0,1.86,0.797,1.963,1.967h-4.038
				C85.876,94.412,86.674,93.59,87.819,93.59L87.819,93.59z M92.916,90.08h-0.685v8.639h0.685V90.08z M95.798,90.08h-0.684v8.639
				h0.684V90.08z M100.342,92.982c-1.59,0-2.796,1.213-2.796,2.916c0,1.723,1.188,2.91,2.838,2.91c0.816,0,1.602-0.203,2.316-0.93
				l-0.366-0.467c-0.498,0.492-1.122,0.803-1.908,0.803c-1.158,0-2.082-0.756-2.184-2.07h4.733c0.006-0.084,0.013-0.18,0.013-0.281
				C102.969,94.178,101.847,92.982,100.342,92.982L100.342,92.982z M100.33,93.59c1.062,0,1.859,0.797,1.962,1.967h-4.038
				C98.385,94.412,99.183,93.59,100.33,93.59L100.33,93.59z M107.435,92.982c-0.779,0-1.571,0.324-2.016,1.08v-0.988h-0.678v5.645
				h0.684v-3.215c0-1.111,0.828-1.873,1.89-1.873c1.152,0,1.813,0.697,1.813,1.836v3.252h0.684v-3.461
				C109.811,93.859,108.851,92.982,107.435,92.982L107.435,92.982z M114.391,92.982c-1.698,0-2.892,1.256-2.892,2.916
				c0,1.662,1.193,2.91,2.892,2.91c0.834,0,1.572-0.311,2.082-0.875l-0.426-0.469c-0.426,0.42-1.008,0.703-1.674,0.703
				c-1.236,0-2.178-0.955-2.178-2.27c0-1.313,0.941-2.273,2.178-2.273c0.666,0,1.218,0.258,1.656,0.697l0.443-0.463
				C115.969,93.295,115.225,92.982,114.391,92.982L114.391,92.982z M120.28,92.982c-1.591,0-2.797,1.213-2.797,2.916
				c0,1.723,1.188,2.91,2.839,2.91c0.815,0,1.602-0.203,2.315-0.93l-0.366-0.467c-0.498,0.492-1.122,0.803-1.907,0.803
				c-1.158,0-2.082-0.756-2.185-2.07h4.734c0.006-0.084,0.012-0.18,0.012-0.281C122.908,94.178,121.786,92.982,120.28,92.982
				L120.28,92.982z M120.267,93.59c1.063,0,1.86,0.797,1.962,1.967h-4.038C118.324,94.412,119.122,93.59,120.267,93.59
				L120.267,93.59z"/>
		</g>
	</g>
</g>
</svg>
