<?xml version="1.0" encoding="utf-8"?>
<!DOCTYPE svg PUBLIC "-//W3C//DTD SVG 1.1//EN" "http://www.w3.org/Graphics/SVG/1.1/DTD/svg11.dtd">
<svg version="1.1" id="Capa_1" xmlns="http://www.w3.org/2000/svg" xmlns:xlink="http://www.w3.org/1999/xlink" x="0px" y="0px"
	 width="276px" height="44.757px" viewBox="0 0 276 44.757" enable-background="new 0 0 276 44.757" xml:space="preserve">
<path fill="#000000" d="M32.449,34.127h-3.73V12.681c0-1.678,0.187-3.729,0.373-6.154c-0.373,1.492-0.746,2.425-0.932,3.171l-11.003,24.43h-1.865
	L4.476,9.884c-0.373-0.746-0.56-1.865-0.932-3.357C3.73,7.833,3.73,9.884,3.73,12.681v21.26H0V2.237h4.849l9.697,22.192
	c0.746,1.679,1.306,2.983,1.492,3.729h0.187c0.746-2.051,1.306-3.356,1.492-3.916L27.6,2.237h4.662v31.89H32.449 M43.265,3.171
	c0,0.745-0.186,1.305-0.746,1.678c-0.373,0.56-0.933,0.746-1.679,0.746c-0.746,0-1.305-0.187-1.678-0.746
	c-0.373-0.373-0.746-0.933-0.746-1.678c0-0.561,0.187-1.119,0.746-1.68c0.373-0.373,0.933-0.745,1.678-0.745
	c0.746,0,1.306,0.187,1.679,0.745C43.079,2.052,43.265,2.61,43.265,3.171 M42.706,34.127h-3.543V11.376h3.543V34.127 M64.151,33.009
	c-1.678,1.118-3.916,1.678-6.154,1.678c-2.051,0-3.916-0.56-5.594-1.492c-1.679-0.932-2.984-2.238-3.917-4.103
	c-0.932-1.679-1.305-3.729-1.305-5.968c0-3.729,1.119-6.713,3.17-8.951c2.238-2.238,5.035-3.357,8.578-3.357
	c2.051,0,3.73,0.373,5.222,1.119v3.73c-1.678-1.119-3.543-1.865-5.408-1.865c-2.424,0-4.289,0.746-5.781,2.424
	c-1.492,1.68-2.238,3.917-2.238,6.527c0,2.611,0.746,4.662,2.052,6.341c1.305,1.491,3.356,2.237,5.594,2.237
	c2.051,0,3.917-0.559,5.595-1.864L64.151,33.009 M80.189,15.105c-0.559-0.56-1.492-0.746-2.797-0.746
	c-1.679,0-2.984,0.746-3.917,2.237c-0.932,1.492-1.492,3.544-1.492,5.969v11.562H68.44V11.376h3.543v4.662
	c0.56-1.492,1.305-2.797,2.238-3.73c1.119-0.932,2.238-1.305,3.543-1.305c0.933,0,1.679,0.186,2.238,0.373L80.189,15.105
	 M102.94,22.565c0,3.543-0.932,6.526-2.984,8.764c-2.051,2.238-4.849,3.357-8.205,3.357c-3.357,0-5.968-1.119-8.019-3.17
	c-2.051-2.052-2.984-5.035-2.984-8.393c0-3.729,1.119-6.713,3.17-8.951s4.849-3.357,8.578-3.357c3.357,0,5.968,1.119,7.833,3.171
	C102.195,16.038,102.94,19.021,102.94,22.565 M99.211,22.751c0-2.797-0.56-5.035-1.865-6.527c-1.306-1.491-2.984-2.237-5.408-2.237
	s-4.103,0.746-5.595,2.425c-1.306,1.492-2.051,3.729-2.051,6.527c0,2.797,0.746,4.848,2.051,6.34
	c1.305,1.492,3.17,2.238,5.595,2.238s4.103-0.746,5.408-2.238C98.651,27.786,99.211,25.548,99.211,22.751 M119.724,27.974
	c0,2.051-0.746,3.543-2.238,4.848c-1.492,1.306-3.543,1.865-5.967,1.865c-2.051,0-4.103-0.373-5.595-1.306v-3.916
	c1.865,1.491,3.729,2.237,5.968,2.237c2.797,0,4.289-1.119,4.289-3.17c0-0.932-0.373-1.492-0.933-2.051
	c-0.56-0.561-1.865-1.306-3.916-2.238s-3.357-1.865-4.289-2.797c-0.746-0.933-1.306-2.238-1.306-3.916
	c0-1.865,0.746-3.357,2.238-4.662c1.492-1.307,3.357-1.865,5.781-1.865c1.865,0,3.356,0.373,4.849,1.119v3.729
	c-1.492-1.118-3.17-1.678-5.222-1.678c-1.119,0-2.238,0.373-2.984,0.933s-1.119,1.306-1.119,2.237c0,0.934,0.373,1.865,0.932,2.238
	c0.56,0.56,1.679,1.119,3.543,1.865c2.238,0.932,3.729,1.864,4.476,2.797C119.352,25.176,119.724,26.481,119.724,27.974
	 M144.527,22.565c0,3.543-0.933,6.526-2.984,8.764c-2.051,2.238-4.848,3.357-8.205,3.357s-5.968-1.119-8.019-3.17
	c-2.051-2.052-2.984-5.035-2.984-8.393c0-3.729,1.119-6.713,3.17-8.951s4.849-3.357,8.579-3.357c3.356,0,5.967,1.119,7.832,3.171
	S144.527,19.021,144.527,22.565 M140.797,22.751c0-2.797-0.559-5.035-1.864-6.527c-1.306-1.491-2.984-2.237-5.408-2.237
	s-4.103,0.746-5.595,2.425c-1.305,1.492-2.051,3.729-2.051,6.527c0,2.797,0.746,4.848,2.051,6.34s3.17,2.238,5.595,2.238
	s4.103-0.746,5.408-2.238S140.797,25.548,140.797,22.751 M159.26,3.729c-0.746-0.373-1.492-0.559-2.425-0.559
	c-2.61,0-3.729,1.678-3.729,4.848v3.543h5.408v3.171h-5.408v19.581h-3.543V14.546h-3.916v-3.17h3.916v-3.73
	c0-2.237,0.746-4.103,2.051-5.594C152.919,0.746,154.598,0,156.648,0c1.119,0,2.052,0.187,2.611,0.373V3.729"/>
<path fill="#000000" d="M171.567,33.94c-0.933,0.56-2.052,0.746-3.356,0.746c-3.916,0-5.968-2.238-5.968-6.713V14.546h-3.916v-3.17h3.916V5.78
	l3.544-1.118v6.714h5.78v3.17h-5.78v12.867c0,1.492,0.186,2.611,0.745,3.17c0.56,0.561,1.306,0.934,2.61,0.934
	c0.934,0,1.68-0.188,2.425-0.746V33.94 M201.965,34.127h-16.783V2.425h16.037v3.17H188.91v10.629h11.563v3.357H188.91v11.189h13.055
	V34.127 M225.463,34.127h-3.544v-3.916c-1.679,2.983-4.289,4.476-7.833,4.476c-2.797,0-5.221-1.119-6.899-3.17
	c-1.679-2.052-2.61-4.85-2.61-8.206c0-3.729,0.932-6.714,2.797-8.951s4.476-3.356,7.646-3.356c3.17,0,5.408,1.305,6.713,3.729V0.56
	h3.543L225.463,34.127 M221.919,23.87v-3.357c0-1.864-0.56-3.355-1.864-4.662c-1.307-1.305-2.798-1.864-4.477-1.864
	c-2.238,0-3.916,0.746-5.221,2.425c-1.307,1.678-1.865,3.916-1.865,6.713c0,2.611,0.559,4.662,1.865,6.154
	c1.118,1.492,2.797,2.238,4.848,2.238c2.052,0,3.543-0.746,4.85-2.238C221.173,27.974,221.919,26.108,221.919,23.87 M250.824,32.263
	c0,8.391-3.916,12.494-11.936,12.494c-2.797,0-5.221-0.56-7.272-1.492v-3.543c2.61,1.492,5.035,2.051,7.272,2.051
	c5.596,0,8.393-2.983,8.393-8.951v-2.424c-1.679,2.983-4.289,4.289-7.832,4.289c-1.865,0-3.544-0.373-4.85-1.306
	c-1.492-0.933-2.61-2.237-3.356-3.916s-1.118-3.729-1.118-5.968c0-3.916,0.932-6.9,2.797-9.138s4.476-3.356,7.646-3.356
	c2.983,0,5.408,1.305,6.714,3.729v-3.356h3.543V32.263 M247.281,23.87v-3.357c0-1.864-0.56-3.355-1.865-4.662
	c-1.305-1.305-2.797-1.864-4.476-1.864c-2.237,0-4.103,0.746-5.222,2.425c-1.305,1.678-1.865,3.916-1.865,6.899
	c0,2.425,0.561,4.476,1.865,5.968c1.119,1.492,2.797,2.238,4.85,2.238c2.051,0,3.729-0.746,5.034-2.238
	S247.281,26.108,247.281,23.87 M275.067,23.684h-16.038c0,2.61,0.746,4.476,2.052,5.781s3.171,2.052,5.408,2.052
	c2.61,0,4.849-0.746,7.087-2.425v3.356c-2.052,1.492-4.662,2.238-7.833,2.238s-5.78-1.119-7.646-3.17
	c-1.865-2.052-2.798-5.035-2.798-8.766c0-2.237,0.373-4.289,1.306-6.154c0.932-1.864,2.238-3.355,3.729-4.289
	c1.492-0.932,3.356-1.492,5.408-1.492c2.983,0,5.222,0.934,6.899,2.798c1.68,1.865,2.425,4.663,2.425,8.019V23.684 M271.338,20.514
	c0-2.052-0.56-3.729-1.492-4.849c-0.932-1.119-2.424-1.679-4.103-1.679s-3.171,0.56-4.289,1.864
	c-1.119,1.119-1.864,2.798-2.237,4.85h12.121V20.514"/>
</svg>
