<?xml version="1.0" encoding="utf-8"?>
<!-- Generator: Adobe Illustrator 15.0.0, SVG Export Plug-In . SVG Version: 6.00 Build 0)  -->
<!DOCTYPE svg PUBLIC "-//W3C//DTD SVG 1.1//EN" "http://www.w3.org/Graphics/SVG/1.1/DTD/svg11.dtd">
<svg version="1.1" id="Layer_1" xmlns="http://www.w3.org/2000/svg" xmlns:xlink="http://www.w3.org/1999/xlink" x="0px" y="0px"
	 width="232.5px" height="75.842px" viewBox="0 0 232.5 75.842" enable-background="new 0 0 232.5 75.842" xml:space="preserve">
<g id="logo-horizontal-black">
</g>
<g>
	<path fill="#1E1E1E" d="M231.142,54.815c-0.202,0-0.402-0.203-0.81-0.203c0,0-0.404,0-0.606,0.607c0,0.203-0.604,1.215-1.415,2.834
		c0,0,0,0.203-0.205,0.203c-1.82,3.238-5.262,8.096-9.716,7.893h-0.202c-0.809-0.201-1.415-0.809-1.415-1.82
		c0.203-1.217,0.403-2.631,1.012-3.846c3.238-5.467,6.681-10.93,9.918-16.396c1.011-1.822,1.822-3.643,2.63-5.667
		c0.407-1.214-0.404-2.629-1.819-3.237c-2.634-0.813-4.861-0.408-6.275,1.414c-1.822,2.431-3.441,6.074-5.062,8.705
		c-1.617,2.633-2.834,5.262-4.653,7.691c-2.431,3.238-5.061,6.477-7.896,9.512c-1.418,1.42-3.237,2.633-5.061,3.645
		c-1.619,0.809-3.44-0.809-3.845-3.238c-0.405-2.633-0.203-5.061,0.606-7.488c0.403-1.012,0.809-2.025,1.822-2.834
		c0.608-0.404,1.822-1.217,2.429-1.619c6.883-5.465,12.347-11.941,17.001-19.229c3.846-5.867,7.088-11.741,9.111-18.622
		c0.605-2.429,1.213-4.859,0.605-7.49c-0.605-3.237-2.227-4.859-5.871-4.453c-2.63,0.205-4.653,1.62-6.676,3.237
		c-3.848,3.242-7.087,7.087-9.72,11.134c-3.237,4.857-6.071,9.917-8.904,14.98c-2.834,5.264-5.261,10.728-7.285,16.597
		c-0.203,0.607-0.408,1.416-0.608,2.021c0,0.205-0.202,0.408-0.202,0.607c-0.406,0.811-1.823,3.443-3.442,5.67
		c-0.403,0.607-0.809,1.217-1.215,1.822c-0.604,0.809-1.212,1.617-2.022,2.428c-1.216,1.418-2.428,2.631-4.051,3.643
		c-1.416,1.014-2.83,1.621-4.451,1.822h-0.811c-0.608,0-1.011,0-1.618-0.201c-0.608,0-1.216-0.203-1.822-0.406
		c-1.822-0.404-3.643-1.012-5.667-1.418c-1.621-0.402-2.632-0.402-4.048-0.402h-1.619c-1.418,0-2.834,0.402-4.453,1.211
		c18.013-21.047,27.122-21.047,28.134-22.061c1.823-0.406,2.631-0.605,3.239-1.215c0.809-0.605,1.214-1.617,1.414-2.428
		c0.205-2.431-1.011-3.847-2.427-4.048h-0.607h-0.203c-1.416,0-3.035,0.606-3.643,0.811c-3.645,0.403-6.68,0.403-8.906,0.403
		c-4.454,0-6.681-0.403-9.107-0.403c-1.418,0-2.632,0-4.253,0.403c-0.2,0-0.403,0.203-0.808,0.203c0,0-5.872,0.608-8.501,7.692
		l-0.203,0.201c0,0.203-2.833,5.871-3.845,7.49c-2.227,3.846-4.451,6.881-6.274,8.906c-2.63,2.834-5.872,5.465-8.907,5.465
		c-0.403,0-0.81,0-1.213-0.203c-0.203,0-0.608-0.201-0.811-0.201c-1.013-0.406-0.811-2.432-0.606-3.037
		c0.201-0.809,0.403-1.621,0.809-2.432c2.632-4.855,5.464-9.51,8.098-14.369c1.414-2.428,2.83-4.857,4.045-7.489
		c0.408-1.013,0-2.429-1.01-2.834c-2.227-1.216-6.072-1.216-7.693,0.811c-1.213,1.621-2.226,3.237-3.237,5.06
		c-3.845,6.273-7.49,12.551-12.145,18.42c-1.822,2.227-3.642,4.25-6.274,5.264c-1.216,0.404-2.428,0.607-3.644-0.203
		c-1.214-0.811-1.418-1.822-1.214-3.035c0.203-1.215,0.607-2.432,1.011-3.643c1.822-4.859,4.857-9.109,7.692-13.361
		c1.012-1.619,2.227-3.238,3.238-4.857c1.215-2.023,0.607-4.249-1.416-5.06c-0.404-0.203-0.811-0.203-1.215-0.203
		c-2.428-0.608-4.654-0.203-5.869,2.024c-1.823,2.832-3.645,5.666-5.465,8.701c-1.619,2.432-2.833,5.266-4.453,7.492
		c-2.429,3.238-5.061,6.475-7.895,9.512c-1.822,2.225-4.047,4.049-6.68,5.262c-1.214,0.609-2.427,1.217-3.643,0.205
		c-1.215-0.811-1.215-2.227-1.011-3.441c0.607-2.631,0.808-5.264,1.82-7.691c2.43-6.072,5.264-11.943,7.895-18.018
		c1.619-3.843,3.442-7.69,4.857-11.736c1.011-2.834,0.407-5.872-1.62-8.298c-2.227-2.228-5.06-2.632-8.499-1.822
		c-4.657,1.214-8.907,3.642-12.551,6.678c-0.607,0.608-1.416,1.012-2.023,1.618c0-0.606,0.203-1.01,0.203-1.416
		c1.012-3.239,2.227-6.275,0.809-9.917c-0.607-1.621-1.416-3.037-3.035-4.048c-3.442-1.822-6.68-1.419-9.717-0.608
		c-5.061,1.417-9.107,4.454-12.752,7.894c-1.012,1.013-2.227,2.024-3.239,3.239c0.406-2.226,1.012-4.25,1.012-6.477
		c0-5.467-3.239-8.907-8.703-10.728c-4.25-1.216-8.5-1.011-12.752-0.205c-4.25,0.811-8.299,2.226-11.941,4.658
		c-2.43,1.618-4.657,3.442-5.869,6.474c-0.608,1.622-0.608,3.442,0,5.264c0.808,2.226,3.238,3.44,5.666,1.62
		c2.834-1.823,5.264-4.048,8.098-6.073c4.25-3.237,8.5-6.07,14.168-6.478c1.823-0.203,3.441,0.608,4.049,2.43
		c0.2,0.811,0.404,2.023,0,2.834c-0.608,2.024-1.216,4.05-2.227,5.87c-2.634,4.656-5.465,9.109-8.502,13.763
		c-3.847,5.871-8.096,11.741-11.941,17.61c-2.834,4.252-5.465,8.703-7.895,12.953c-1.215,2.025-2.024,4.252-1.62,6.682
		c0.404,3.441,5.062,5.26,7.288,4.25c2.227-1.014,3.441-2.834,4.654-4.652c2.227-3.852,4.453-7.695,6.679-11.541
		c5.668-10.324,11.944-20.241,19.229-29.348c3.644-4.656,7.691-8.907,12.55-12.347c2.227-1.417,4.453-2.631,7.286-2.836
		c1.014-0.2,1.822,0.406,2.025,1.42c0.202,1.211,0.607,2.63,0.202,3.844c-0.809,2.631-1.82,5.263-3.239,7.693
		c-5.06,8.704-10.323,17.406-15.382,26.109c-2.227,3.645-4.25,7.691-6.072,11.535c-1.012,2.027,0,4.861,2.227,5.873
		c2.429,1.215,5.264,1.215,6.476-1.215c4.453-8.703,9.109-17.406,13.764-25.908c3.645-6.884,8.502-12.955,15.182-17.408
		c2.429-1.621,4.857-2.832,7.895-3.44c1.619-0.408,2.832,0.403,2.631,2.023c0,1.011-0.204,2.022-0.811,2.833
		c-2.024,3.848-4.251,7.49-6.273,11.333c-3.441,5.872-7.084,11.741-8.907,18.627c-0.81,3.033-1.418,6.271-0.203,9.713
		c2.226,6.072,8.703,10.525,15.383,7.287c3.644-1.822,6.274-4.453,8.705-7.49c0.604-0.809,1.416-1.619,2.023-2.428
		c0,0.607,0.204,0.809,0.204,1.012c0.604,2.631,1.416,5.061,4.047,6.678c3.845,2.229,7.49,1.619,10.728-0.607
		c3.643-2.428,5.869-5.867,8.096-9.309c0.608-1.012,1.417-2.227,2.024-3.441c0,0,0.203,0,0.203,0.203
		c0,0.201-0.203,0.605-0.203,0.809c-0.405,1.822-1.213,3.846-1.213,5.668c-0.203,2.834,1.013,5.668,4.048,6.881
		c2.024,0.811,4.048,0.406,6.072-0.607c3.238-1.619,7.286-3.846,9.31-6.678c0.407-0.408,0.607-1.016,1.015-1.418
		c2.427-2.227,6.272-7.896,8.499-10.93c2.227-2.836,3.645-6.275,6.478-8.703c1.013-0.404,1.821-0.811,3.44-1.215
		c2.226-0.203,6.071-0.203,13.157,0.811c-1.822,1.213-2.633,2.225-5.062,3.643c-3.036,2.023-7.286,4.25-10.726,6.68
		c-4.858,3.643-8.096,7.691-11.741,13.156c-0.201,0.203-0.201,0.809-0.405,1.619v2.227v0.203c0,1.213,1.013,2.428,2.432,2.428h0.2
		h0.203c0.405,0,0.809-0.201,1.215-0.201c0.201-0.203,0.606-0.408,0.809-0.607c0.608-0.406,1.011-0.609,1.619-0.811
		c0.811-0.406,1.824-0.607,2.835-0.607c1.821,0,3.643,0.201,5.668,0.607c0.403,0,0.809,0.201,1.214,0.201
		c1.821,0.406,2.427,0.809,4.25,1.217c1.822,0.402,3.643,0.605,5.262,0.605h1.822c2.226-0.203,4.453-1.014,6.68-2.227
		c2.024-1.416,4.05-3.035,5.869-5.059c1.418-1.418,2.429-2.836,3.646-4.453c0,0.201,0.2,0.404,0.2,0.809c0,1.01,0,2.025,0.205,2.834
		v0.203c0.402,2.023,1.212,4.047,2.832,5.666c3.034,2.834,6.478,3.24,9.92,2.023c3.237-1.01,5.666-3.236,7.893-5.463
		c0.405-0.406,0.606-0.609,1.214-1.215c0.202,0.605,0.404,1.012,0.404,1.414c0.405,1.824,1.417,3.24,2.833,4.254
		c0.203,0.199,0.608,0.404,0.811,0.404l0.204,0.203c0.403,0.201,0.809,0.402,1.212,0.605c2.43,1.014,4.655,0.607,6.479-0.404
		c1.011-0.404,1.818-1.012,2.835-1.822c1.819-1.416,3.034-3.035,4.248-4.857c0.809-1.416,1.621-2.631,2.228-4.047
		c0.606-1.215,1.617-3.846,2.226-6.277C231.345,55.626,231.547,55.017,231.142,54.815 M200.175,41.052l10.524-19.837
		c2.023-3.442,4.453-6.679,6.881-9.917c0.607-0.81,1.418-1.821,2.634-2.023c0.809-0.203,1.212,0,1.212,0.809
		c-0.201,1.215-0.403,2.631-0.809,3.847c-1.821,5.263-4.656,10.12-7.691,14.773c-3.037,4.656-6.477,9.109-10.322,13.16
		c-1.619,1.619-3.439,3.035-5.062,4.654C198.556,44.493,199.164,42.671,200.175,41.052"/>
</g>
</svg>
