<?xml version="1.0" encoding="utf-8"?>
<!-- Generator: Adobe Illustrator 15.0.0, SVG Export Plug-In . SVG Version: 6.00 Build 0)  -->
<!DOCTYPE svg PUBLIC "-//W3C//DTD SVG 1.1//EN" "http://www.w3.org/Graphics/SVG/1.1/DTD/svg11.dtd">
<svg version="1.1" id="Layer_1" xmlns="http://www.w3.org/2000/svg" xmlns:xlink="http://www.w3.org/1999/xlink" x="0px" y="0px"
	 width="352.667px" height="90.667px" viewBox="0 0 352.667 90.667" enable-background="new 0 0 352.667 90.667"
	 xml:space="preserve">
<g>
	<g>
		<path fill="#1E1E1E" d="M130.515,27.86c-5.153,0-9.448,1.705-12.885,5.121c-3.396,3.371-5.106,7.492-5.147,12.352h-0.008v30.072
			h7.188V59.762c3.055,2.254,6.664,3.4,10.853,3.4c5.155,0,9.449-1.706,12.886-5.121s5.154-7.59,5.154-12.531
			c0-4.938-1.718-9.116-5.154-12.529C139.964,29.565,135.67,27.86,130.515,27.86 M138.279,53.595
			c-2.043,2.084-4.629,3.125-7.765,3.125c-3.135,0-5.724-1.041-7.763-3.125c-2.041-2.083-3.061-4.777-3.061-8.085
			c0-3.307,1.02-6.001,3.061-8.085c2.039-2.083,4.628-3.125,7.763-3.125c3.136,0,5.722,1.042,7.765,3.125
			c2.039,2.084,3.06,4.778,3.06,8.085C141.339,48.818,140.318,51.512,138.279,53.595"/>
		<rect x="153.193" y="28.632" fill="#1E1E1E" width="7.215" height="34.275"/>
		<polygon fill="#1E1E1E" points="198.549,28.631 189.981,28.631 182.379,39.904 175.033,28.631 166.206,28.631 177.738,45.446 
			165.562,62.908 174.002,62.908 181.99,51.501 190.174,62.908 199.064,62.908 186.565,45.383 		"/>
		<path fill="#1E1E1E" d="M234.885,42.162c-0.041-4.165-1.609-7.547-4.701-10.148c-3.092-2.599-6.98-3.898-11.662-3.898
			c-2.963,0-5.777,0.656-8.439,1.966c-2.662,1.311-4.896,3.35-6.699,6.123c-1.805,2.767-2.709,5.979-2.709,9.629
			c0,5.286,1.74,9.538,5.219,12.758c3.48,3.22,7.646,4.833,12.5,4.833c5.541,0,10.352-2.106,14.432-6.314l-4.25-4.704
			c-2.492,3.01-5.662,4.509-9.504,4.509c-3.846,0-6.885-1.374-9.117-4.122l24.998-10.503L234.885,42.162z M207.699,47.185
			c-0.047-0.257-0.066-0.664-0.066-1.224c0-3.52,1.17-6.271,3.512-8.245s4.93-2.965,7.764-2.965c3.736,0,6.334,1.416,7.795,4.251
			L207.699,47.185z"/>
		<path fill="#1E1E1E" d="M312.746,42.162c-0.041-4.165-1.611-7.547-4.703-10.148c-3.092-2.599-6.98-3.898-11.662-3.898
			c-2.963,0-5.775,0.656-8.438,1.966c-2.664,1.311-4.898,3.35-6.701,6.123c-1.805,2.767-2.707,5.979-2.707,9.629
			c0,5.286,1.738,9.538,5.219,12.758c3.479,3.22,7.646,4.833,12.5,4.833c5.539,0,10.352-2.106,14.43-6.314l-4.25-4.704
			c-2.492,3.01-5.66,4.509-9.504,4.509c-3.846,0-6.885-1.374-9.115-4.122l24.996-10.503L312.746,42.162z M285.559,47.185
			c-0.045-0.257-0.066-0.664-0.066-1.224c0-3.52,1.17-6.271,3.514-8.245c2.34-1.975,4.928-2.965,7.764-2.965
			c3.736,0,6.332,1.416,7.795,4.251L285.559,47.185z"/>
		<path fill="#1E1E1E" d="M266.742,30.745c-3.053-2.255-6.664-3.403-10.852-3.403c-5.156,0-9.449,1.71-12.887,5.123
			c-3.436,3.413-5.154,7.591-5.154,12.53c0,4.94,1.719,9.118,5.154,12.533c3.438,3.411,7.73,5.121,12.887,5.121
			c5.154,0,9.447-1.71,12.883-5.121c3.396-3.373,5.107-7.495,5.148-12.356h0.008V15.103h-7.188V30.745z M263.654,53.082
			c-2.041,2.083-4.629,3.123-7.764,3.123c-3.137,0-5.723-1.04-7.764-3.123s-3.062-4.779-3.062-8.087s1.021-6.003,3.062-8.085
			c2.041-2.083,4.627-3.126,7.764-3.126c3.135,0,5.723,1.043,7.764,3.126c2.041,2.082,3.059,4.777,3.059,8.085
			S265.695,50.999,263.654,53.082"/>
		<path fill="#1E1E1E" d="M349.195,43.582c-0.17-8.569-7.158-15.468-15.77-15.468c-8.609,0-15.598,6.898-15.768,15.468h-0.016
			v19.326h7.217V44.351c0-0.273,0.045-0.507,0.059-0.77h-0.104c0.17-4.606,3.965-8.309,8.611-8.309c4.65,0,8.441,3.702,8.611,8.309
			h-0.072c0.008,0.176,0.031,0.33,0.031,0.513v18.813h7.215V43.582H349.195z"/>
		<path fill="#1E1E1E" d="M32.402,84.661c-4.817-4.815-7.471-11.222-7.471-18.032V54.814v-2.293V36.217
			c0-1.919,1.023-3.692,2.686-4.651l14.76-8.521l-5.521-3.191c-10.272-5.929-23.408-2.41-29.338,7.862
			c-0.637,1.104-1.162,2.239-1.584,3.396c-1.603,4.502-2.478,9.352-2.478,14.402c0,19.77,13.358,36.418,31.541,41.417
			C34.09,86.239,33.222,85.481,32.402,84.661"/>
		<path fill="#1E1E1E" d="M19.516,13.821c6.581-1.763,13.453-0.858,19.354,2.549l10.102,5.832c0.04,0.022,0.082,0.04,0.122,0.064
			l16.106,9.3c1.662,0.959,2.685,2.732,2.685,4.651v17.02l5.501-3.175c10.271-5.929,13.791-19.064,7.859-29.338
			c-0.668-1.158-1.432-2.229-2.271-3.214C71.097,8.358,59.431,2.562,46.408,2.562c-11.754,0-22.404,4.723-30.158,12.374
			C17.305,14.496,18.394,14.122,19.516,13.821"/>
		<path fill="#1E1E1E" d="M87.958,34.599c-0.146,1.159-0.371,2.316-0.679,3.465c-1.762,6.58-5.982,12.078-11.881,15.486
			l-9.806,5.659c-0.127,0.091-0.258,0.175-0.394,0.255l-16.107,9.298c-0.83,0.481-1.757,0.721-2.684,0.721
			c-0.928,0-1.855-0.239-2.686-0.721l-14.765-8.521v6.387c0,11.862,9.616,21.476,21.478,21.476c0.978,0,1.939-0.067,2.883-0.193
			c20.435-3.306,36.041-21.027,36.041-42.396C89.359,41.744,88.872,38.086,87.958,34.599"/>
	</g>
</g>
</svg>
