<?xml version="1.0" encoding="utf-8"?>
<!-- Generator: Adobe Illustrator 16.0.0, SVG Export Plug-In . SVG Version: 6.00 Build 0)  -->
<!DOCTYPE svg PUBLIC "-//W3C//DTD SVG 1.1//EN" "http://www.w3.org/Graphics/SVG/1.1/DTD/svg11.dtd">
<svg version="1.1" id="Capa_1" xmlns="http://www.w3.org/2000/svg" xmlns:xlink="http://www.w3.org/1999/xlink" x="0px" y="0px"
	 width="160px" height="44px" viewBox="0 0 160 44" enable-background="new 0 0 160 44" xml:space="preserve">
<g id="Layer_2">
	<g>
		<g>
			<g>
				<g>
					<g>
						<g>
							<path fill="#000000" d="M147.5,12.9v-0.7c0-5.1,2.5-8.2,6.2-8.2c3.7,0,6.2,3,6.2,8.1v0.7c0,5.1-2.5,8.2-6.2,8.2
								C150,21,147.5,18,147.5,12.9z M155.9,12.8v-0.5c0-3.4-0.9-4.8-2.3-4.8c-1.3,0-2.3,1.4-2.3,4.7v0.5c0,3.4,0.9,4.8,2.3,4.8
								C155,17.5,155.9,16.2,155.9,12.8z"/>
							<path fill="#000000" d="M53.3,10.9c-1.9-1-2.3-1.5-2.3-2.1v0c0-0.6,0.5-1.1,1.3-1.1c0.8,0,1.5,0.4,2.2,0.8l0,0
								c0.7,0.4,1.1,0,1.2-0.1l0-0.1c0,0,0.4-0.6,1-1.5c0.4-0.7,0-1.1-0.2-1.3c-1.4-1-2.8-1.3-4.2-1.3c-3.1,0-5.2,2-5.2,4.9v0.1
								c0,2.5,1.6,3.8,4.2,5.2c1.5,0.8,2,1.3,2,1.9c0,0.7-0.5,1.3-1.5,1.3c-0.9,0-1.8-0.5-2.7-1.1l0,0l0,0c0,0-0.1-0.1-0.2-0.1
								c-0.2-0.2-0.8-0.3-1.4,0.6c-0.4,0.6-0.6,0.9-0.7,1.1l-0.3,0.4c-0.1,0.2-0.2,0.6,0.4,1c1.6,1.1,3.2,1.6,4.8,1.6
								c3,0,5.2-2,5.2-5v-0.1C57.2,13.5,55.7,12.1,53.3,10.9z"/>
							<path fill="#000000" d="M69.2,4.3L69.2,4.3h-1.9c-1.2,0-1,1.3-1,1.3v0v9.7c0,1.5-0.7,2.2-1.7,2.2c-1,0-1.7-0.7-1.7-2.3V5.6
								c0-1.1-0.6-1.3-0.9-1.3h-0.1h-1.9c-0.8,0-1,0.7-1,1V15c0,4.1,2.3,6,5.5,6c3.3,0,5.6-1.8,5.6-6V5.6
								C70.1,4.4,69.3,4.3,69.2,4.3z"/>
							<path fill="#000000" d="M93.5,17.2h-4.5v-3H93c0.2,0,0.8-0.1,0.8-1.1v-1.5v0c0-0.2-0.1-0.7-0.9-0.7h-3.9V7.9h4.3
								c0.9,0,1-0.7,1-0.9v0V5.3c0-0.8-0.6-0.9-0.8-0.9H86c-0.2,0-0.8,0.2-0.8,1.5V20c0,0.4,0.3,0.8,1.2,0.8h7h0.2
								c0.3,0,0.8-0.2,0.8-1v-1.8V18C94.5,17.8,94.4,17.2,93.5,17.2z"/>
							<path fill="#000000" d="M132.1,17.2h-4.5v-3h3.9c0.2,0,0.8-0.1,0.8-1.1v-1.5v0c0-0.2-0.1-0.7-0.9-0.7h-3.9V7.9h4.3
								c0.9,0,1-0.7,1-0.9v0V5.3c0-0.8-0.6-0.9-0.8-0.9h-7.5c-0.2,0-0.8,0.2-0.8,1.5V20c0,0.4,0.3,0.8,1.2,0.8h7h0.2
								c0.3,0,0.8-0.2,0.8-1v-1.8V18C133,17.8,132.9,17.2,132.1,17.2z"/>
							<path fill="#000000" d="M77.4,4.3h-3.4c-0.2,0-1.1,0.1-1.1,1.5v13.7c0,0.4,0.2,1.2,1.1,1.2h1.7c0,0,1,0,1-1.5v-3.3h0.8
								c3-0.1,5.8-1.8,5.8-5.8V10C83.3,6.2,80.9,4.3,77.4,4.3z M79.5,10.2c0,1.5-0.8,2.4-2.1,2.4h-0.6V7.7h0.6
								C78.7,7.7,79.5,8.5,79.5,10.2L79.5,10.2z"/>
							<path fill="#000000" d="M97.7,20.7h1.7h0.1c0.2,0,0.8-0.1,0.8-1.1v-4.2h0.9l1.9,4.4l0,0l0,0l0,0.1c0.1,0.2,0.4,0.7,1.4,0.7
								h2.3c0,0,0.8-0.1,0.4-0.9l0,0l-2.3-5.3c1.4-0.8,2.4-2.2,2.4-4.6V9.7c0-1.7-0.5-3-1.4-3.9c-1-1-2.6-1.5-4.4-1.5h-3.8
								c-0.4,0-1.2,0.2-1.2,1.6v13.8C96.5,19.9,96.7,20.7,97.7,20.7z M100.4,7.7h1c1.3,0,2.1,0.7,2.1,2.2V10c0,1.4-0.8,2.3-2.1,2.3
								h-1L100.4,7.7L100.4,7.7z"/>
							<path fill="#000000" d="M136.3,20.7h1.8h0.1c0.3,0,0.8-0.1,0.8-1.1v-4.2h0.9l1.8,4.4l0,0l0,0l0,0.1c0.1,0.2,0.4,0.7,1.5,0.7
								h2.3c0,0,0.8-0.1,0.4-0.9l0,0l-2.4-5.3c1.4-0.8,2.4-2.2,2.4-4.6V9.7c0-1.7-0.5-3-1.4-3.9c-1-1-2.6-1.5-4.4-1.5h-3.8
								c-0.4,0-1.2,0.2-1.2,1.6v13.8C135.2,19.9,135.2,20.7,136.3,20.7z M139,7.7h1c1.3,0,2.1,0.7,2.1,2.2V10c0,1.4-0.8,2.3-2.1,2.3
								h-1L139,7.7L139,7.7z"/>
							<path fill="#000000" d="M110.9,20.7h1.9c0,0,0.8,0,0.8-1.1v-5.4h3.4v5.3c0,0,0,1.1,1,1.1h2.1l0,0c0.1,0,0.8,0,0.8-1.4V5.6
								c0,0,0-0.1,0-0.2c0-0.8-0.4-1-0.7-1h-0.2H118c-0.7,0-0.9,0.4-1,0.7v5.6h-3.4V5.4c0-0.8-0.4-1-0.7-1h-0.2h-1.9
								c-0.9,0-1,0.6-1,0.9v14.5C109.9,20.1,110.1,20.7,110.9,20.7z"/>
						</g>
						<g>
							<path fill="#000000" d="M99.3,30.2c-1.8-1-2.3-1.4-2.3-2.1v0c0-0.6,0.5-1.1,1.3-1.1c0.8,0,1.5,0.4,2.1,0.8l0,0
								c0.7,0.4,1.1,0,1.2-0.1l0,0c0,0,0.4-0.6,0.9-1.4c0.4-0.7,0-1.1-0.2-1.2c-1.4-1-2.7-1.3-4.1-1.3c-3.1,0-5.1,1.9-5.1,4.8v0.1
								c0,2.4,1.6,3.7,4.1,5c1.5,0.8,1.9,1.2,1.9,1.9c0,0.7-0.5,1.2-1.4,1.2c-0.9,0-1.8-0.4-2.6-1l0,0l0,0c0,0-0.1-0.1-0.1-0.1
								c-0.3-0.1-0.8-0.3-1.3,0.5c-0.3,0.5-0.5,0.9-0.6,1.1l-0.2,0.4c-0.1,0.2-0.2,0.6,0.4,1c1.5,1.1,3.1,1.5,4.7,1.5
								c2.9,0,5.1-2,5.1-4.8V35C103,32.7,101.6,31.4,99.3,30.2z"/>
							<path fill="#000000" d="M80,36.4h-4.4v-3h3.8c0.2,0,0.8-0.1,0.8-1.1v-1.5v0c0-0.2-0.1-0.7-0.8-0.7h-3.8v-2.8h4.2
								c0.9,0,1-0.7,1-0.8v0v-1.7c0-0.7-0.5-0.8-0.8-0.9h-7.3c-0.2,0-0.8,0.2-0.8,1.5V39c0,0.4,0.3,0.8,1.2,0.8h6.8h0.2
								c0.3,0,0.8-0.2,0.8-0.9v-1.8v0C80.9,37,80.8,36.4,80,36.4z"/>
							<path fill="#000000" d="M91,36.4h-4.4v-3h3.8c0.2,0,0.8-0.1,0.8-1.1v-1.5v0c0-0.2-0.1-0.7-0.8-0.7h-3.8v-2.8h4.2
								c0.9,0,1-0.7,1-0.8v0v-1.7c0-0.7-0.5-0.8-0.8-0.9h-7.3c-0.2,0-0.8,0.2-0.8,1.5V39c0,0.4,0.3,0.8,1.2,0.8h6.8h0.2
								c0.3,0,0.8-0.2,0.8-0.9v-1.8v0C91.8,37,91.8,36.4,91,36.4z"/>
							<path fill="#000000" d="M113,36.4h-4.4v-3h3.9c0.2,0,0.8-0.1,0.8-1.1v-1.5v0c0-0.2-0.1-0.7-0.8-0.7h-3.8v-2.8h4.2
								c0.9,0,1-0.7,1-0.8v0v-1.7c0-0.7-0.5-0.8-0.8-0.9h-7.3c-0.2,0-0.8,0.2-0.8,1.5V39c0,0.4,0.3,0.8,1.2,0.8h6.8h0.2
								c0.3,0,0.8-0.2,0.8-0.9v-1.8v0C113.9,37,113.9,36.4,113,36.4z"/>
							<path fill="#000000" d="M159.1,36.4h-4.4v-3h3.8c0.2,0,0.8-0.1,0.8-1.1v-1.5v0c0-0.2-0.1-0.7-0.8-0.7h-3.8v-2.8h4.1
								c0.9,0,1-0.7,1-0.8v0v-1.7c0-0.7-0.5-0.8-0.8-0.9h-7.3c-0.2,0-0.8,0.2-0.8,1.5V39c0,0.4,0.3,0.8,1.2,0.8h6.8h0.1
								c0.3,0,0.8-0.2,0.8-0.9v-1.8v0C160,37,159.9,36.4,159.1,36.4z"/>
							<path fill="#000000" d="M59.4,39.8h1.9c0,0,0.8,0,0.8-1.1v-5.2h3.3v5.2c0,0,0,1.1,1,1.1h2l0,0c0.1,0,0.8,0,0.8-1.4V25.2
								c0,0,0-0.1,0-0.2c0-0.8-0.4-1-0.7-1h-0.2h-1.8c-0.7,0-0.9,0.4-1,0.7v5.5h-3.3V25c0-0.8-0.4-1-0.7-1h-0.2h-1.8
								c-0.8,0-1,0.6-1,0.9v14.1C58.4,39.2,58.6,39.8,59.4,39.8z"/>
							<path fill="#000000" d="M56.5,37.6l-0.3-0.5c-0.2-0.2-0.4-0.5-0.6-0.9c-0.6-0.8-1.4-0.2-1.4-0.2l0,0
								c-0.4,0.2-0.8,0.4-1.3,0.4c-1.3,0-2.6-1.2-2.6-4.6v-0.1c0-3.1,1.2-4.5,2.6-4.5c0.5,0,1,0.2,1.3,0.4l0,0c0.6,0.4,0.9,0.2,1,0
								l1.1-1.7c0,0,0,0,0,0c0.4-0.6,0-1-0.2-1.2c-1-0.7-2-1.1-3.5-1.1c-3.4,0-6.2,2.7-6.2,8v0.6c0,5.2,2.6,7.9,6.1,7.9
								c1.4,0,2.5-0.4,3.4-1.1C56.8,38.3,56.5,37.6,56.5,37.6z"/>
							<path fill="#000000" d="M125.1,37.6l-0.3-0.5c-0.1-0.2-0.3-0.5-0.6-0.9c-0.5-0.8-1.4-0.2-1.4-0.2l0,0
								c-0.4,0.2-0.8,0.4-1.3,0.4c-1.3,0-2.5-1.2-2.5-4.6v-0.1c0-3.1,1.2-4.5,2.5-4.5c0.5,0,1,0.2,1.3,0.4l0,0
								c0.6,0.4,0.9,0.2,1.1,0L125,26c0,0,0,0,0,0c0.4-0.6,0-1-0.1-1.2c-1-0.7-2-1.1-3.5-1.1c-3.5,0-6.2,2.7-6.2,8v0.6
								c0,5.2,2.6,7.9,6.1,7.9c1.4,0,2.5-0.4,3.5-1.1C125.5,38.3,125.1,37.6,125.1,37.6z"/>
							<path fill="#000000" d="M125.9,38.7L125.9,38.7l-0.1,0.3c0,0.3,0,0.8,0.9,0.8h1.7h0.1c0.3,0,0.8-0.2,1.1-1.1l0,0l0.4-1.7h3.7
								l0.5,2l0,0l0,0l0,0.1c0.1,0.2,0.3,0.8,1.2,0.8h2.1c0,0,0.8-0.2,0.5-1.4l0,0L134.2,25l0,0c-0.3-1.1-1.1-1.2-1.4-1.2h0h-2.1
								c-0.8,0-1.2,1.2-1.2,1.2L125.9,38.7L125.9,38.7z M131.8,29l1.1,4.9h-2.3L131.8,29z"/>
							<path fill="#000000" d="M140,39.8h1.9h0.2c0.2,0,0.6-0.2,0.6-1.2v-2.9l0.9-1.5l1.9,4.6l0,0l0,0l0.1,0.4
								c0.2,0.3,0.5,0.7,1.2,0.7h2.6h0c0.1,0,0.6-0.1,0.1-1.4l0,0l-3.2-7.8l3.1-5.7c0.5-0.9,0-1-0.2-1h-0.1h-2.3
								c-0.8,0-1.2,0.4-1.3,0.7l-2.8,5.4v-5c0-1-0.6-1.1-0.8-1.1h-0.1h-1.8c-0.8,0-1,0.6-1,0.9v13.9C139.1,38.7,139,39.8,140,39.8z"
								/>
						</g>
					</g>
				</g>
			</g>
		</g>
		<g>
			<path fill="#000000" d="M33.7,34.2c0.2,0.3,0.1,0.7-0.2,0.8c-0.3,0.2-0.6,0.1-0.8-0.2c-0.2-0.3-0.1-0.7,0.2-0.8
				C33.2,33.8,33.5,33.9,33.7,34.2z"/>
			<path fill="#000000" d="M36.5,33.6c0.1,0.2,0,0.4-0.1,0.6c-0.2,0.1-0.4,0-0.6-0.1c-0.1-0.2,0-0.5,0.2-0.6
				C36.2,33.3,36.4,33.4,36.5,33.6z"/>
			<path fill="#000000" d="M35.8,35c0.2,0.4,0.1,0.9-0.3,1.1c-0.4,0.2-0.9,0.1-1.1-0.3c-0.2-0.4-0.1-0.9,0.3-1.1
				C35.1,34.5,35.6,34.6,35.8,35z"/>
			<g>
				<path fill="#000000" d="M10.2,24.8c-1.8-1.2-2.7,1.1-1.8,1.8c0.8,0.6,2.2,0.1,2.7-0.9C11.2,25.7,10.6,25,10.2,24.8z"/>
				<path fill="#000000" d="M30.8,26c0.1-0.2,0.2-0.3,0.1-0.5c-0.1-0.2-0.4-0.2-0.9-0.2c-0.8,0-2,0.2-3.1,0.6
					c-2.4,0.8-4.8,1.9-5.6,2.2c0.4,0,0.9,0,1.3,0C27.3,28.1,30.2,26.9,30.8,26z"/>
				<path fill="#000000" d="M38.2,8.8L23.1,0.6c-1.5-0.8-3.8-0.8-5.3,0L2.7,8.8C1.2,9.6,0,11.6,0,13.3v17.5c0,1.7,1.2,3.7,2.7,4.5
					l15.1,8.2c0.5,0.3,1.1,0.4,1.7,0.5l0,0c0.4,0,0.8-0.4,0.9-0.9l0,0c0.3-1.5,1.2-2.9,2.6-3.6c0.6-0.4,1.3-0.6,2-0.6
					c0.2-2.2,1.4-4.2,3.4-5.3c2-1.1,4.4-1,6.2,0c0.4-0.5,1-1,1.6-1.4c1.2-0.6,2.5-0.8,3.7-0.5l0,0c0.6,0.1,0.8-0.3,0.9-0.7
					c0-0.1,0-0.2,0-0.3V13.3C40.8,11.6,39.6,9.6,38.2,8.8z M33.9,18.9c-0.4,3-3.2,3.7-4.1,3.7c0,0-0.1,0-0.2,0
					c-1.1,0-1.9-0.5-2.2-1.4C26.9,22.7,25.4,24,24,24c-0.5,0-1.9-0.1-2.2-1.7c-0.6,2.7-2,4.2-3.6,4.2l0,0c-0.2,0-0.4,0-0.6,0l-0.1,0
					l0.1-0.1c0,0,0.4-0.4,0.6-1.2c0.2-0.8,0.7-3.1,1-4.9c-0.3,0.3-0.9,0.9-2.2,1.6c-0.4,1.8-0.5,2.2-0.6,2.4l0,0v0
					c-0.2,0.7-0.7,1.2-1.4,1.2c-0.3,0-0.6-0.1-0.9-0.2L13.9,25l0.2-0.1c0,0,0.3-0.1,0.5-1c0.3-0.9,1.3-6,1.4-7c0-0.4,0-0.6-0.2-0.6
					c0,0-0.1,0-0.1,0c-0.3,0-0.6,0.3-1,0.6c-0.4,0.3-1,0.8-1.8,0.8c0,0,0,0,0,0l0,0l0,0c-1,0-1.2-1-1.2-1c0.8-0.1,1.8-1.4,1.2-2.2
					c-0.6-0.7-2.5,0.1-2.8,1.8c-0.3,1.7,1.7,3,2.6,4c1.4,1.5,1.5,3.7,0.6,5.5l0,0c0.6,0.4,2.4,1.4,5,2c5-2.7,9.7-4.3,12.6-4.3
					c1.2,0,2.1,0.3,2.5,0.9c0.1,0.1,0.4,0.7,0.2,1.4c-0.3,1-1.4,1.9-3.3,2.6c-2.8,1-5.8,1.2-7.7,1.2c-1,0-2,0-3-0.2
					c-0.2,0.1-2.4,1.2-4.2,2c-1.1,0.4-2.4,0.7-3.4,0.7c-1.4,0-3.1-0.4-3.4-2.6v-0.1l0.1,0c0,0,1,0.3,2.6,0.3c1.7,0,3.3-0.3,4.9-1
					c-0.6-0.2-2.2-0.7-3.8-1.7l0,0c-0.8,0.8-2,1.4-3.5,1.4l0,0c-1.6,0-2.9-1-2.9-2.6c0-2,2-3.2,3.7-2.7c1.2,0.3,1.9,1.3,1.9,1.3
					c0.2-1.6-0.6-2.6-2-4.2c-0.6-0.7-1-1.3-1.2-2c-0.6-1.8,0.3-4.2,2-4.9c2.4-1,4.6,0.4,4,2.6l0,0c0.5-0.6,1.4-1.3,2.2-1.3
					c0.3,0,0.5,0.1,0.8,0.2c0.5,0.3,0.6,0.7,0.5,1.6c-0.1,1-0.6,3-0.7,3.7c0.7-0.2,1.7-0.8,2.1-1.3c0.1-0.4,0.2-0.7,0.2-1
					c0.4-1.8,0.6-2.6,0.1-2.8l-0.1,0l0.1-0.1c0.3-0.4,0.7-0.6,1.1-0.6c0.4,0,0.8,0.2,1,0.5c0.2,0.2,0.3,0.5,0,1.5
					c0,0.2-1.1,5.4-1.4,7.2c0.4-0.9,0.8-2.3,1.2-3.4l0.1-0.3c0-0.1,0.1-0.3,0.1-0.4c0.6-2,1.4-4.7,3.4-5.7c0.4-0.2,0.7-0.3,1-0.3
					c0.7,0,1.3,0.4,1.5,1c0.2,0.6,0.1,1.3-0.3,1.7C27.1,16,26.9,16,26.7,16s-0.4-0.1-0.5-0.2c-0.1-0.1-0.2-0.3-0.2-0.4v0h0
					c0.2,0,0.3-0.2,0.3-0.2c0.1-0.2,0.1-0.4,0-0.5c0-0.1-0.1-0.2-0.2-0.2c-0.3,0-0.8,0.4-1.2,1.2c-1.1,1.7-2,5-1.3,6.2
					c0.2,0.3,0.4,0.5,0.8,0.5c0.7,0,2-1,2.7-2.9c0.1-2.4,1.2-5.1,2.7-6.5c0.5-0.6,1.2-0.8,1.9-0.8c0.6,0,1.1,0.2,1.4,0.6
					c0.4,0.4,0.5,1,0.4,1.7c-0.1,0.8-0.7,1.2-1.2,1.2c-0.2,0-0.4-0.1-0.6-0.2c-0.2-0.2-0.2-0.4-0.2-0.6v-0.1h0.1c0,0,0.3,0,0.5-0.3
					c0.1-0.2,0.1-0.4,0.1-0.6c0-0.2-0.2-0.4-0.3-0.4c-0.3,0-0.9,0.4-1.6,1.7c-0.7,1.3-1.7,4.1-1,5.3c0.2,0.3,0.4,0.4,0.9,0.4
					c0.6,0,1.2-0.2,1.7-0.8c0.9-0.9,1.2-2.3,1.2-2.6v-0.1l0.1,0C33.8,17.6,34,18.1,33.9,18.9z"/>
			</g>
		</g>
	</g>
</g>
</svg>
