<?xml version="1.0" encoding="utf-8"?>
<!DOCTYPE svg PUBLIC "-//W3C//DTD SVG 1.1//EN" "http://www.w3.org/Graphics/SVG/1.1/DTD/svg11.dtd">
<svg version="1.1" id="レイヤー_4" xmlns="http://www.w3.org/2000/svg" xmlns:xlink="http://www.w3.org/1999/xlink" x="0px"
	 y="0px" width="354.913px" height="42.778px" viewBox="0 0 354.913 42.778" enable-background="new 0 0 354.913 42.778"
	 xml:space="preserve">
<g>
	<path d="M329.671,0.707v2.475c0,0,0,0.212,0,0.495v26.727c-0.92-1.696-15.768-28.282-15.768-28.282
		c-0.566-0.99-1.344-1.415-2.264-1.415c-1.625,0-2.475,0.919-2.475,2.475v39.313h4.949V12.657c0.92,1.697,15.91,28.565,15.91,28.565
		c0.424,0.849,1.201,1.272,2.121,1.272c1.625,0,2.475-0.849,2.475-2.475V0.707H329.671L329.671,0.707z"/>
	<polygon points="110.55,23.757 122.853,23.757 122.853,18.808 110.55,18.808 110.55,5.657 126.812,5.657 126.812,0.707 
		105.529,0.707 105.529,42.495 110.55,42.495 	"/>
	<rect x="83.822" y="0.707" width="4.95" height="41.788"/>
	<rect x="285.974" y="0.707" width="4.949" height="41.788"/>
	<path d="M11.56,0.707c-3.182,0-6.01,1.131-8.272,3.394c-2.263,2.263-3.394,5.02-3.394,8.273c0,3.182,1.131,6.01,3.394,8.272
		c2.262,2.262,5.091,3.394,8.272,3.394h4.667c1.909,0,3.536,0.637,4.808,1.979c1.344,1.344,1.98,2.899,1.98,4.809
		c0,1.838-0.636,3.464-1.98,4.808c-1.272,1.344-2.899,1.979-4.808,1.979c0,0-11.313,0-11.454,0c0,0.142,0,4.737,0,4.879
		c0.141,0,11.454,0,11.454,0c3.253,0,6.01-1.131,8.273-3.394s3.394-5.021,3.394-8.272c0-3.253-1.131-6.011-3.394-8.273
		c-2.263-2.262-5.02-3.394-8.273-3.394h-4.596c-1.909,0-3.535-0.636-4.808-1.98c-1.343-1.343-1.98-2.899-1.98-4.808
		c0-1.909,0.637-3.464,1.98-4.808c1.343-1.344,2.899-1.98,4.808-1.98c0,0,11.313,0,11.455,0c0-0.142,0-4.737,0-4.879
		C22.873,0.707,11.56,0.707,11.56,0.707z"/>
	<polygon points="62.045,0.707 62.045,18.808 46.207,18.808 46.207,0.707 41.257,0.707 41.257,42.495 46.207,42.495 46.207,23.757 
		62.045,23.757 62.045,42.495 67.065,42.495 67.065,0.707 	"/>
	<polygon points="161.176,0.707 135.368,0.707 135.368,5.657 145.762,5.657 145.762,42.495 150.711,42.495 150.711,5.657 
		161.176,5.657 	"/>
	<path d="M191.084,21.707c0.354-0.283,0.777-0.636,1.131-0.99c2.264-2.263,3.395-5.091,3.395-8.273c0-3.252-1.131-6.01-3.395-8.272
		c-2.262-2.263-5.02-3.465-8.201-3.465h-11.313v4.95v36.838h4.95c3.04,0,6.364,0,6.364,0c3.182,0,5.939-1.131,8.201-3.394
		c2.264-2.263,3.395-5.021,3.395-8.202s-1.131-5.939-3.395-8.202C191.792,22.343,191.438,21.99,191.084,21.707z M188.75,35.708
		c-1.271,1.272-2.898,1.979-4.807,1.979c0,0-3.324,0-6.364,0V24.252h6.364c1.838,0,3.465,0.637,4.807,1.979
		c1.273,1.273,1.98,2.899,1.98,4.809C190.731,32.738,190.094,34.364,188.75,35.708z M188.75,17.252
		c-1.271,1.344-2.898,1.98-4.807,1.98c0,0-3.324,0-6.364,0V5.586h6.364c1.838,0,3.465,0.707,4.807,1.98
		c1.273,1.343,1.98,2.97,1.98,4.808C190.731,14.354,190.094,15.98,188.75,17.252z"/>
	<path d="M226.014,24.111c0,0,2.051-1.272,4.1-3.394c2.264-2.263,3.395-5.091,3.395-8.273c0-3.252-1.131-6.01-3.395-8.272
		c-2.262-2.263-5.02-3.465-8.201-3.465H210.53v4.95v36.838h4.949V24.182h5.514l6.506,18.313h4.949L226.014,24.111L226.014,24.111z
		 M215.549,19.232V5.586h6.363c1.91,0,3.465,0.707,4.809,1.98c1.271,1.343,1.979,2.97,1.979,4.808s-0.635,3.464-1.979,4.808
		c-1.273,1.343-2.898,1.979-4.809,1.979C221.983,19.232,218.59,19.232,215.549,19.232z"/>
	<path d="M351.166,38.676c0,0,0.213-0.141,0.494-0.354c0.283-0.282,0.355-0.565,0.355-0.919s-0.143-0.707-0.355-0.919
		c-0.281-0.283-0.564-0.354-0.918-0.354h-1.273v0.565v4.172h0.566v-2.051h0.637l0.707,2.051h0.564L351.166,38.676L351.166,38.676z
		 M350.035,38.111v-1.556h0.707c0.211,0,0.424,0.071,0.564,0.213c0.143,0.141,0.213,0.354,0.213,0.565s-0.07,0.424-0.213,0.565
		c-0.141,0.142-0.354,0.212-0.564,0.212C350.742,38.111,350.318,38.111,350.035,38.111z"/>
	<path d="M260.448,2.122L260.448,2.122C260.235,0.919,259.247,0,258.043,0c-1.201,0-2.262,0.919-2.404,2.122l0,0l-11.666,40.444
		h4.949l2.828-10.748h12.445l2.758,10.748h4.95L260.448,2.122z M253.165,26.798l4.949-18.95l4.738,18.95H253.165z"/>
	<path d="M346.146,38.394c0-2.404,1.979-4.384,4.383-4.384l0,0c2.404,0,4.385,1.979,4.385,4.384l0,0c0,2.404-1.98,4.384-4.385,4.384
		l0,0C348.125,42.778,346.146,40.798,346.146,38.394L346.146,38.394z M346.64,38.394c0,2.121,1.768,3.889,3.889,3.889l0,0
		c2.121,0,3.889-1.768,3.889-3.889l0,0c0-2.121-1.768-3.889-3.889-3.889l0,0C348.408,34.505,346.64,36.273,346.64,38.394
		L346.64,38.394z"/>
</g>
</svg>
