<?xml version="1.0" encoding="utf-8"?>
<!-- Generator: Adobe Illustrator 16.0.0, SVG Export Plug-In . SVG Version: 6.00 Build 0)  -->
<!DOCTYPE svg PUBLIC "-//W3C//DTD SVG 1.1//EN" "http://www.w3.org/Graphics/SVG/1.1/DTD/svg11.dtd">
<svg version="1.1" id="Capa_1" xmlns="http://www.w3.org/2000/svg" xmlns:xlink="http://www.w3.org/1999/xlink" x="0px" y="0px"
	 width="276px" height="72px" viewBox="0 0 276 72" enable-background="new 0 0 276 72" xml:space="preserve">
<path fill="#000000" d="M96.3,60.9c-0.3,0.6-0.6,1.2-1.1,1.6c-0.4,0.5-0.9,0.8-1.5,1.1c-0.6,0.3-1.3,0.4-2,0.4c-1.1,0-2-0.2-2.7-0.6
	c-0.8-0.4-1.4-0.9-1.9-1.6c-0.5-0.7-0.8-1.4-1.1-2.3c-0.2-0.8-0.3-1.7-0.3-2.6c0-0.9,0.1-1.7,0.3-2.6c0.2-0.8,0.6-1.6,1.1-2.3
	c0.5-0.7,1.1-1.2,1.9-1.6c0.8-0.4,1.7-0.6,2.7-0.6c0.6,0,1.1,0.1,1.7,0.3c0.5,0.2,1,0.4,1.5,0.8c0.4,0.3,0.8,0.7,1.1,1.2
	c0.3,0.5,0.5,1,0.7,1.6h1.5c-0.1-0.8-0.4-1.6-0.8-2.2C97,51,96.5,50.4,95.9,50c-0.6-0.4-1.2-0.8-2-1c-0.7-0.2-1.5-0.3-2.2-0.3
	c-1.3,0-2.4,0.2-3.3,0.7c-0.9,0.5-1.7,1.1-2.4,1.8s-1.1,1.7-1.4,2.7c-0.3,1-0.5,2.1-0.5,3.2c0,1.1,0.2,2.2,0.5,3.2
	c0.3,1,0.8,1.9,1.4,2.6c0.6,0.8,1.4,1.4,2.4,1.8c0.9,0.5,2.1,0.7,3.3,0.7c0.9,0,1.8-0.1,2.6-0.4c0.8-0.3,1.4-0.7,2-1.3
	c0.6-0.6,1-1.2,1.4-2c0.4-0.8,0.6-1.7,0.7-2.7h-1.5C96.8,59.6,96.6,60.3,96.3,60.9z M117.7,51.2c-0.6-0.8-1.4-1.4-2.4-1.8
	c-0.9-0.5-2-0.7-3.3-0.7c-1.3,0-2.4,0.2-3.3,0.7c-0.9,0.5-1.7,1.1-2.4,1.8c-0.6,0.8-1.1,1.7-1.4,2.7s-0.5,2.1-0.5,3.2
	s0.2,2.2,0.5,3.2c0.3,1,0.8,1.9,1.4,2.6c0.6,0.8,1.4,1.4,2.4,1.8c0.9,0.5,2.1,0.7,3.3,0.7c1.3,0,2.4-0.2,3.3-0.7
	c0.9-0.5,1.7-1.1,2.4-1.8c0.6-0.8,1.1-1.6,1.4-2.6c0.3-1,0.5-2.1,0.5-3.2s-0.2-2.2-0.5-3.2C118.8,52.8,118.3,51.9,117.7,51.2z
	 M117.7,59.6c-0.2,0.8-0.6,1.6-1.1,2.3c-0.5,0.7-1.1,1.2-1.9,1.6c-0.8,0.4-1.7,0.6-2.7,0.6c-1.1,0-2-0.2-2.7-0.6
	c-0.8-0.4-1.4-0.9-1.9-1.6c-0.5-0.7-0.8-1.4-1.1-2.3c-0.2-0.8-0.3-1.7-0.3-2.6c0-0.9,0.1-1.7,0.3-2.6c0.2-0.8,0.6-1.6,1.1-2.3
	c0.5-0.7,1.1-1.2,1.9-1.6c0.8-0.4,1.7-0.6,2.7-0.6s2,0.2,2.7,0.6c0.8,0.4,1.4,0.9,1.9,1.6c0.5,0.7,0.8,1.4,1.1,2.3
	c0.2,0.8,0.3,1.7,0.3,2.6C118.1,57.9,117.9,58.7,117.7,59.6z M137.7,62.5L137.7,62.5L128.3,49h-1.7v16h1.5V51.5h0l9.3,13.5h1.7V49
	h-1.5V62.5z M147.1,65h1.5v-7.6h7.7v-1.3h-7.7v-5.8h8.6V49h-10.2V65z M165.3,57.4h8.9v-1.3h-8.9v-5.8h9.5V49h-11v16h11.2v-1.3h-9.6
	V57.4z M193.7,63.1c0-0.4-0.1-0.8-0.1-1.2s0-0.7,0-1c0-0.5-0.1-0.9-0.2-1.3c-0.1-0.4-0.3-0.8-0.5-1.1c-0.2-0.3-0.5-0.6-0.8-0.8
	c-0.3-0.2-0.8-0.3-1.3-0.4v0c1-0.2,1.8-0.7,2.3-1.4c0.5-0.7,0.8-1.6,0.8-2.6c0-0.7-0.1-1.3-0.4-1.9c-0.3-0.5-0.6-1-1.1-1.3
	c-0.4-0.3-1-0.6-1.5-0.8S189.7,49,189,49h-7.3v16h1.5v-7.1h5.8c0.7,0,1.3,0.1,1.7,0.4c0.4,0.3,0.7,0.6,0.9,1.1
	c0.2,0.4,0.4,0.9,0.4,1.5c0.1,0.6,0.1,1.1,0.1,1.7c0,0.2,0,0.4,0,0.6c0,0.2,0,0.5,0.1,0.7c0,0.2,0.1,0.5,0.1,0.7s0.1,0.4,0.2,0.5
	h1.7c-0.2-0.2-0.3-0.5-0.4-0.8C193.8,63.8,193.8,63.5,193.7,63.1z M190.2,56.4c-0.4,0.1-0.9,0.2-1.3,0.2h-5.7v-6.3h5.7
	c1.2,0,2,0.3,2.6,0.9c0.6,0.6,0.9,1.3,0.9,2.3c0,0.5-0.1,0.9-0.3,1.3c-0.2,0.4-0.4,0.7-0.8,1C191,56,190.7,56.2,190.2,56.4z
	 M202.8,57.4h8.9v-1.3h-8.9v-5.8h9.5V49h-11v16h11.2v-1.3h-9.6V57.4z M230.3,62.5L230.3,62.5L220.9,49h-1.7v16h1.5V51.5h0l9.3,13.5
	h1.7V49h-1.5V62.5z M251.1,60.9c-0.3,0.6-0.6,1.2-1.1,1.6c-0.4,0.5-1,0.8-1.5,1.1c-0.6,0.3-1.3,0.4-2,0.4c-1.1,0-2-0.2-2.7-0.6
	c-0.8-0.4-1.4-0.9-1.9-1.6c-0.5-0.7-0.8-1.4-1.1-2.3c-0.2-0.8-0.3-1.7-0.3-2.6c0-0.9,0.1-1.7,0.3-2.6c0.2-0.8,0.6-1.6,1.1-2.3
	c0.5-0.7,1.1-1.2,1.9-1.6c0.8-0.4,1.7-0.6,2.7-0.6c0.6,0,1.1,0.1,1.7,0.3c0.5,0.2,1,0.4,1.5,0.8c0.4,0.3,0.8,0.7,1.1,1.2
	c0.3,0.5,0.5,1,0.7,1.6h1.5c-0.1-0.8-0.4-1.6-0.8-2.2c-0.4-0.6-0.9-1.2-1.5-1.6c-0.6-0.4-1.2-0.8-2-1c-0.7-0.2-1.5-0.3-2.2-0.3
	c-1.3,0-2.4,0.2-3.3,0.7c-0.9,0.5-1.7,1.1-2.4,1.8c-0.6,0.8-1.1,1.7-1.4,2.7s-0.5,2.1-0.5,3.2c0,1.1,0.2,2.2,0.5,3.2
	c0.3,1,0.8,1.9,1.4,2.6c0.6,0.8,1.4,1.4,2.4,1.8s2,0.7,3.3,0.7c0.9,0,1.8-0.1,2.6-0.4c0.8-0.3,1.4-0.7,2-1.3c0.6-0.6,1-1.2,1.4-2
	c0.4-0.8,0.6-1.7,0.7-2.7h-1.5C251.6,59.6,251.4,60.3,251.1,60.9z M261.7,57.4h8.9v-1.3h-8.9v-5.8h9.5V49h-11v16h11.2v-1.3h-9.6
	V57.4z M183.5,35.2c0.5-1.1,0.7-2.3,0.7-3.5c0-1.5-0.3-2.8-1-3.8c-0.6-1-1.4-1.8-2.3-2.4c-0.9-0.6-1.8-1-2.7-1.3
	c-0.9-0.3-1.6-0.5-2.1-0.6l-4.2-1.1c-1.1-0.3-1.9-0.6-2.5-0.9c-0.6-0.3-1-0.6-1.2-0.9c-0.2-0.3-0.3-0.8-0.3-1.3
	c0-0.6,0.1-1.1,0.4-1.5c0.3-0.4,0.6-0.7,1-1c0.4-0.3,0.9-0.4,1.4-0.5c0.5-0.1,1-0.2,1.5-0.2c0.7,0,1.4,0.1,2,0.2
	c0.6,0.1,1.2,0.3,1.7,0.7c0.5,0.3,0.9,0.7,1.2,1.3c0.3,0.5,0.5,1.2,0.5,2h5.9c0-1.6-0.3-3-0.9-4.1c-0.6-1.1-1.4-2.1-2.4-2.8
	c-1-0.7-2.2-1.2-3.6-1.5c-1.3-0.3-2.7-0.5-4.1-0.5c-1.2,0-2.5,0.2-3.7,0.5c-1.2,0.3-2.3,0.9-3.3,1.5c-1,0.7-1.8,1.6-2.4,2.6
	c-0.6,1-0.9,2.3-0.9,3.7c0,1.3,0.2,2.3,0.7,3.2c0.5,0.9,1.1,1.6,1.9,2.2c0.8,0.6,1.6,1.1,2.6,1.5c1,0.4,2,0.7,3,0.9
	c1,0.3,2,0.5,3,0.8c1,0.2,1.9,0.5,2.6,0.8c0.8,0.3,1.4,0.7,1.9,1.2c0.5,0.5,0.7,1.1,0.7,1.8c0,0.7-0.2,1.3-0.5,1.7
	c-0.4,0.4-0.8,0.8-1.4,1c-0.5,0.3-1.1,0.4-1.7,0.5c-0.6,0.1-1.2,0.1-1.7,0.1c-0.8,0-1.6-0.1-2.3-0.3c-0.7-0.2-1.4-0.5-2-0.9
	c-0.5-0.4-1-0.9-1.3-1.6c-0.3-0.6-0.5-1.4-0.5-2.4H161c0,1.7,0.3,3.2,0.9,4.4c0.6,1.2,1.5,2.2,2.6,3c1.1,0.8,2.4,1.4,3.8,1.7
	c1.4,0.4,2.9,0.6,4.4,0.6c1.9,0,3.5-0.2,4.9-0.7c1.4-0.4,2.6-1,3.6-1.8C182.3,37.2,183,36.3,183.5,35.2z M105.3,31.7
	c0-1.5-0.3-2.8-1-3.8c-0.6-1-1.4-1.8-2.3-2.4c-0.9-0.6-1.8-1-2.7-1.3c-0.9-0.3-1.6-0.5-2.1-0.6l-4.2-1.1c-1.1-0.3-1.9-0.6-2.5-0.9
	c-0.6-0.3-1-0.6-1.2-0.9c-0.2-0.3-0.3-0.8-0.3-1.3c0-0.6,0.1-1.1,0.4-1.5c0.3-0.4,0.6-0.7,1-1c0.4-0.3,0.9-0.4,1.4-0.5
	c0.5-0.1,1-0.2,1.5-0.2c0.7,0,1.4,0.1,2,0.2c0.6,0.1,1.2,0.3,1.7,0.7c0.5,0.3,0.9,0.7,1.2,1.3c0.3,0.5,0.5,1.2,0.5,2h5.9
	c0-1.6-0.3-3-0.9-4.1c-0.6-1.1-1.4-2.1-2.4-2.8c-1-0.7-2.2-1.2-3.6-1.5c-1.3-0.3-2.7-0.5-4.1-0.5c-1.2,0-2.5,0.2-3.7,0.5
	c-1.2,0.3-2.3,0.9-3.3,1.5c-1,0.7-1.8,1.6-2.4,2.6c-0.6,1-0.9,2.3-0.9,3.7c0,1.3,0.2,2.3,0.7,3.2c0.5,0.9,1.1,1.6,1.9,2.2
	c0.8,0.6,1.6,1.1,2.6,1.5c1,0.4,2,0.7,3,0.9c1,0.3,2,0.5,3,0.8c1,0.2,1.9,0.5,2.6,0.8c0.8,0.3,1.4,0.7,1.9,1.2
	c0.5,0.5,0.7,1.1,0.7,1.8c0,0.7-0.2,1.3-0.5,1.7c-0.4,0.4-0.8,0.8-1.4,1c-0.5,0.3-1.1,0.4-1.7,0.5c-0.6,0.1-1.2,0.1-1.7,0.1
	c-0.8,0-1.6-0.1-2.3-0.3c-0.7-0.2-1.4-0.5-2-0.9c-0.5-0.4-1-0.9-1.3-1.6c-0.3-0.6-0.5-1.4-0.5-2.4h-5.9c0,1.7,0.3,3.2,0.9,4.4
	c0.6,1.2,1.5,2.2,2.6,3c1.1,0.8,2.4,1.4,3.8,1.7c1.4,0.4,2.9,0.6,4.4,0.6c1.9,0,3.5-0.2,4.9-0.7c1.4-0.4,2.6-1,3.6-1.8
	c1-0.8,1.7-1.7,2.2-2.8C105.1,34.1,105.3,32.9,105.3,31.7z M146.4,12.3l-10.3,27.2V12.3h-8.5l-6.2,19l-6.5-19h-8.5v27.6h5.7
	l0.1-19.4l6.8,19.4h4.7l6.8-19.5v19.5h5.7h6l2.2-6.1h10.3l2.1,6.1h6.3l-10.3-27.6H146.4z M145.8,29.2l3.7-10.1l3.5,10.1H145.8z
	 M243.4,12.3h-5.7l-0.1,18.5l-11.5-18.5h-6v27.6h5.7l0.1-18.5l11.5,18.5h6.1V12.3z M267.6,27.6l-8.1,1.3l3.7,3.7l3.1-0.5
	c-1.6,1.9-4,3.1-6.7,3.1c-4.9,0-8.8-3.9-8.8-8.8c0-4.9,3.9-8.8,8.8-8.8c3,0,5.7,1.5,7.3,3.9l5.2-1.7c-2.4-4.5-7.1-7.5-12.5-7.5
	c-7.8,0-14.1,6.3-14.1,14.1c0,7.8,6.3,14.1,14.1,14.1c3.9,0,7.5-1.6,10-4.2l-0.4,2.2l3.8,3.7l1.3-8.1l1.3-8.1L267.6,27.6z
	 M211.3,12.3h6.1v27.6h-6.1V12.3z M191.3,28h11.2v11.9h6.1V12.3h-6.1v10.6h-11.2V12.3h-6.1v27.6h6.1V28z M60.9,5.7
	c-0.9-3.8-4.7-6.1-8.4-5.3l-7.9,1.8c0.6,0.1,1.1,0.2,1.7,0.3c0,0,0,0,0,0c0.3,0.1,0.7,0.1,1,0.2c3.5,0.8,6.9,2,10.1,3.6l-4.5,12.2
	c-3.4-2.9-8.2-4.4-14.3-4.4c-5.5,0-8.2,2.2-8.2,6.5c0,1.7,0.9,3.3,2.7,4.6c1.8,1.4,5.6,3.2,11.5,5.6c4,1.6,7.3,3.4,9.7,5.4
	c1.2,0.9,2.2,1.9,3,3c2.6,3.3,3.9,7.3,3.9,12c0,4.6-1.2,8.4-3.7,11.6l8.9-2.1c3.8-0.9,6.2-4.7,5.3-8.4L60.9,5.7z M42.2,46.1
	c-1.8-1.6-5.4-3.6-10.7-5.8c-3.2-1.3-5.9-2.8-8.2-4.4c-6.1-4.3-9.2-9.5-9.2-15.8c0-4.2,1.1-7.7,3.4-10.5c0.1-0.2,0.3-0.4,0.5-0.5
	c0,0,0,0,0,0c0.3-0.3,0.5-0.6,0.8-0.9l-13,3c-3.8,0.9-6.2,4.7-5.3,8.4l10.8,46.6c0.9,3.8,4.6,6.1,8.4,5.3l5.3-1.2
	c-0.1,0-0.3-0.1-0.4-0.1c-0.2,0-0.4-0.1-0.6-0.2c-2.6-0.8-5.8-2.2-9.8-4.3l5.6-12.5c4.7,3.7,10,5.6,15.9,5.6c6.1,0,9.1-2.2,9.2-6.5
	C44.9,49.8,44,47.7,42.2,46.1z"/>
</svg>
