<?xml version="1.0" encoding="utf-8"?>
<!-- Generator: Adobe Illustrator 16.0.0, SVG Export Plug-In . SVG Version: 6.00 Build 0)  -->
<!DOCTYPE svg PUBLIC "-//W3C//DTD SVG 1.1//EN" "http://www.w3.org/Graphics/SVG/1.1/DTD/svg11.dtd">
<svg version="1.1" id="Capa_1" xmlns="http://www.w3.org/2000/svg" xmlns:xlink="http://www.w3.org/1999/xlink" x="0px" y="0px"
	 width="463.064px" height="93.933px" viewBox="0 0 463.064 93.933" enable-background="new 0 0 463.064 93.933"
	 xml:space="preserve">
<g id="bg" display="none">
	<rect x="-0.398" y="-10" display="inline" width="668" height="668"/>
</g>
<g id="Layer_1">
	<path d="M48.215,17.862c-3.497-5.619-9.741-8.117-16.112-8.117c-9.242,0-18.86,4.37-18.86,14.862
		c0,8.119,4.497,11.742,18.611,16.238c13.738,4.371,26.479,8.869,26.479,26.229c0,17.611-15.113,25.855-31.103,25.855
		C16.989,92.931,5.996,89.559,0,80.69l8.994-7.369c3.747,6.494,11.241,9.867,18.861,9.867c8.992,0,19.233-5.246,19.233-15.362
		c0-10.866-7.368-12.74-23.106-17.986C11.492,45.716,1.999,40.22,1.999,25.482C1.999,8.493,16.614,0,32.102,0
		c9.868,0,18.236,2.748,24.731,10.367L48.215,17.862z"/>
	<path d="M71.573,46.467C71.573,19.737,90.933,0,117.789,0s46.216,19.734,46.216,46.467c0,26.729-19.359,46.466-46.216,46.466
		C90.933,92.933,71.573,73.197,71.573,46.467z M152.763,46.467c0-20.36-14.239-36.724-34.976-36.724
		c-20.735,0-34.975,16.362-34.975,36.724c0,20.358,14.239,36.723,34.976,36.723C138.524,83.19,152.763,66.825,152.763,46.467z"/>
	<path d="M244.822,20.485c-5.245-7.12-13.614-10.74-22.107-10.74c-19.734,0-33.726,17.36-33.726,36.724
		c0,20.483,13.864,36.723,33.726,36.723c10.742,0,19.36-4.371,25.605-12.364l7.869,6.618c-7.869,10.617-19.36,15.489-33.477,15.489
		c-25.355,0-44.967-19.609-44.967-46.466C177.746,20.486,196.482,0,222.713,0c11.991,0,23.731,4.123,31.228,13.863L244.822,20.485z"
		/>
	<path d="M277.802,2.249h10.491v88.435h-10.491V2.249z"/>
	<path d="M387.186,55.959c0,19.234-10.285,37.974-38.143,37.974c-27.856,0-38.144-18.737-38.144-37.974V2.249h10.492V56.46
		c0,14.237,9.042,26.729,27.648,26.729c18.144,0,27.649-12.547,27.649-26.786V2.249h10.492v53.71H387.186z"/>
	<path d="M452.948,17.862c-3.497-5.619-9.742-8.117-16.112-8.117c-9.243,0-18.86,4.37-18.86,14.862
		c0,8.119,4.496,11.742,18.611,16.238c13.738,4.371,26.479,8.869,26.479,26.229c0,17.611-15.113,25.855-31.103,25.855
		c-10.242,0-21.234-3.372-27.23-12.241l8.994-7.369c3.747,6.494,11.241,9.867,18.861,9.867c8.992,0,19.234-5.246,19.234-15.362
		c0-10.866-7.369-12.74-23.107-17.986c-12.49-4.122-21.983-9.618-21.983-24.356C406.731,8.493,421.345,0,436.835,0
		c9.867,0,18.235,2.748,24.73,10.367L452.948,17.862z"/>
</g>
</svg>
