<?xml version="1.0" encoding="utf-8"?>
<!-- Generator: Adobe Illustrator 16.0.0, SVG Export Plug-In . SVG Version: 6.00 Build 0)  -->
<!DOCTYPE svg PUBLIC "-//W3C//DTD SVG 1.1//EN" "http://www.w3.org/Graphics/SVG/1.1/DTD/svg11.dtd">
<svg version="1.1" id="Layer_1" xmlns="http://www.w3.org/2000/svg" xmlns:xlink="http://www.w3.org/1999/xlink" x="0px" y="0px"
	 width="596.242px" height="65.136px" viewBox="0 0 596.242 65.136" enable-background="new 0 0 596.242 65.136"
	 xml:space="preserve">
<g id="logo-horizontal-black">
</g>
<g>
	<polygon points="0,12.025 20.292,12.025 20.292,65.135 33.195,65.135 33.195,12.025 53.737,12.025 53.737,0 0,0 	"/>
	<path d="M97.954,0L71.149,65.135h13.903l4.886-12.526h28.184l4.885,12.526h13.904L110.105,0H97.954z M94.447,41.211l6.389-16.535
		c1.378-3.632,3.132-9.019,3.132-9.019h0.125c0.125,0,1.754,5.387,3.131,9.019l6.389,16.535H94.447z"/>
	<path d="M200.041,22.296c-5.01,8.268-5.887,10.397-6.012,10.397h-0.126c-0.125,0-0.876-2.005-6.012-10.397L174.364,0h-12.15v65.136
		h12.776V44.718c0-13.653-0.501-23.048-0.501-23.048h0.125c0.126,0,4.635,8.017,5.888,9.896l10.146,17.537h6.64l10.146-17.537
		c1.128-1.879,5.637-9.896,5.763-9.896h0.125c0.125,0-0.376,9.395-0.376,23.048v20.418h12.776V0h-12.15L200.041,22.296z"/>
	<polygon points="370.397,12.025 390.689,12.025 390.689,65.135 403.591,65.135 403.591,12.025 424.134,12.025 424.134,0 370.397,0 
			"/>
	<path d="M468.351,0l-26.806,65.136h13.903l4.886-12.526h28.184l4.885,12.526h13.904L480.501,0H468.351z M464.843,41.211
		l6.389-16.535c1.378-3.632,3.132-9.019,3.132-9.019h0.125c0.125,0,1.754,5.387,3.132,9.019l6.514,16.535H464.843z"/>
	<path d="M584.092,0l-13.653,22.296c-5.011,8.268-5.888,10.397-6.013,10.397h-0.125c-0.126,0-0.877-2.005-6.013-10.397L544.76,0
		h-12.15v65.136h12.902V44.718c0-13.653-0.502-23.048-0.502-23.048h0.126c0.125,0,4.635,8.017,5.887,9.896l10.146,17.537h6.639
		l10.146-17.537c1.127-1.879,5.637-9.896,5.762-9.896h0.125c0.126,0-0.376,9.395-0.376,23.048v20.418h12.777V0H584.092z"/>
	<rect x="292.011" y="7.44" transform="matrix(0.7071 0.7071 -0.7071 0.7071 109.7515 -201.4825)" width="12.151" height="48.601"/>
</g>
</svg>
