<?xml version="1.0" encoding="utf-8"?>
<!-- Generator: Adobe Illustrator 19.1.0, SVG Export Plug-In . SVG Version: 6.00 Build 0)  -->
<svg version="1.1" id="Layer_1" xmlns="http://www.w3.org/2000/svg" xmlns:xlink="http://www.w3.org/1999/xlink" x="0px" y="0px"
	 viewBox="0 0 656.076 205.464" enable-background="new 0 0 656.076 205.464" xml:space="preserve">
<path fill="#FFFFFF" stroke="#FFFFFF" stroke-width="22.6794" d="M16.966,122.231c12.794,17.092,20.705,39.447,20.705,67.078
	c8.125,0,16.251,0,24.377,0c0-35.274-10.529-63.526-27.388-84.772L16.966,122.231z"/>
<path fill="#FFFFFF" stroke="#FFFFFF" stroke-width="22.6794" d="M34.659,104.538c16.859,21.246,27.388,49.497,27.388,84.772
	c8.125-0.001,16.251-0.001,24.376-0.001c0-42.918-13.169-77.055-34.114-102.421L34.659,104.538z"/>
<path fill="#FFFFFF" stroke="#FFFFFF" stroke-width="22.6794" d="M52.31,86.888c20.945,25.367,34.114,59.503,34.114,102.421
	c8.126,0,16.251,0,24.377,0c-0.001-50.564-15.831-90.57-40.873-120.038L52.31,86.888z"/>
<path fill="#FFFFFF" stroke="#FFFFFF" stroke-width="22.6794" d="M69.927,69.27c25.043,29.468,40.872,69.475,40.873,120.038
	c8.125-0.001,16.251-0.001,24.376-0.001c-0.001-58.209-18.494-104.088-47.641-137.644L69.927,69.27z"/>
<path fill="#FFFFFF" stroke="#FFFFFF" stroke-width="22.6794" d="M105.117,34.08L87.534,51.664
	c29.147,33.557,47.641,79.435,47.641,137.644c8.125,0,16.251,0,24.377,0C159.552,123.452,138.376,71.719,105.117,34.08z"/>
<g>
	<path fill="#FFFFFF" stroke="#FFFFFF" stroke-width="22.6794" d="M122.709,16.489L105.117,34.08
		c33.26,37.639,54.436,89.373,54.436,155.231c8.125,0,16.251,0,24.376,0C183.928,115.807,160.083,58.202,122.709,16.489z"/>
</g>
<rect fill="#FFFFFF" width="656.076" height="205.464"/>
<path fill="#86888F" d="M16.966,122.231c12.794,17.092,20.704,39.447,20.704,67.078c8.125,0,16.251,0,24.377,0
	c0-35.274-10.529-63.526-27.388-84.771L16.966,122.231z"/>
<path fill="#A8AAAD" d="M34.659,104.538c16.859,21.245,27.388,49.497,27.388,84.771c8.125-0.001,16.251-0.001,24.376-0.001
	c0-42.918-13.169-77.055-34.114-102.421L34.659,104.538z"/>
<path fill="#FFFFFF" d="M52.31,86.888c20.945,25.367,34.114,59.503,34.114,102.421c8.126,0,16.251,0,24.377,0
	c-0.001-50.564-15.831-90.57-40.873-120.038L52.31,86.888z"/>
<path fill="#FFE600" d="M69.927,69.27c25.043,29.468,40.872,69.475,40.873,120.038c8.125-0.001,16.251-0.001,24.376-0.001
	c-0.001-58.209-18.494-104.088-47.641-137.644L69.927,69.27z"/>
<path fill="#F37B20" d="M105.117,34.08L87.534,51.664c29.147,33.557,47.641,79.435,47.641,137.644c8.125,0,16.251,0,24.377,0
	C159.552,123.452,138.376,71.719,105.117,34.08z"/>
<g>
	<path fill="#EC1848" d="M122.709,16.489L105.117,34.08c33.26,37.639,54.436,89.373,54.436,155.231c8.125,0,16.251,0,24.376,0
		C183.928,115.807,160.083,58.202,122.709,16.489z"/>
</g>
<g>
	<path fill="#231F20" d="M231.91,31.614v63.603h-17.458V31.614h-14.455V16.489h46.37v15.125H231.91z"/>
	<path fill="#231F20" d="M289.286,95.217V62.304H270.94v32.913h-17.68V16.489h17.68v29.803h18.347V16.489h17.681v78.728H289.286z"/>
	<path fill="#231F20" d="M320.978,95.217V16.489h17.902v78.728H320.978z"/>
	<path fill="#231F20" d="M385.469,35.282c-1.335-1.557-2.891-2.761-4.67-3.612c-1.78-0.852-3.633-1.28-5.561-1.28
		c-2.001,0-3.799,0.634-5.392,1.894c-1.595,1.263-2.391,3.342-2.391,6.238c0,2.449,0.815,4.361,2.446,5.736
		c1.628,1.374,4.038,2.878,7.228,4.511c1.789,0.893,3.674,1.95,5.652,3.175c1.977,1.225,3.786,2.728,5.43,4.511
		c1.642,1.783,3.001,3.915,4.085,6.402c1.081,2.49,1.624,5.442,1.624,8.858c0,4.232-0.673,7.965-2.018,11.195
		c-1.342,3.228-3.151,5.9-5.427,8.018c-2.276,2.115-4.903,3.712-7.881,4.79c-2.979,1.075-6.063,1.612-9.25,1.612
		c-4.745,0-9.063-0.89-12.954-2.667c-3.891-1.78-7.025-3.853-9.396-6.229l9.119-13.342c1.703,1.78,3.67,3.207,5.893,4.282
		c2.225,1.075,4.485,1.612,6.783,1.612c2.15,0,3.965-0.705,5.449-2.115c1.482-1.407,2.223-3.372,2.223-5.891
		c0-2.596-0.888-4.652-2.668-6.173c-1.78-1.518-4.374-3.131-7.784-4.837c-2.151-1.037-4.169-2.185-6.06-3.448
		c-1.89-1.257-3.558-2.778-5.003-4.558c-1.446-1.78-2.577-3.853-3.392-6.226c-0.816-2.373-1.223-5.189-1.223-8.452
		c0-4.373,0.722-8.135,2.169-11.286c1.445-3.148,3.335-5.727,5.671-7.727c2.335-2.003,4.928-3.483,7.783-4.449
		c2.853-0.96,5.727-1.445,8.618-1.445c4.298,0,8.154,0.699,11.564,2.1c3.41,1.398,6.264,3.313,8.564,5.742L385.469,35.282z"/>
	<path fill="#231F20" d="M474.982,41.176c0,4.376-0.667,8.156-2,11.342c-1.336,3.186-3.113,5.821-5.339,7.894
		c-2.223,2.076-4.743,3.615-7.559,4.614c-2.819,1.001-5.671,1.504-8.564,1.504h-7.671v28.687h-17.46V16.489h24.464
		c2.816,0,5.653,0.408,8.508,1.225c2.852,0.816,5.448,2.167,7.783,4.059c2.335,1.891,4.226,4.429,5.671,7.615
		C474.259,32.577,474.982,36.506,474.982,41.176z M458.303,41.508c0-3.557-0.855-6.115-2.558-7.671
		c-1.706-1.557-3.78-2.335-6.226-2.335h-5.671v20.57h5.671c2.446,0,4.52-0.905,6.226-2.722
		C457.449,47.534,458.303,44.921,458.303,41.508z"/>
	<path fill="#231F20" d="M514.679,95.217l-3.225-14.344h-17.68l-3.225,14.344h-17.791l19.125-78.728h22.352l19.013,78.728H514.679z
		 M502.893,33.614h-0.446l-6.67,33.471h13.454L502.893,33.614z"/>
	<path fill="#231F20" d="M580.397,95.217c-3.559,1.184-7.747,1.78-12.567,1.78c-4.966,0-9.395-1.001-13.286-3.001
		c-3.891-2.003-7.192-4.799-9.897-8.396c-2.708-3.595-4.781-7.912-6.226-12.954c-1.448-5.04-2.17-10.637-2.17-16.79
		s0.722-11.768,2.17-16.846c1.445-5.078,3.501-9.454,6.17-13.122c2.67-3.671,5.874-6.505,9.618-8.508
		c3.742-2,7.912-3.001,12.511-3.001c5.336,0,9.8,0.907,13.398,2.725c3.595,1.815,6.432,4.097,8.508,6.837l-9.677,13.01
		c-2.678-3.706-6.329-5.559-10.946-5.559c-2.455,0-4.579,0.649-6.364,1.947c-1.789,1.298-3.278,3.057-4.47,5.28
		c-1.192,2.223-2.065,4.819-2.623,7.783c-0.561,2.966-0.837,6.117-0.837,9.454s0.258,6.488,0.781,9.451
		c0.52,2.966,1.36,5.559,2.517,7.783c1.154,2.226,2.608,4.003,4.358,5.339c1.753,1.333,3.859,2,6.32,2
		c2.681,0,4.769-0.555,6.261-1.668V64.084h-8.452V48.627h24.018v41.921C586.993,92.474,583.953,94.034,580.397,95.217z"/>
	<path fill="#231F20" d="M601.745,95.217V16.489h38.029v15.68h-21.016v15.457h19.348v14.678h-19.348v16.902h22.352v16.012H601.745z"
		/>
</g>
<g>
	<path fill="#231F20" d="M238.085,188.409l-4.253-17.504h-21.559l-4.451,17.504H200.8l17.802-70.017h9.395l17.307,70.017H238.085z
		 M223.349,124.62h-0.395l-9.693,40.746h19.581L223.349,124.62z"/>
	<path fill="#231F20" d="M301.773,188.409v-60.822h-0.297l-17.167,60.822h-6.413l-17.068-60.822h-0.297v60.822h-6.527v-70.017
		h10.286l16.712,59.139h0.396l16.515-59.139h10.681v70.017H301.773z"/>
	<path fill="#231F20" d="M354.977,170.509c0,3.098-0.461,5.853-1.385,8.258c-0.924,2.408-2.192,4.449-3.806,6.132
		c-1.617,1.68-3.511,2.966-5.687,3.856c-2.176,0.89-4.485,1.333-6.922,1.333c-3.561,0-6.841-0.758-9.841-2.273
		c-3-1.515-5.423-3.527-7.269-6.032l4.253-4.846c1.517,2.176,3.427,3.856,5.736,5.043c2.308,1.186,4.649,1.78,7.022,1.78
		c3.164,0,5.818-1.119,7.962-3.363c2.141-2.241,3.214-5.439,3.214-9.592c0-1.979-0.332-3.724-0.99-5.242
		c-0.659-1.515-1.549-2.866-2.67-4.053c-1.122-1.189-2.391-2.241-3.808-3.166c-1.418-0.922-2.918-1.78-4.501-2.573
		c-1.912-0.922-3.725-1.959-5.439-3.113c-1.715-1.154-3.214-2.488-4.499-4.006c-1.286-1.515-2.324-3.313-3.116-5.389
		c-0.79-2.079-1.186-4.502-1.186-7.269c0-3.231,0.495-6.05,1.483-8.458c0.99-2.405,2.325-4.414,4.006-6.032
		c1.681-1.615,3.576-2.816,5.687-3.609c2.109-0.79,4.317-1.186,6.626-1.186c3.164,0,6.016,0.543,8.555,1.633
		c2.537,1.087,4.664,2.784,6.379,5.092l-4.253,4.846c-1.32-1.912-2.868-3.28-4.649-4.106c-1.78-0.822-3.725-1.233-5.834-1.233
		c-1.385,0-2.755,0.247-4.104,0.74c-1.352,0.493-2.557,1.272-3.611,2.323c-1.054,1.057-1.912,2.408-2.571,4.056
		c-0.659,1.651-0.988,3.595-0.988,5.836c0,1.977,0.297,3.692,0.89,5.142c0.593,1.451,1.399,2.737,2.423,3.856
		c1.022,1.122,2.208,2.112,3.561,2.969c1.349,0.858,2.752,1.648,4.203,2.373c1.844,0.922,3.674,1.977,5.489,3.163
		c1.812,1.186,3.443,2.573,4.896,4.156c1.449,1.58,2.604,3.427,3.461,5.536C354.549,165.202,354.977,167.675,354.977,170.509z"/>
	<path fill="#231F20" d="M379.207,124.324v64.085h-6.824v-64.085h-13.449v-5.932h33.825v5.932H379.207z"/>
	<path fill="#231F20" d="M400.767,188.409v-70.017h28.185v6.129H407.49v24.529h20.076v5.932H407.49v27.198h22.452v6.229H400.767z"/>
	<path fill="#231F20" d="M470.588,188.409l-12.658-32.438h-9.001v32.438h-6.822v-70.017h16.811c2.308,0,4.534,0.311,6.675,0.937
		c2.144,0.628,4.056,1.668,5.736,3.116c1.683,1.451,3.034,3.363,4.056,5.736c1.022,2.373,1.533,5.278,1.533,8.705
		c0,2.966-0.379,5.521-1.137,7.662c-0.761,2.144-1.747,3.941-2.966,5.392c-1.222,1.451-2.573,2.57-4.056,3.363
		c-1.483,0.79-2.952,1.283-4.402,1.483l13.648,33.624H470.588z M470.192,137.231c0-2.496-0.347-4.581-1.037-6.255
		c-0.693-1.677-1.618-3.004-2.769-3.991c-1.154-0.987-2.473-1.674-3.956-2.068c-1.483-0.396-3.016-0.593-4.599-0.593h-8.902v26.208
		h9.198c3.759,0,6.708-1.166,8.852-3.498C469.12,144.703,470.192,141.434,470.192,137.231z"/>
	<path fill="#231F20" d="M529.628,153.498c0,5.736-0.593,10.778-1.78,15.131c-1.187,4.352-2.902,7.994-5.142,10.928
		c-2.241,2.934-4.928,5.142-8.059,6.626c-3.134,1.483-6.611,2.226-10.435,2.226h-15.031v-70.017h15.131
		c3.824,0,7.301,0.74,10.432,2.223s5.803,3.709,8.012,6.675c2.208,2.966,3.906,6.643,5.093,11.028
		C529.034,142.703,529.628,147.763,529.628,153.498z M522.805,153.498c0-4.96-0.479-9.278-1.433-12.949
		c-0.957-3.671-2.276-6.699-3.956-9.081c-1.683-2.382-3.659-4.167-5.935-5.36c-2.273-1.189-4.731-1.786-7.369-1.786h-8.109v58.153
		h8.109c2.637,0,5.095-0.596,7.369-1.789c2.276-1.189,4.253-2.975,5.935-5.357c1.68-2.382,2.999-5.392,3.956-9.031
		C522.327,162.661,522.805,158.394,522.805,153.498z"/>
	<path fill="#231F20" d="M570.274,188.409l-4.253-17.504h-21.559l-4.449,17.504h-7.022l17.8-70.017h9.395l17.307,70.017H570.274z
		 M555.536,124.62h-0.394l-9.692,40.746h19.58L555.536,124.62z"/>
	<path fill="#231F20" d="M633.962,188.409v-60.822h-0.297L616.5,188.409h-6.411l-17.069-60.822h-0.297v60.822h-6.526v-70.017h10.285
		l16.714,59.139h0.394l16.517-59.139h10.681v70.017H633.962z"/>
</g>
<g>
</g>
<g>
</g>
<g>
</g>
<g>
</g>
<g>
</g>
<g>
</g>
</svg>
