<?xml version="1.0" encoding="utf-8"?>
<!DOCTYPE svg PUBLIC "-//W3C//DTD SVG 1.1//EN" "http://www.w3.org/Graphics/SVG/1.1/DTD/svg11.dtd">
<svg version="1.1" id="Layer_1" xmlns="http://www.w3.org/2000/svg" xmlns:xlink="http://www.w3.org/1999/xlink" x="0px" y="0px"
	 width="595.281px" height="595.28px" viewBox="0 123.305 595.281 595.28" enable-background="new 0 123.305 595.281 595.28"
	 xml:space="preserve">
	<path fill="#000000" d="M0,123.305v595.28h595.281v-595.28H0z M571.923,694.566H23.358V147.325h548.565V694.566L571.923,694.566z
		"/>
	<path fill="#000000" d="M168.757,514.887c14.7,0,29.532-5.939,29.532-26.595V327.005H180.92v155.867
	c0,13.43-3.133,17.555-11.919,17.555c-8.505,0-12.897-4.125-12.897-17.555V327.005h-17.031v161.287
	C139.073,508.947,154.557,514.887,168.757,514.887z"/>
	<path fill="#000000" d="M231.192,513.334l16.514-78.447h0.518l16.521,78.447h17.03l-23.737-93.681l21.926-92.648h-17.023
	l-14.717,75.624h-0.518l-14.701-75.624h-17.039l22.459,92.648l-24.263,93.681H231.192z"/>
	<path fill="#000000" d="M313.371,429.468h10.732c21.926,0,28.375-7.232,28.375-28.392v-45.672
	c0-21.164-6.447-28.398-28.375-28.398h-26.45v186.328h15.717V429.468z M313.371,341.464h8.914c7.742,0,13.162,2.062,13.162,11.618
	v50.323c0,9.54-5.42,11.602-13.162,11.602h-8.914V341.464L313.371,341.464z"/>
	<path fill="#000000" d="M367,513.334h15.666V372.676H367V513.334z"/>
	<path fill="#000000" d="M382.859,327.005h-15.715v19.613h15.715V327.005z"/>
	<path fill="#000000" d="M418.708,398.494c0-5.68,3.955-12.904,11.441-12.904c7.223,0,10.393,5.42,10.393,12.904v114.838h15.666
	V392.297c0-11.361-5.93-21.149-19.102-21.149c-8.254,0-14.629,5.155-18.246,11.085h-0.51v-9.557h-15.297v140.658h15.656v-114.84
	H418.708z"/>
</svg>
