<?xml version="1.0" encoding="utf-8"?>
<!-- Generator: Adobe Illustrator 15.0.0, SVG Export Plug-In . SVG Version: 6.00 Build 0)  -->
<!DOCTYPE svg PUBLIC "-//W3C//DTD SVG 1.1//EN" "http://www.w3.org/Graphics/SVG/1.1/DTD/svg11.dtd">
<svg version="1.1" id="Layer_1" xmlns="http://www.w3.org/2000/svg" xmlns:xlink="http://www.w3.org/1999/xlink" x="0px" y="0px"
	 width="120.667px" height="142px" viewBox="0 0 120.667 142" enable-background="new 0 0 120.667 142" xml:space="preserve">
<g>
	<path d="M116.893,119.759c-0.69,0.694-1.526,1.042-2.507,1.042c-0.979,0-1.812-0.348-2.5-1.042c-0.685-0.69-1.027-1.528-1.027-2.51
		c0-0.975,0.346-1.806,1.037-2.498c0.688-0.688,1.518-1.03,2.49-1.03c0.98,0,1.816,0.343,2.507,1.03
		c0.691,0.688,1.036,1.521,1.036,2.498C117.929,118.228,117.584,119.064,116.893,119.759 M112.237,115.1
		c-0.591,0.593-0.887,1.312-0.887,2.152c0,0.85,0.293,1.572,0.881,2.17c0.592,0.599,1.311,0.896,2.154,0.896
		c0.847,0,1.563-0.298,2.155-0.896c0.592-0.598,0.887-1.32,0.887-2.17c0-0.841-0.295-1.56-0.887-2.152
		c-0.593-0.599-1.313-0.897-2.155-0.897C113.547,114.202,112.832,114.501,112.237,115.1 M114.318,115.296
		c0.482,0,0.837,0.047,1.062,0.14c0.401,0.168,0.603,0.496,0.603,0.985c0,0.347-0.127,0.603-0.379,0.767
		c-0.136,0.087-0.321,0.149-0.561,0.188c0.303,0.048,0.524,0.175,0.665,0.381c0.141,0.205,0.211,0.405,0.211,0.601v0.284
		c0,0.089,0.003,0.186,0.01,0.289c0.007,0.103,0.02,0.17,0.035,0.202l0.023,0.047h-0.642c-0.003-0.012-0.007-0.024-0.01-0.037
		c-0.002-0.014-0.005-0.027-0.011-0.043l-0.014-0.125v-0.309c0-0.447-0.121-0.744-0.365-0.888c-0.146-0.084-0.399-0.125-0.762-0.125
		h-0.54v1.526h-0.684v-3.884H114.318z M115.058,115.908c-0.171-0.097-0.447-0.145-0.828-0.145h-0.585v1.407h0.618
		c0.291,0,0.509-0.028,0.653-0.087c0.268-0.106,0.4-0.309,0.4-0.605C115.316,116.194,115.231,116.005,115.058,115.908"/>
	<path d="M3.656,112.2h4.803c0.46,1.962,0.855,3.657,1.186,5.088s0.61,2.662,0.84,3.69c0.23,1.032,0.421,1.897,0.57,2.598
		c0.15,0.7,0.275,1.306,0.376,1.816c0.1,0.51,0.185,0.965,0.254,1.365c0.07,0.4,0.136,0.801,0.196,1.201h0.06
		c0.1-0.562,0.204-1.166,0.315-1.817c0.109-0.649,0.27-1.535,0.48-2.656c0.21-1.12,0.485-2.575,0.825-4.367
		c0.34-1.79,0.8-4.097,1.38-6.918h4.773c0.42,1.98,0.78,3.678,1.08,5.088c0.301,1.411,0.555,2.621,0.765,3.631
		c0.211,1.012,0.386,1.861,0.525,2.553c0.14,0.689,0.261,1.29,0.36,1.8c0.1,0.511,0.186,0.971,0.255,1.381
		c0.07,0.41,0.146,0.846,0.226,1.307h0.062c0.061-0.341,0.127-0.69,0.197-1.052c0.071-0.359,0.158-0.795,0.26-1.306
		c0.102-0.51,0.234-1.125,0.397-1.847c0.162-0.719,0.365-1.604,0.61-2.654c0.244-1.052,0.539-2.302,0.885-3.752
		c0.346-1.451,0.753-3.168,1.221-5.148h4.502l-6.063,21.551h-4.321c-0.38-1.761-0.705-3.302-0.976-4.622s-0.51-2.491-0.721-3.512
		c-0.21-1.021-0.39-1.916-0.54-2.686c-0.15-0.771-0.285-1.486-0.405-2.146c-0.119-0.661-0.234-1.291-0.345-1.892
		c-0.109-0.6-0.225-1.25-0.346-1.951h-0.061c-0.099,0.701-0.205,1.342-0.313,1.922c-0.111,0.58-0.222,1.185-0.33,1.815
		c-0.111,0.63-0.241,1.315-0.391,2.056c-0.15,0.74-0.33,1.62-0.541,2.642c-0.21,1.021-0.461,2.211-0.75,3.572
		c-0.291,1.36-0.625,2.961-1.006,4.802H9.75L3.656,112.2z"/>
	<path d="M43.846,129.068c-0.28,0.961-0.676,1.767-1.186,2.417c-0.511,0.65-1.086,1.176-1.727,1.575
		c-0.64,0.401-1.315,0.686-2.025,0.855c-0.711,0.169-1.405,0.255-2.086,0.255c-1.12,0-2.166-0.145-3.138-0.435
		c-0.97-0.291-1.811-0.775-2.521-1.456s-1.271-1.58-1.681-2.701c-0.41-1.12-0.615-2.501-0.615-4.143c0-0.319,0.025-0.739,0.076-1.26
		c0.049-0.521,0.164-1.081,0.345-1.681c0.18-0.601,0.439-1.206,0.78-1.816c0.339-0.609,0.795-1.16,1.365-1.65
		c0.569-0.491,1.271-0.891,2.101-1.201c0.831-0.31,1.826-0.464,2.987-0.464c0.779,0,1.61,0.113,2.491,0.344
		c0.88,0.23,1.69,0.671,2.431,1.321s1.355,1.546,1.846,2.687c0.49,1.14,0.736,2.621,0.736,4.442v0.75H33.07
		c0.02,0.3,0.07,0.671,0.15,1.11c0.08,0.44,0.245,0.87,0.494,1.291c0.251,0.42,0.621,0.775,1.112,1.063
		c0.489,0.292,1.155,0.437,1.995,0.437c0.58,0,1.136-0.145,1.666-0.437c0.529-0.288,0.875-0.725,1.035-1.305H43.846z
		 M39.704,124.177c-0.061-0.641-0.201-1.176-0.421-1.605c-0.22-0.431-0.48-0.776-0.78-1.037c-0.3-0.26-0.631-0.443-0.99-0.555
		c-0.36-0.109-0.71-0.164-1.051-0.164c-1.001,0-1.766,0.295-2.296,0.886c-0.53,0.59-0.854,1.414-0.976,2.476H39.704z"/>
	<path d="M49.729,119.854h0.06c0.16-0.26,0.366-0.534,0.615-0.824c0.251-0.29,0.561-0.561,0.931-0.811s0.806-0.455,1.307-0.615
		c0.499-0.16,1.09-0.239,1.771-0.239c0.88,0,1.721,0.169,2.521,0.509c0.801,0.341,1.506,0.851,2.116,1.531
		c0.611,0.681,1.097,1.536,1.457,2.566c0.359,1.03,0.538,2.235,0.538,3.616c0,1.101-0.13,2.166-0.39,3.196
		c-0.261,1.032-0.659,1.946-1.199,2.747c-0.541,0.8-1.236,1.44-2.087,1.92c-0.851,0.48-1.866,0.721-3.047,0.721
		c-0.881,0-1.74-0.18-2.581-0.54c-0.84-0.36-1.521-0.99-2.041-1.891h-0.06v2.011h-4.112V112.2h4.202V119.854z M56.722,125.887
		c0-0.619-0.06-1.225-0.18-1.815c-0.12-0.59-0.32-1.114-0.601-1.575s-0.65-0.825-1.11-1.096c-0.461-0.27-1.021-0.406-1.681-0.406
		c-0.721,0-1.316,0.151-1.786,0.451c-0.47,0.299-0.84,0.689-1.109,1.17c-0.271,0.48-0.457,1.026-0.557,1.637
		c-0.101,0.61-0.149,1.235-0.149,1.875c0,0.602,0.069,1.176,0.209,1.726c0.141,0.552,0.361,1.037,0.661,1.457
		c0.301,0.42,0.686,0.76,1.155,1.02c0.471,0.26,1.036,0.391,1.696,0.391c0.68,0,1.241-0.166,1.681-0.496
		c0.44-0.33,0.79-0.734,1.051-1.215c0.26-0.479,0.444-1,0.555-1.561C56.667,126.889,56.722,126.368,56.722,125.887"/>
	<path d="M60.564,117.783h4.682l3.422,11.766h0.058l3.214-11.766h4.502l-5.613,16.178c-0.42,1.16-0.81,2.181-1.169,3.062
		c-0.36,0.879-0.752,1.556-1.172,2.025c-0.42,0.472-0.916,0.777-1.485,0.917c-0.57,0.139-1.316,0.209-2.236,0.209
		c-0.281,0-0.591-0.005-0.931-0.015s-0.66-0.024-0.961-0.045v-3.361c0.1,0.019,0.215,0.034,0.347,0.044
		c0.129,0.011,0.285,0.016,0.465,0.016c0.379,0,0.721-0.021,1.021-0.06c0.3-0.041,0.559-0.146,0.78-0.315
		c0.22-0.171,0.41-0.416,0.569-0.736c0.161-0.319,0.29-0.75,0.391-1.29L60.564,117.783z"/>
	<path d="M92.289,133.751h-4.112v-2.011h-0.061c-0.52,0.9-1.2,1.53-2.04,1.891c-0.841,0.36-1.702,0.54-2.581,0.54
		c-1.181,0-2.195-0.24-3.046-0.721c-0.851-0.479-1.547-1.12-2.087-1.92c-0.541-0.801-0.94-1.715-1.201-2.747
		c-0.261-1.03-0.389-2.096-0.389-3.196c0-1.381,0.18-2.586,0.54-3.616c0.358-1.03,0.844-1.886,1.456-2.566
		c0.608-0.681,1.315-1.19,2.116-1.531c0.799-0.34,1.64-0.509,2.521-0.509c0.68,0,1.27,0.079,1.771,0.239
		c0.5,0.16,0.936,0.365,1.305,0.615c0.37,0.25,0.681,0.521,0.932,0.811c0.25,0.29,0.456,0.564,0.615,0.824h0.06V112.2h4.202V133.751
		z M81.094,125.887c0,0.481,0.055,1.002,0.165,1.562c0.109,0.561,0.295,1.081,0.556,1.561c0.261,0.48,0.61,0.885,1.051,1.215
		c0.439,0.33,1,0.496,1.681,0.496c0.66,0,1.225-0.131,1.694-0.391c0.472-0.26,0.855-0.6,1.156-1.02c0.3-0.42,0.521-0.905,0.66-1.457
		c0.141-0.55,0.211-1.124,0.211-1.726c0-0.64-0.057-1.265-0.165-1.875c-0.111-0.61-0.3-1.156-0.571-1.637
		c-0.269-0.48-0.636-0.871-1.096-1.17c-0.459-0.3-1.049-0.451-1.77-0.451c-0.66,0-1.221,0.137-1.683,0.406
		c-0.459,0.271-0.83,0.635-1.109,1.096c-0.281,0.461-0.48,0.985-0.601,1.575C81.154,124.662,81.094,125.268,81.094,125.887"/>
	<path d="M110.269,125.766c0,1.442-0.225,2.693-0.676,3.754c-0.449,1.06-1.052,1.936-1.801,2.626c-0.751,0.69-1.615,1.2-2.597,1.53
		c-0.98,0.33-2.012,0.495-3.092,0.495s-2.111-0.165-3.092-0.495c-0.979-0.33-1.844-0.84-2.595-1.53s-1.352-1.566-1.803-2.626
		c-0.449-1.061-0.676-2.312-0.676-3.754c0-1.44,0.227-2.685,0.676-3.734c0.451-1.052,1.052-1.922,1.803-2.613
		c0.751-0.689,1.615-1.204,2.595-1.545c0.98-0.34,2.012-0.509,3.092-0.509s2.111,0.169,3.092,0.509
		c0.981,0.341,1.846,0.855,2.597,1.545c0.749,0.691,1.352,1.562,1.801,2.613C110.044,123.081,110.269,124.325,110.269,125.766
		 M105.946,125.766c0-0.498-0.051-1.033-0.15-1.604c-0.1-0.57-0.285-1.095-0.556-1.575c-0.27-0.481-0.66-0.881-1.17-1.2
		c-0.511-0.321-1.166-0.481-1.967-0.481c-0.82,0-1.48,0.16-1.98,0.481c-0.501,0.319-0.886,0.719-1.156,1.2
		c-0.27,0.48-0.454,1.005-0.556,1.575c-0.1,0.571-0.149,1.106-0.149,1.604c0,0.521,0.05,1.067,0.149,1.638
		c0.102,0.57,0.286,1.095,0.556,1.576c0.271,0.48,0.655,0.875,1.156,1.185c0.5,0.312,1.16,0.466,1.98,0.466
		c0.801,0,1.456-0.154,1.967-0.466c0.51-0.31,0.9-0.704,1.17-1.185c0.271-0.481,0.456-1.006,0.556-1.576
		S105.946,126.287,105.946,125.766"/>
	<rect x="111.978" y="129.368" width="4.502" height="4.383"/>
	<path d="M95.061,28.288L79.274,86.987H66.45l-9.948-39.954h-0.164l-9.783,39.954H33.482L17.944,28.288h12.907l9.29,39.955h0.165
		L50.5,28.288h12.086l10.029,40.448h0.165l9.618-40.448H95.061z M110.267,1.826H2.737v106.033h107.529V1.826z"/>
</g>
</svg>
